<svg xmlns="http://www.w3.org/2000/svg" xmlns:xlink="http://www.w3.org/1999/xlink" viewBox="0 0 626.18 600"><defs><style>.cls-1{fill:#aaa;}.cls-13,.cls-2{fill:none;}.cls-3{fill:#da9959;}.cls-4{fill:#ffd2b0;}.cls-5{fill:#f7b67c;}.cls-6{fill:#6f4221;}.cls-10,.cls-7{fill:#fffeff;}.cls-8{mask:url(#mask);}.cls-9{fill:#7c522e;}.cls-10{font-size:85.59px;font-family:BubbleShineRegular, Bubble Shine;}.cls-11{fill:#9b663e;}.cls-12{fill:#e2a06a;}.cls-13{stroke:#ffd2b0;stroke-miterlimit:10;}</style><mask id="mask" x="104.92" y="174.75" width="236.35" height="332.04" maskUnits="userSpaceOnUse"><path class="cls-1" d="M341.28,210.34V506.8h-170a13.72,13.72,0,0,1-13.7-13.7V210.34Z"/></mask></defs><g id="Layer_2" data-name="Layer 2"><g id="Layer_1-2" data-name="Layer 1"><rect class="cls-2" width="626.18" height="600"/></g><g id="vegleges"><path class="cls-3" d="M154.15,206.91H344.7a0,0,0,0,1,0,0V510.22a0,0,0,0,1,0,0H169.15a15,15,0,0,1-15-15V206.91A0,0,0,0,1,154.15,206.91Z"/><path class="cls-4" d="M457.46,383.64V510.22H344.7V396.66a19.44,19.44,0,0,0,8,1.61c20.82,0,20.82-27.39,41.63-27.39s20.82,27.39,41.63,27.39C446.81,398.27,452,390.77,457.46,383.64Z"/><path class="cls-5" d="M457.46,206.91V383.64c-5.46,7.13-10.65,14.63-21.54,14.63-20.81,0-20.81-27.39-41.63-27.39s-20.81,27.39-41.63,27.39a19.44,19.44,0,0,1-8-1.61V206.91Z"/><rect class="cls-3" x="344.7" y="206.91" width="99.94" height="303.31"/><polygon class="cls-5" points="398.08 120.37 344.7 206.91 457.45 206.91 398.08 120.37"/><polygon class="cls-3" points="392.01 130.21 344.7 206.91 444.63 206.91 392.01 130.21"/><polygon class="cls-3" points="398.08 120.37 207.47 120.37 207.49 120.39 154.11 206.91 344.73 206.91 344.71 206.9 398.08 120.37"/><path class="cls-5" d="M219.91,90.64H383.67a11,11,0,0,1,11,11v17.88a0,0,0,0,1,0,0H210.91a0,0,0,0,1,0,0V99.64A9,9,0,0,1,219.91,90.64Z"/><path class="cls-3" d="M212.56,100h169a10.36,10.36,0,0,1,10.36,10.36v10a0,0,0,0,1,0,0H204.08a0,0,0,0,1,0,0V108.45A8.48,8.48,0,0,1,212.56,100Z"/><path class="cls-6" d="M460.82,206.39a.15.15,0,0,0,0-.07,3.74,3.74,0,0,0-.16-.62,5.38,5.38,0,0,0-.37-.73L401.5,119.31v-10.7a22.27,22.27,0,0,0-22.25-22.25H222.9a18.85,18.85,0,0,0-18.83,18.83V119.4L151.2,205.11a3.36,3.36,0,0,0-.48,2v286a20.56,20.56,0,0,0,20.54,20.54H457.45a3.43,3.43,0,0,0,3.43-3.42V206.91A2.31,2.31,0,0,0,460.82,206.39ZM348.12,506.8V210.33H454V506.8ZM157.57,210.33h183.7V506.8h-170a13.71,13.71,0,0,1-13.69-13.7Zm2.68-6.84,49.16-79.69H392l-49.16,79.69ZM222.9,93.2H379.25a15.43,15.43,0,0,1,15.41,15.41V117H210.92V105.19A12,12,0,0,1,222.9,93.2Zm153.36,69.06,22-35.61,48.88,71.23Zm-25.43,41.23,21.83-35.38L443,203.49Z"/><path class="cls-7" d="M444.63,396.53V506.8h-96.5V398a19.58,19.58,0,0,0,4.53.5c20.82,0,20.82-27.39,41.63-27.39s20.82,27.39,41.63,27.39A19.33,19.33,0,0,0,444.63,396.53Z"/><path class="cls-7" d="M341.28,394.93V506.8h-170a13.72,13.72,0,0,1-13.7-13.7V376c9.26,7.84,13.35,22.51,28.59,22.51,20.8,0,20.8-27.39,41.61-27.39s20.82,27.39,41.63,27.39,20.82-27.39,41.63-27.39C327.16,371.09,330.79,387.52,341.28,394.93Z"/><g class="cls-8"><rect class="cls-6" x="153.02" y="165.74" width="89.59" height="166.95" rx="5.17" transform="translate(507.69 176.93) rotate(115.31)"/><rect class="cls-9" x="226.47" y="275.46" width="29.65" height="29.65" rx="2.87" transform="translate(606.87 196.25) rotate(115.31)"/><path class="cls-6" d="M234.24,295.83a1.71,1.71,0,0,1,2.28-.82l10.07,4.77a1.71,1.71,0,1,1-1.46,3.09l-10.08-4.76A1.71,1.71,0,0,1,234.24,295.83Z"/><path class="cls-6" d="M227.7,292.74a1.72,1.72,0,0,1,2.28-.82l1.27.6a1.71,1.71,0,0,1-1.46,3.1l-1.27-.6A1.72,1.72,0,0,1,227.7,292.74Z"/><rect class="cls-9" x="242.91" y="240.69" width="29.65" height="29.65" rx="2.87" transform="translate(598.91 131.75) rotate(115.31)"/><path class="cls-6" d="M250.68,261.06a1.71,1.71,0,0,1,2.28-.82L263,265a1.71,1.71,0,1,1-1.46,3.09l-10.07-4.76A1.72,1.72,0,0,1,250.68,261.06Z"/><path class="cls-6" d="M244.14,258a1.72,1.72,0,0,1,2.28-.82l1.27.6a1.71,1.71,0,0,1-1.46,3.1l-1.27-.6A1.73,1.73,0,0,1,244.14,258Z"/><rect class="cls-9" x="208.41" y="224.37" width="29.65" height="29.65" rx="2.87" transform="translate(534.9 139.65) rotate(115.31)"/><path class="cls-6" d="M216.18,244.74a1.7,1.7,0,0,1,2.27-.81l10.08,4.76a1.71,1.71,0,0,1-1.46,3.1L217,247A1.71,1.71,0,0,1,216.18,244.74Z"/><path class="cls-6" d="M209.64,241.65a1.71,1.71,0,0,1,2.28-.81l1.27.6a1.71,1.71,0,0,1-1.47,3.09l-1.26-.6A1.71,1.71,0,0,1,209.64,241.65Z"/><rect class="cls-9" x="173.9" y="208.06" width="29.65" height="29.65" rx="2.87" transform="translate(470.89 147.55) rotate(115.31)"/><path class="cls-6" d="M181.67,228.43a1.7,1.7,0,0,1,2.28-.82L194,232.37a1.71,1.71,0,0,1-1.46,3.1l-10.07-4.77A1.7,1.7,0,0,1,181.67,228.43Z"/><path class="cls-6" d="M175.13,225.33a1.71,1.71,0,0,1,2.28-.81l1.27.6a1.71,1.71,0,1,1-1.46,3.09l-1.27-.6A1.72,1.72,0,0,1,175.13,225.33Z"/><rect class="cls-9" x="139.4" y="191.74" width="29.65" height="29.65" rx="2.87" transform="translate(406.88 155.45) rotate(115.31)"/><path class="cls-6" d="M147.17,212.11a1.7,1.7,0,0,1,2.27-.82l10.08,4.77a1.71,1.71,0,1,1-1.46,3.09L148,214.39A1.71,1.71,0,0,1,147.17,212.11Z"/><path class="cls-6" d="M140.63,209a1.71,1.71,0,0,1,2.28-.82l1.27.6a1.72,1.72,0,0,1-1.47,3.1l-1.26-.6A1.72,1.72,0,0,1,140.63,209Z"/><rect class="cls-9" x="191.96" y="259.14" width="29.65" height="29.65" rx="2.87" transform="translate(542.86 204.15) rotate(115.31)"/><path class="cls-6" d="M199.73,279.51a1.73,1.73,0,0,1,2.28-.82l10.08,4.77a1.71,1.71,0,1,1-1.47,3.09l-10.07-4.76A1.71,1.71,0,0,1,199.73,279.51Z"/><path class="cls-6" d="M193.2,276.42a1.72,1.72,0,0,1,2.28-.82l1.27.6a1.72,1.72,0,0,1-1.47,3.1l-1.27-.6A1.71,1.71,0,0,1,193.2,276.42Z"/><rect class="cls-9" x="157.46" y="242.83" width="29.65" height="29.65" rx="2.87" transform="translate(478.85 212.05) rotate(115.31)"/><path class="cls-6" d="M165.23,263.19a1.71,1.71,0,0,1,2.28-.81l10.07,4.76a1.71,1.71,0,0,1-1.46,3.1L166,265.47A1.71,1.71,0,0,1,165.23,263.19Z"/><path class="cls-6" d="M158.69,260.1a1.71,1.71,0,0,1,2.28-.81l1.27.6a1.71,1.71,0,1,1-1.46,3.09l-1.27-.6A1.71,1.71,0,0,1,158.69,260.1Z"/><rect class="cls-9" x="122.95" y="226.51" width="29.65" height="29.65" rx="2.87" transform="translate(414.84 219.95) rotate(115.31)"/><path class="cls-6" d="M130.72,246.88a1.72,1.72,0,0,1,2.28-.82l10.08,4.76a1.72,1.72,0,0,1-1.47,3.1l-10.07-4.76A1.72,1.72,0,0,1,130.72,246.88Z"/><path class="cls-6" d="M124.19,243.79a1.71,1.71,0,0,1,2.28-.82l1.27.6a1.71,1.71,0,1,1-1.47,3.09l-1.27-.6A1.7,1.7,0,0,1,124.19,243.79Z"/></g><text class="cls-10" transform="translate(183.57 353.47)">MILK</text><path class="cls-7" d="M185.19,364.17h0a.4.4,0,0,1-.45-.2L183.26,361a1.35,1.35,0,0,0-1.24-.73l-3.67.12a.37.37,0,0,1-.18-.69l3.51-1.84a.66.66,0,0,0,.37-.62l-.18-4a.36.36,0,0,1,.27-.37h0a.37.37,0,0,1,.42.18l1.92,3.31a1,1,0,0,0,.88.49l3.44-.08a.42.42,0,0,1,.42.32.41.41,0,0,1-.21.48l-3.17,1.74a1,1,0,0,0-.53.94l.16,3.5A.39.39,0,0,1,185.19,364.17Zm-6.54-4.2,3.36-.11a1.78,1.78,0,0,1,1.64,1l1.38,2.74-.15-3.29a1.47,1.47,0,0,1,.76-1.35l3.17-1.73-3.42.1a1.44,1.44,0,0,1-1.28-.71l-1.79-3.09.16,3.74a1.1,1.1,0,0,1-.59,1Z"/><path class="cls-7" d="M276.63,284.07h0a.67.67,0,0,1-.56-.66l-.1-5.78a2.35,2.35,0,0,0-1.39-2.11l-5.91-2.62a.65.65,0,0,1,.25-1.24l7-.22a1.17,1.17,0,0,0,1.05-.71l2.79-6.46a.63.63,0,0,1,.71-.39h0a.65.65,0,0,1,.54.6l.5,6.71a1.75,1.75,0,0,0,1,1.47l5.51,2.5a.73.73,0,0,1,.42.82.75.75,0,0,1-.7.61l-6.36.32a1.81,1.81,0,0,0-1.57,1.09l-2.42,5.67A.7.7,0,0,1,276.63,284.07Zm-7.15-11.66,5.41,2.39a3.14,3.14,0,0,1,1.86,2.81l.09,5.4,2.27-5.32a2.61,2.61,0,0,1,2.24-1.56l6.36-.32-5.51-2.46a2.52,2.52,0,0,1-1.47-2.11l-.47-6.27-2.61,6a2,2,0,0,1-1.74,1.19Z"/><path class="cls-7" d="M326.05,359.93h0a.8.8,0,0,1-1-.19l-4.34-5.13a2.74,2.74,0,0,0-2.81-.87l-7.24,2a.75.75,0,0,1-.69-1.3l6.11-5.32a1.38,1.38,0,0,0,.42-1.42l-2.24-7.87a.76.76,0,0,1,.35-.88h0a.76.76,0,0,1,.92.15l5.4,5.68a2,2,0,0,0,2,.56l6.8-1.8a.87.87,0,0,1,.81,1.49l-5.5,5a2.11,2.11,0,0,0-.6,2.14l2,6.88A.79.79,0,0,1,326.05,359.93Zm-15-5.24,6.63-1.81A3.62,3.62,0,0,1,321.4,354l4.06,4.8-1.87-6.47a3,3,0,0,1,.87-3l5.49-5-6.77,1.84a2.92,2.92,0,0,1-2.87-.82l-5-5.3,2.1,7.37a2.26,2.26,0,0,1-.69,2.34Z"/><path class="cls-5" d="M218.22,386.82a.89.89,0,0,1-.89.62l-7.39-.5a2.14,2.14,0,0,0-2,1l-3.56,6.22a.8.8,0,0,1-1.5-.48l.44-4.38c.36-.41.7-.82,1-1.25l-.53,5.29,3.35-5.84a3,3,0,0,1,2.79-1.49l7.4.48-6-3.58a2.92,2.92,0,0,1-1.39-2c.29-.35.58-.71.89-1.06l0,.5a2,2,0,0,0,1,1.83l6,3.63A.87.87,0,0,1,218.22,386.82Z"/><path class="cls-7" d="M211.17,372.53l-.31,7.32c-.31.35-.6.71-.89,1.06a3.89,3.89,0,0,1,0-.59l.3-7.31-3.81,6.64a2.29,2.29,0,0,1-2.18,1.13l-7.44-.64,5.92,3.5a3.66,3.66,0,0,1,1.76,3.49l-.1,1c-.33.43-.67.84-1,1.25l.24-2.3a2.76,2.76,0,0,0-1.33-2.62l-6.47-3.83a.71.71,0,0,1-.33-.87.75.75,0,0,1,.77-.52l8.08.69a1.37,1.37,0,0,0,1.32-.69l4.09-7.08a.74.74,0,0,1,.87-.36h0A.76.76,0,0,1,211.17,372.53Z"/><path class="cls-5" d="M211.86,400.19h0a.31.31,0,0,1-.37-.13l-1.38-2.19a1.07,1.07,0,0,0-1-.49l-2.88.37a.28.28,0,0,1-.31-.19.28.28,0,0,1,.11-.34l2.63-1.71a.52.52,0,0,0,.24-.52l-.43-3.13a.29.29,0,0,1,.18-.32h0a.27.27,0,0,1,.34.11l1.76,2.46a.78.78,0,0,0,.73.32l2.7-.32a.34.34,0,0,1,.36.22.35.35,0,0,1-.13.4l-2.37,1.6a.81.81,0,0,0-.35.78l.39,2.75A.3.3,0,0,1,211.86,400.19Zm-5.46-2.82L209,397a1.41,1.41,0,0,1,1.37.64l1.29,2.06-.36-2.58a1.18,1.18,0,0,1,.49-1.12l2.37-1.6-2.69.34a1.12,1.12,0,0,1-1.05-.47l-1.64-2.3.4,2.93a.86.86,0,0,1-.39.86Z"/><path class="cls-7" d="M178.15,293.9h0a.77.77,0,0,1-.64-.76l-.11-6.62a2.71,2.71,0,0,0-1.6-2.41l-6.76-3a.73.73,0,0,1-.43-.82.75.75,0,0,1,.71-.6l8-.25a1.38,1.38,0,0,0,1.21-.82l3.19-7.4a.74.74,0,0,1,.82-.45h0a.73.73,0,0,1,.62.68l.57,7.69a2,2,0,0,0,1.17,1.68l6.31,2.87a.84.84,0,0,1,.49.94.85.85,0,0,1-.8.69l-7.29.37a2.09,2.09,0,0,0-1.8,1.25L179,293.44A.79.79,0,0,1,178.15,293.9ZM170,280.55l6.19,2.75a3.57,3.57,0,0,1,2.12,3.21l.1,6.18L181,286.6a3,3,0,0,1,2.57-1.78l7.28-.37-6.31-2.82a2.88,2.88,0,0,1-1.69-2.41l-.53-7.18-3,6.93a2.25,2.25,0,0,1-2,1.35Z"/><path class="cls-7" d="M285.48,264.35h0a.3.3,0,0,1-.05-.38l1.29-2.19a1.07,1.07,0,0,0,0-1.12l-1.63-2.34a.3.3,0,0,1,0-.36.27.27,0,0,1,.35,0l2.68,1.52a.52.52,0,0,0,.56,0l2.53-1.79a.29.29,0,0,1,.36,0h0a.29.29,0,0,1,.07.35l-1.36,2.64a.8.8,0,0,0,.05.79l1.5,2.2a.33.33,0,0,1-.43.48l-2.47-1.34a.78.78,0,0,0-.84.05l-2.22,1.58A.3.3,0,0,1,285.48,264.35Zm0-6,1.49,2.15A1.39,1.39,0,0,1,287,262L285.8,264l2.08-1.48a1.13,1.13,0,0,1,1.2-.07l2.47,1.34L290,261.6a1.12,1.12,0,0,1-.07-1.13l1.27-2.47-2.38,1.68a.85.85,0,0,1-.92,0Z"/><path class="cls-7" d="M330,234.9h0a.3.3,0,0,1-.06-.38l1.29-2.2a1,1,0,0,0,0-1.11l-1.62-2.34a.29.29,0,0,1,0-.36.29.29,0,0,1,.35-.06l2.68,1.52a.54.54,0,0,0,.56,0l2.53-1.8a.29.29,0,0,1,.36,0h0a.27.27,0,0,1,.06.34l-1.35,2.65a.76.76,0,0,0,.05.78l1.49,2.21a.33.33,0,0,1,0,.41.35.35,0,0,1-.41.07l-2.47-1.34a.78.78,0,0,0-.84,0l-2.21,1.57A.29.29,0,0,1,330,234.9Zm0-6,1.49,2.14a1.38,1.38,0,0,1,.05,1.49l-1.2,2.05,2.08-1.48a1.13,1.13,0,0,1,1.2-.07l2.47,1.34-1.51-2.19a1.11,1.11,0,0,1-.07-1.14l1.26-2.47-2.37,1.68a.87.87,0,0,1-.93.05Z"/><path class="cls-7" d="M352.67,327.21h0a.3.3,0,0,1-.05-.38l1.29-2.19a1.05,1.05,0,0,0,0-1.12l-1.62-2.34a.28.28,0,0,1,.37-.41l2.68,1.52a.52.52,0,0,0,.56,0l2.53-1.79a.29.29,0,0,1,.36,0h0a.29.29,0,0,1,.06.35l-1.35,2.64a.8.8,0,0,0,0,.79l1.5,2.21a.33.33,0,0,1-.43.47l-2.47-1.34a.82.82,0,0,0-.84,0l-2.21,1.58A.31.31,0,0,1,352.67,327.21Zm0-6,1.49,2.15a1.39,1.39,0,0,1,.05,1.48l-1.2,2.05,2.07-1.48a1.15,1.15,0,0,1,1.2-.07l2.47,1.34-1.51-2.19a1.12,1.12,0,0,1-.07-1.13l1.27-2.47-2.37,1.68a.87.87,0,0,1-.93,0Z"/><path class="cls-7" d="M313.53,336.31h0a.25.25,0,0,1,.06-.3l1.53-1.3a.83.83,0,0,0,.26-.84l-.6-2.16a.22.22,0,0,1,.38-.21l1.6,1.82a.43.43,0,0,0,.43.13l2.35-.68a.22.22,0,0,1,.26.11h0a.23.23,0,0,1,0,.28l-1.69,1.61a.62.62,0,0,0-.17.6l.54,2a.27.27,0,0,1-.12.3.26.26,0,0,1-.32-.05L316.51,336a.62.62,0,0,0-.64-.18l-2.06.6A.25.25,0,0,1,313.53,336.31Zm1.56-4.49.55,2a1.11,1.11,0,0,1-.35,1.12l-1.43,1.21,1.93-.56a.91.91,0,0,1,.92.26l1.49,1.63-.56-2a.88.88,0,0,1,.24-.86l1.58-1.51-2.2.64a.69.69,0,0,1-.7-.21Z"/><path class="cls-6" d="M460.83,206.38s0,0,0-.06a4.7,4.7,0,0,0-.15-.62,2.69,2.69,0,0,0-.17-.34,1.38,1.38,0,0,0-.21-.38L401.5,119.31v-10.7a22.28,22.28,0,0,0-22.25-22.26H222.91a18.86,18.86,0,0,0-18.83,18.83v14.23L151.2,205.12a3.24,3.24,0,0,0-.47,2v286a20.55,20.55,0,0,0,20.54,20.55H457.46a3.44,3.44,0,0,0,3.42-3.43V206.91A3.17,3.17,0,0,0,460.83,206.38Zm-62.6-79.73,48.87,71.23-70.83-35.63ZM443,203.49h-92.2l21.83-35.38Zm-232.1-98.31a12,12,0,0,1,12-12H379.25a15.42,15.42,0,0,1,15.4,15.41v8.33H210.93Zm-1.53,18.61H392l-49.16,79.7H160.24Zm-37.88,383c-.24,0-.48,0-.72,0a13.7,13.7,0,0,1-12.39-9,12.77,12.77,0,0,1-.68-2.62,13.1,13.1,0,0,1-.16-2.09V210.34H341.28V506.8Zm282.51,0H348.13V210.34H454Z"/><path class="cls-9" d="M341.28,490.55V506.8H171.52c-.24,0-.48,0-.72,0a14,14,0,0,1-12.39-9,14.19,14.19,0,0,1-.68-2.62,13.1,13.1,0,0,1-.16-2.09V435.37c13.51-1.36,24.17-22.14,38.71-16.47,16.77,6.52,5.22,35.18,22,41.7s28.35-22.1,45.12-15.56,5.19,35.17,22,41.7,28.36-22.1,45.15-15.56C338.42,474.26,340,482.27,341.28,490.55Z"/><circle class="cls-7" cx="181.51" cy="387.23" r="3.69"/><circle class="cls-7" cx="292.2" cy="370.88" r="3.69"/><circle class="cls-11" cx="284.54" cy="454.08" r="3.69"/><circle class="cls-11" cx="353.27" cy="480.95" r="3.69"/><circle class="cls-7" cx="198.96" cy="256.75" r="2.46"/><circle class="cls-7" cx="282.44" cy="337.46" r="2.1"/><circle class="cls-11" cx="278.38" cy="431.03" r="2.1"/><circle class="cls-11" cx="264.02" cy="405.79" r="2.1"/><circle class="cls-11" cx="330.85" cy="440.55" r="2.1"/><circle class="cls-11" cx="360.14" cy="467.01" r="2.1"/><circle class="cls-11" cx="216.01" cy="431.03" r="2.1"/><circle class="cls-11" cx="189.25" cy="407.89" r="2.1"/><circle class="cls-7" cx="175.22" cy="365.24" r="2.1"/><circle class="cls-7" cx="221.13" cy="290.28" r="2.1"/><circle class="cls-7" cx="251.52" cy="272.04" r="2.1"/><circle class="cls-7" cx="328.31" cy="367.4" r="2.16"/><circle class="cls-7" cx="387.19" cy="362.13" r="3.05"/><circle class="cls-7" cx="434.86" cy="315.51" r="3.05"/><circle class="cls-7" cx="360.14" cy="331.42" r="2.1"/><circle class="cls-7" cx="429.71" cy="290.28" r="2.1"/><circle class="cls-7" cx="396.38" cy="349.43" r="1.84"/><circle class="cls-7" cx="409.33" cy="264.46" r="1.33"/><circle class="cls-11" cx="295.89" cy="404.45" r="1.33"/><circle class="cls-11" cx="313.86" cy="377.83" r="1.33"/><circle class="cls-11" cx="223.23" cy="340.07" r="1.33"/><circle class="cls-11" cx="270.82" cy="353.51" r="1.33"/><circle class="cls-11" cx="252.45" cy="340.07" r="1.33"/><circle class="cls-11" cx="269.48" cy="396.52" r="1.33"/><circle class="cls-11" cx="266.11" cy="389.34" r="1.33"/><circle class="cls-11" cx="193.03" cy="396.52" r="1.33"/><circle class="cls-11" cx="316.67" cy="457.77" r="1.33"/><circle class="cls-11" cx="366.53" cy="442.65" r="1.33"/><circle class="cls-11" cx="356.96" cy="460.44" r="1.33"/><circle class="cls-11" cx="221.13" cy="415.82" r="1.33"/><circle class="cls-11" cx="225.56" cy="421.94" r="1.33"/><path class="cls-5" d="M269.4,132.11,255.3,120h0c7.14,6.16,4.36,21.09-6.21,33.36S224.15,170.54,217,164.38h0l14.1,12.15c7.14,6.16,21.5,1.21,32.08-11.06S276.54,138.27,269.4,132.11Z"/><path class="cls-5" d="M255.3,120h0c-7.15-6.15-21.51-1.2-32.08,11.07s-13.35,27.2-6.21,33.35,21.5,1.2,32.08-11.06S262.44,126.12,255.3,120Z"/><path class="cls-5" d="M269.4,132.11,255.3,120h0c7.14,6.16,4.36,21.09-6.21,33.36S224.15,170.54,217,164.38h0l14.1,12.15c7.14,6.16,21.5,1.21,32.08-11.06S276.54,138.27,269.4,132.11Z"/><path class="cls-6" d="M285.61,131.05c-4.5-3.87-10.73-4.9-17.53-3.46L257,118a14.25,14.25,0,0,0-9.51-3.28c-8.15,0-18.11,5.27-26.19,14.61-11.66,13.54-14.28,29.79-5.94,37h0l11.1,9.57c-.41,6.95,1.52,13,6,16.82a17.75,17.75,0,0,0,11.92,4.11c10.33,0,23.09-6.78,33.43-18.76C292.72,160.78,296.14,140.12,285.61,131.05Zm-24.39,4.47c.22-1.06.39-2.11.5-3.14,0-.3,0-.59.06-.9s0-.64,0-1,0-.55,0-.82v-.24c0-.16,0-.33,0-.48l.44.37,4.57,3.94.89.77c2,1.75,3.07,4.54,3.07,8.05v.25L261,136.3c.07-.25.14-.53.21-.78ZM260,139.73l10.34,6.42a33.48,33.48,0,0,1-3.41,9.33l-10.51-8A42.73,42.73,0,0,0,260,139.73Zm-11.57,18c.87-.87,1.73-1.79,2.56-2.75a52.17,52.17,0,0,0,3.58-4.66l10.6,8.11a44.88,44.88,0,0,1-8,9.45Zm6.13,12.34a36.53,36.53,0,0,1-7.9,4.73l-7.85-9.54A44.3,44.3,0,0,0,246,160.1Zm-29.72-5.64h-.24c-.33,0-.65,0-1-.07a5.42,5.42,0,0,1-.58-.06l-.77-.14c-.24-.05-.46-.12-.69-.19a3.63,3.63,0,0,1-.61-.2c-.28-.11-.53-.23-.79-.36l-.44-.21a9.81,9.81,0,0,1-1.12-.79c-2.09-1.79-3.08-4.64-3.08-8,0-6.3,3.42-14.55,9.57-21.69,6.92-8,15.73-12.84,22.3-12.84a9.15,9.15,0,0,1,6.15,2,8.62,8.62,0,0,1,.94,1c.1.14.19.28.29.41a6.76,6.76,0,0,1,.46.72c.11.19.19.38.3.57s.2.44.29.68.17.47.24.72.1.4.15.6.15.58.21.91c0,.1,0,.22,0,.32a17.35,17.35,0,0,1,0,4.27v0c-.06.55-.15,1.1-.25,1.64,0,.07,0,.12,0,.19-.1.55-.22,1.1-.37,1.65,0,.06,0,.15-.06.22q-.22.84-.51,1.71l-.05.15c-.19.6-.41,1.2-.67,1.82v0c-.41,1-.85,2-1.37,3v0c-.51,1-1.08,2-1.69,3l-.12.19c-.52.86-1.1,1.69-1.7,2.53-.15.23-.3.45-.46.65-.67.91-1.37,1.82-2.14,2.69s-1.54,1.71-2.33,2.5l-.56.57c-.75.71-1.52,1.42-2.29,2.07l-.14.12a42,42,0,0,1-5.56,3.93c-.6.35-1.19.65-1.79,1a0,0,0,0,1,0,0c-.58.29-1.15.56-1.71.8a.26.26,0,0,1-.1,0c-.57.24-1.12.46-1.66.65l-.09,0c-.55.19-1.11.36-1.66.52A17.4,17.4,0,0,1,224.88,164.45Zm2.45,5.44-.43-.38a4.85,4.85,0,0,0,.53-.08A25.53,25.53,0,0,0,233.3,168c.81-.29,1.63-.65,2.47-1l7.48,9.07c-4.21,1.1-8,.74-10.46-1.4l-.86-.76Zm46.59,4.83c-12.6,14.6-30,21.07-38.1,14.12a13,13,0,0,1-4.11-8.8,15,15,0,0,0,7.24,1.73c8.15,0,18.13-5.27,26.19-14.62,5.39-6.28,9.07-13.44,10.32-20.18,1.11-6,.19-11.16-2.55-14.79.31,0,.62,0,.91,0a12.64,12.64,0,0,1,8.44,2.81C290.32,141.9,286.5,160.11,273.92,174.72Z"/><path class="cls-6" d="M285.61,131.05c-4.5-3.87-10.73-4.9-17.53-3.46l-3.81-3.29L257,118a14.25,14.25,0,0,0-9.51-3.28c-6.15,0-13.32,3-19.93,8.47a50.19,50.19,0,0,0-6.26,6.14c-11.66,13.54-14.28,29.79-5.94,37h0l11.1,9.57c-.41,6.95,1.52,13,6,16.82a17.75,17.75,0,0,0,11.92,4.11c10.33,0,23.09-6.78,33.43-18.76C292.72,160.78,296.14,140.12,285.61,131.05Zm-23.89,1.33c0-.3,0-.59.06-.9s0-.64,0-1,0-.55,0-.82v-.24c0-.16,0-.33,0-.48l.44.37.62.54,3.95,3.4.89.77c2,1.75,3.07,4.54,3.07,8.05v.25L261,136.3c.07-.25.14-.53.21-.78h0c.17-.84.32-1.66.41-2.47C261.66,132.83,261.7,132.61,261.72,132.38Zm-43.26,10.69a43.81,43.81,0,0,1,6.71-10.36c6.92-8,15.73-12.84,22.3-12.84a9.15,9.15,0,0,1,6.15,2,8.62,8.62,0,0,1,.94,1c.1.14.19.28.29.41a6.76,6.76,0,0,1,.46.72c.11.19.19.38.3.57s.2.44.29.68.17.47.24.72.1.4.15.6.15.58.21.91c0,.1,0,.22,0,.32a17.35,17.35,0,0,1,0,4.27v0c-.06.55-.15,1.1-.25,1.64,0,.07,0,.12,0,.19-.1.55-.22,1.1-.37,1.65,0,.06,0,.15-.06.22q-.22.84-.51,1.71l-.05.15c-.19.6-.41,1.2-.67,1.82v0c-.41,1-.85,2-1.37,3v0c-.51,1-1.08,2-1.69,3l-.12.19c-.52.86-1.1,1.69-1.7,2.53-.15.23-.3.45-.46.65-.32.45-.67.89-1,1.34l0,0c-.35.46-.71.9-1.11,1.33-.75.87-1.54,1.71-2.33,2.5l-.56.57c-.75.71-1.52,1.42-2.29,2.07l-.14.12a42,42,0,0,1-5.56,3.93c-.6.35-1.19.65-1.79,1a0,0,0,0,1,0,0c-.58.29-1.15.56-1.71.8a.26.26,0,0,1-.1,0c-.57.24-1.12.46-1.66.65l-.09,0c-.55.19-1.11.36-1.66.52a17.13,17.13,0,0,1-3.05.53,11,11,0,0,1-1.28.07h-.24c-.33,0-.65,0-1-.07a5.42,5.42,0,0,1-.58-.06l-.77-.14c-.24-.05-.46-.12-.69-.19a3.63,3.63,0,0,1-.61-.2c-.28-.11-.53-.23-.79-.36l-.44-.21a9.81,9.81,0,0,1-1.12-.79c-2.09-1.79-3.08-4.64-3.08-8A27.54,27.54,0,0,1,218.46,143.07Zm9,26.36A25.53,25.53,0,0,0,233.3,168c.81-.29,1.63-.65,2.47-1l7.48,9.07c-4.21,1.1-8,.74-10.46-1.4l-.86-.76-4.6-4-.43-.38A4.85,4.85,0,0,0,227.43,169.43Zm11.42-4.15A44.3,44.3,0,0,0,246,160.1l8.63,10a36.53,36.53,0,0,1-7.9,4.73Zm22.52-1.66a1,1,0,0,1-.13.18,47.41,47.41,0,0,1-4,4.1l-8.74-10.15c.87-.87,1.73-1.79,2.56-2.75.3-.35.59-.67.84-1,1-1.2,1.9-2.42,2.74-3.65l10.6,8.11A44.87,44.87,0,0,1,261.37,163.62Zm-4.91-16.19a42.73,42.73,0,0,0,3.58-7.7l10.34,6.42a33.48,33.48,0,0,1-3.41,9.33Zm17.46,27.29c-12.6,14.6-30,21.07-38.1,14.12a13,13,0,0,1-4.11-8.8,15,15,0,0,0,7.24,1.73c8.15,0,18.13-5.27,26.19-14.62,5.39-6.28,9.07-13.44,10.32-20.18,1.11-6,.19-11.16-2.55-14.79.31,0,.62,0,.91,0a12.64,12.64,0,0,1,8.44,2.81C290.32,141.9,286.5,160.11,273.92,174.72Z"/><path class="cls-5" d="M273.92,174.72c-12.6,14.6-30,21.07-38.1,14.12a13,13,0,0,1-4.11-8.8,15,15,0,0,0,7.24,1.73c8.15,0,18.13-5.27,26.19-14.62,5.39-6.28,9.07-13.44,10.32-20.18,1.11-6,.19-11.16-2.55-14.79.31,0,.62,0,.91,0a12.64,12.64,0,0,1,8.44,2.81C290.32,141.9,286.5,160.11,273.92,174.72Z"/><path class="cls-12" d="M248.24,150.31c-.35.46-.71.9-1.11,1.33-.75.87-1.54,1.71-2.33,2.5l-.56.57c-.75.71-1.52,1.42-2.29,2.07l-.14.12a42,42,0,0,1-5.56,3.93c-.6.35-1.19.65-1.79,1a0,0,0,0,1,0,0c-.58.29-1.15.56-1.71.8a.26.26,0,0,1-.1,0c-.57.24-1.12.46-1.66.65l-.09,0c-.55.19-1.11.36-1.66.52a17.13,17.13,0,0,1-3.05.53,11,11,0,0,1-1.28.07h-.24c-.33,0-.65,0-1-.07a5.42,5.42,0,0,1-.58-.06l-.77-.14c-.24-.05-.46-.12-.69-.19a3.63,3.63,0,0,1-.61-.2c-.28-.11-.53-.23-.79-.36l-.44-.21a9.81,9.81,0,0,1-1.12-.79c-2.09-1.79-3.08-4.64-3.08-8a27.54,27.54,0,0,1,2.86-11.33c-.55,5.17.67,9.6,3.82,12.32,3.61,3.12,9.07,3.39,15,1.32A37.33,37.33,0,0,0,248.24,150.31Z"/><path class="cls-12" d="M273.29,175.42c-12.53,14.1-29.55,20.25-37.47,13.42a13,13,0,0,1-4.11-8.8,15,15,0,0,0,7.24,1.73c8.13,0,18.08-5.24,26.14-14.55Z"/><path class="cls-12" d="M261.37,163.62a1,1,0,0,1-.13.18,47.41,47.41,0,0,1-4,4.1l-8.74-10.15c.87-.87,1.73-1.79,2.56-2.75.3-.35.59-.67.84-1Z"/><path class="cls-12" d="M254.6,170.09a36.53,36.53,0,0,1-7.9,4.73l-7.85-9.54A44.3,44.3,0,0,0,246,160.1Z"/><path class="cls-12" d="M243.25,176c-4.21,1.1-8,.74-10.46-1.4l-.86-.76-4.6-4-.43-.38a4.85,4.85,0,0,0,.53-.08A25.53,25.53,0,0,0,233.3,168c.81-.29,1.63-.65,2.47-1Z"/><path class="cls-13" d="M359.69,497.49c2.39-.05,2.42,1.49,4.81,1.44s2.37-1.57,4.76-1.62,2.42,1.49,4.81,1.44,2.37-1.57,4.76-1.62,2.42,1.49,4.81,1.45S386,497,388.4,497s2.42,1.48,4.81,1.44,2.36-1.58,4.75-1.62,2.43,1.48,4.82,1.44,2.36-1.58,4.76-1.62,2.42,1.49,4.81,1.44,2.37-1.57,4.76-1.62,2.42,1.49,4.81,1.44,2.37-1.57,4.77-1.62,2.42,1.49,4.82,1.45,2.37-1.58,4.76-1.63"/><path class="cls-13" d="M359.77,487.73c2.4-.05,2.42,1.48,4.82,1.44s2.36-1.58,4.75-1.62,2.43,1.48,4.82,1.44,2.36-1.58,4.76-1.62,2.41,1.49,4.81,1.44,2.36-1.57,4.75-1.62,2.42,1.49,4.81,1.44,2.37-1.57,4.76-1.62,2.42,1.49,4.81,1.45,2.37-1.58,4.76-1.62,2.43,1.48,4.82,1.44,2.36-1.58,4.76-1.62,2.42,1.48,4.81,1.44,2.37-1.58,4.76-1.62,2.43,1.49,4.82,1.44,2.37-1.57,4.77-1.62"/><path class="cls-13" d="M359.86,478c2.39,0,2.42,1.49,4.81,1.45s2.37-1.58,4.76-1.63,2.42,1.49,4.81,1.45,2.37-1.58,4.76-1.62,2.42,1.48,4.81,1.44,2.37-1.58,4.76-1.62,2.42,1.49,4.81,1.44,2.36-1.57,4.76-1.62,2.42,1.49,4.81,1.44,2.37-1.57,4.76-1.62,2.42,1.49,4.81,1.44,2.37-1.57,4.76-1.62,2.42,1.49,4.82,1.45,2.36-1.58,4.76-1.62,2.42,1.48,4.82,1.44,2.37-1.58,4.77-1.62"/></g></g></svg>