<svg xmlns="http://www.w3.org/2000/svg" viewBox="0 0 208.23 208.23"><defs><style>.cls-1{fill:#88d2b9;}</style></defs><g id="Layer_2" data-name="Layer 2"><g id="Layer_1-2" data-name="Layer 1"><path class="cls-1" d="M90.35,145.52a8.61,8.61,0,0,1-5.84-2.29L60.23,120.74a8.59,8.59,0,0,1,11.68-12.6l18,16.62,46-50.07a8.59,8.59,0,1,1,12.66,11.62L96.68,142.74a8.6,8.6,0,0,1-6,2.77Z"/><path class="cls-1" d="M104.12,0A104.12,104.12,0,1,0,208.23,104.12,104.11,104.11,0,0,0,104.12,0Zm0,191.12a87,87,0,1,1,87-87A87,87,0,0,1,104.12,191.12Z"/></g></g></svg>