<svg xmlns="http://www.w3.org/2000/svg" viewBox="0 0 626.18 600"><defs><style>.cls-1{isolation:isolate;}.cls-2{fill:none;}.cls-3,.cls-6,.cls-7,.cls-8{fill:#f6ba9e;}.cls-4{fill:#f2a686;}.cls-5{fill:#ed8f6c;}.cls-6{mix-blend-mode:multiply;}.cls-7{opacity:0.7;}.cls-7,.cls-8{mix-blend-mode:screen;}</style></defs><g class="cls-1"><g id="Layer_2" data-name="Layer 2"><g id="Layer_1-2" data-name="Layer 1"><rect class="cls-2" width="626.18" height="600"/><path class="cls-3" d="M374.4,332.72H272.31c-.05.56-.12,1.09-.17,1.65-1.45,16.81-6.83,83-16.44,165.82,22.41,12,49.76,15.16,72.06,14.64,16.75-.38,36.38-2.69,54.43-9.3-3.3-57.28-5.94-114.13-7.35-166.43C374.84,339.1,374.73,336.71,374.4,332.72Z"/><path class="cls-4" d="M270.13,433.42C285.67,396.05,311,401,320.62,402.9s15.66,6.22,20.53,17.2c4.43,10,6,19.34,6.85,29.89,1.21,14.58,2.24,29.19,3.61,43.77.58,6.22,1.59,12.62,1.8,18.9a147.14,147.14,0,0,0,28.78-7.13c-3.3-57.28-5.94-114.13-7.35-166.43,0,0-.11-2.39-.44-6.38H272.31c-.05.56-.12,1.09-.17,1.65-1.45,16.81-6.83,83-16.44,165.82h0C259.92,476.83,260.94,455.51,270.13,433.42Z"/><path class="cls-3" d="M396.35,364.89c3.92-13.68,8.82-31.71,9.44-46.05.81-19.08,12.06-178,10.53-206.95-1.11-21.08-34.95-28.3-39.39,4.44-4.2,31-10.85,94.09-18.31,123.72-.3-12.12-3.27-86.24-3.88-98.2-.61-12.35,0-59.64-27.19-56.59-13.75,1.55-16.78,24.69-15.12,63,1.31,30.4,2.83,71.57,2.92,91.27-7.58-34.25-14.45-72.08-17.76-89.33-2.36-12.33-4.14-22.9-7.21-30.51-13.88-34.4-46.67-14.41-37.73,22.74,10.73,44.63,16.23,70.33,24.13,110.28-15-37-25.38-82.69-41.89-103.62-6.82-8.62-35.73-7.06-21.08,46.61,3.33,12.21,16.17,51,20,79.9,2.79,21.09,9.09,61.12,14.15,77.39C268.18,418.16,357.91,412.29,396.35,364.89Z"/><path class="cls-4" d="M410.75,194.62c-2.3,9.58-4.15,19.64-7.68,28.86-2.33,6.14-4.65,12.05-10.84,15-11.83,5.66-22.7-9.41-25-19.1A69.69,69.69,0,0,1,365.7,202c-2.23,14.78-4.61,28.26-7.08,38.07-.08-3-.31-9.78-.64-18.46-2.53,7.37-6.81,13.21-14.22,14.64-16.24,3.14-24.7-10.15-29-24.22.3,10.89.51,20.54.55,27.49-2.22-10-4.36-20.28-6.38-30.28-.46,9.7-1.56,21.23-8.9,28.12-10.5,9.84-22.92-2.86-28.91-12.56,1.81,8.75,3.64,17.87,5.62,27.9-4.68-11.58-8.91-24-13-36.23,2.66,14.5,3.46,32.12-9,36.63-14.48,5.24-24.65-9.47-30.13-20.67-.16-.34-.31-.69-.47-1,3.92,14.35,7.8,30.39,9.61,44.2,2.79,21.09,9.09,61.12,14.15,77.39,20.25,65.2,110,59.33,148.42,11.93,3.92-13.68,8.82-31.71,9.44-46.05.52-12.4,5.46-83.91,8.44-140.39Q412.67,186.58,410.75,194.62Z"/><path class="cls-5" d="M254.67,260.24s69.92-26.18,131.7-9.64C386.37,250.6,320.63,239.88,254.67,260.24Z"/><path class="cls-3" d="M347.1,299.86C344.84,306.19,302,344.18,297,363c-4,15-1.29,32,14.93,37.51,13.73,4.64,42.12,3,55.62-1.81,31.55-11.25,49-49.64,48.31-83-.71-35.4-25.81-64.8-62.9-68.51-18.17-1.81-72.22-7.1-68.36,15.84,2.19,13,19.33,17.53,29.94,20.77,9.24,2.83,20.2,2.81,28.64,8C347.24,294.42,348.07,297.14,347.1,299.86Z"/><path class="cls-6" d="M297,363c-2.14,7.95-2.34,16.45.31,23.51-1.13-24,29.18-50.93,42.19-66.41,6.29-7.48,17.91-20.89,7.46-29.59-8.38-7-18.5-9.05-28.94-11-11.88-2.2-25-4.69-32.52-13.37,4.19,10.64,19.33,14.69,29,17.66,9.24,2.83,20.2,2.81,28.64,8,4.11,2.54,4.94,5.26,4,8C344.84,306.19,302,344.18,297,363Z"/><path class="cls-6" d="M304.45,248.89c15.71-1.48,32.59-1.06,48.12,2.08,24.6,5,49.08,17.8,58.82,42.33a74,74,0,0,1,2.95,9.13c-5.9-29.21-29.11-52-61.43-55.19-14.27-1.43-50.6-5-63.72,4.66A66.58,66.58,0,0,1,304.45,248.89Z"/><path class="cls-7" d="M239.47,285s4.31,86,36.62,98.62C276.09,383.63,253.2,364.89,239.47,285Z"/><path class="cls-8" d="M222.41,148.92s-13.32,3.33-8.74,28.72,16.23,60.75,16.23,60.75S205.76,166.82,222.41,148.92Z"/><path class="cls-8" d="M271.1,105.23s-17.32,3.29-14.87,29S268.18,196,268.18,196,253,121.68,271.1,105.23Z"/><path class="cls-8" d="M314.61,153.48c1.09-23.29,5.44-62,22.23-64.89,0,0-16-6.06-19.69,19.48-2.07,14.48-2.72,32.74-2.89,45.84Z"/><path class="cls-8" d="M377.85,162.63c1.1-23.29,5.45-62,22.24-64.89,0,0-16-6-19.68,19.48-2.08,14.48-2.73,32.75-2.9,45.84C377.63,162.92,377.74,162.77,377.85,162.63Z"/><path class="cls-8" d="M288.16,260.59s2.63-10.82,28-10,71.84,5.68,89.33,35.22c0,0-27.05-25.38-69.49-30.37S288.16,260.59,288.16,260.59Z"/></g></g></g></svg>