<svg xmlns="http://www.w3.org/2000/svg" viewBox="0 0 626.18 600"><defs><style>.cls-1{fill:none;}.cls-2{fill:#d8dc52;}.cls-11,.cls-12,.cls-14,.cls-15,.cls-16,.cls-17,.cls-18,.cls-19,.cls-2,.cls-3,.cls-4,.cls-6,.cls-7,.cls-8,.cls-9{fill-rule:evenodd;}.cls-3{fill:#ffda88;}.cls-4{fill:#ebe98c;}.cls-5,.cls-6{fill:#c2d100;}.cls-13,.cls-7{fill:#889827;}.cls-8{fill:#99ab22;}.cls-9{fill:#ffe4ac;}.cls-10{fill:#adbd14;}.cls-11{fill:#849628;}.cls-12{fill:#647127;}.cls-14{fill:#9f682a;}.cls-15{fill:#b77b3b;}.cls-16{fill:#6a4117;}.cls-17{fill:#8d571f;}.cls-18{fill:#744514;}.cls-19{fill:#d2a643;}</style></defs><g id="Layer_2" data-name="Layer 2"><g id="Layer_1-2" data-name="Layer 1"><rect class="cls-1" width="626.18" height="600"/><path class="cls-2" d="M363.62,171.81a80.5,80.5,0,1,1-101.05,0Z"/><path class="cls-3" d="M393.58,234.47a80.49,80.49,0,1,1-152.83-35.34H385.43A80.12,80.12,0,0,1,393.58,234.47Z"/><path class="cls-4" d="M304,313.8c-25.17-6.48-44.34-39.53-44.34-79.33,0-25.32,7.76-47.9,19.88-62.66H299c-3.06,16.24-4.93,37.79-4.93,61.44C294,268.06,298.09,298.33,304,313.8Z"/><rect class="cls-5" x="218.35" y="199.13" width="189.49" height="22.07"/><polygon class="cls-6" points="215.39 230.17 410.8 230.17 381.46 518.42 244.72 518.42 215.39 230.17"/><path class="cls-2" d="M215.39,230.17h51.3C348.45,263,385.1,355.58,349.86,464.66A332.37,332.37,0,0,1,327,518.42H244.72Z"/><polygon class="cls-4" points="245.44 230.17 265.81 518.42 301.65 518.42 301.65 230.17 245.44 230.17"/><polygon class="cls-7" points="398.31 352.86 381.46 518.42 244.72 518.42 227.87 352.86 398.31 352.86"/><path class="cls-8" d="M327,518.42H244.72L227.87,352.86h133c5.22,33.57,2,71.56-11,111.8A332.37,332.37,0,0,1,327,518.42Z"/><polygon class="cls-2" points="301.65 518.42 265.81 518.42 254.11 352.86 301.65 352.86 301.65 518.42"/><path class="cls-9" d="M301.65,249.8V230.17h-35A152.49,152.49,0,0,1,301.65,249.8Z"/><rect class="cls-10" x="208.54" y="216.96" width="209.11" height="17.84"/><path class="cls-11" d="M264.86,505.09l-.24-3.52a5.07,5.07,0,0,1,.45,2.1,4.78,4.78,0,0,1-.21,1.42Zm-4.57-64.8-1-14.18h.05a7.12,7.12,0,0,1,1,14.18Zm41.36-12v9.4a5.13,5.13,0,0,1,0-9.4Zm-26.81,19.19a3.91,3.91,0,1,1-3.91,3.91,3.91,3.91,0,0,1,3.91-3.91Zm5.24,42.59a6.69,6.69,0,1,1-6.69,6.69,6.69,6.69,0,0,1,6.69-6.69Zm12.7-28.32a2.68,2.68,0,1,1-2.67,2.68,2.68,2.68,0,0,1,2.67-2.68ZM269,408.05a3.46,3.46,0,1,1-3.46,3.45,3.45,3.45,0,0,1,3.46-3.45Zm8.69,25.19a4.8,4.8,0,1,1-4.79,4.8,4.8,4.8,0,0,1,4.79-4.8Zm-.89,33.23a3.9,3.9,0,1,1-3.9,3.9,3.89,3.89,0,0,1,3.9-3.9Zm-10.25-79.6a4.35,4.35,0,1,1-4.35,4.34,4.34,4.34,0,0,1,4.35-4.34ZM289.33,406a6.14,6.14,0,1,1-6.13,6.13,6.13,6.13,0,0,1,6.13-6.13Zm2.23-41.69a3.9,3.9,0,1,1-3.9,3.9,3.9,3.9,0,0,1,3.9-3.9Zm-6,17.83a4.58,4.58,0,1,1-4.57,4.57,4.58,4.58,0,0,1,4.57-4.57Zm-18.17-14.71a4.91,4.91,0,1,1-4.91,4.9A4.9,4.9,0,0,1,267.37,367.47Z"/><path class="cls-12" d="M243.84,359.66a5.47,5.47,0,1,1-5.46,5.47,5.47,5.47,0,0,1,5.46-5.47ZM347.41,464.91a7.36,7.36,0,1,1-7.36,7.35,7.35,7.35,0,0,1,7.36-7.35Zm16.84-.23a4.57,4.57,0,1,1-4.57,4.57,4.58,4.58,0,0,1,4.57-4.57Zm1.56,29.66a3.68,3.68,0,1,1-3.68,3.68,3.68,3.68,0,0,1,3.68-3.68Zm-26.54-2.9a7.25,7.25,0,1,1-7.24,7.24,7.24,7.24,0,0,1,7.24-7.24Zm-14.49-13.83a3.46,3.46,0,1,1-3.45,3.46,3.46,3.46,0,0,1,3.45-3.46Zm-8.25,23.86a4.8,4.8,0,1,1-4.79,4.8,4.79,4.79,0,0,1,4.79-4.8Zm-9.3-24.3a5.58,5.58,0,1,1-5.58,5.57,5.58,5.58,0,0,1,5.58-5.57ZM312,450.86a4.68,4.68,0,1,1-4.68,4.68,4.67,4.67,0,0,1,4.68-4.68Zm-52,47.71a5.1,5.1,0,0,1,4.65,3l.24,3.52a5.09,5.09,0,1,1-4.89-6.52Zm-2.53-17.39a3.46,3.46,0,1,1-3.45,3.46,3.46,3.46,0,0,1,3.45-3.46Zm-.66-27.42a4.57,4.57,0,1,1-4.58,4.57,4.57,4.57,0,0,1,4.58-4.57Zm3.51-13.47a6.2,6.2,0,0,1-1,.07,7.13,7.13,0,0,1-.05-14.25l1,14.18ZM250,399.35a7.81,7.81,0,1,1-7.8,7.81,7.81,7.81,0,0,1,7.8-7.81Zm126,31.22a3.12,3.12,0,1,1-3.12,3.12,3.12,3.12,0,0,1,3.12-3.12Zm7-23.19a4.13,4.13,0,1,1-4.13,4.12,4.13,4.13,0,0,1,4.13-4.12Zm-8.92,39.69a5.46,5.46,0,1,1-5.47,5.46,5.46,5.46,0,0,1,5.47-5.46Zm-23.92-11.82a5.41,5.41,0,1,1-5.4,5.41,5.41,5.41,0,0,1,5.4-5.41Zm-20.57,8.92a5.58,5.58,0,1,1-5.57,5.57,5.57,5.57,0,0,1,5.57-5.57Zm-25.86-16.28a5.13,5.13,0,1,1,0,10.26,5.07,5.07,0,0,1-2.06-.43v-9.4a5.24,5.24,0,0,1,2.06-.43Zm5.57-41a4.68,4.68,0,1,1-4.68,4.68,4.68,4.68,0,0,1,4.68-4.68Zm8.37,18.28a4.57,4.57,0,1,1-4.58,4.57,4.58,4.58,0,0,1,4.58-4.57Zm14.49,12.48a5,5,0,1,1-5,5,5,5,0,0,1,5-5Zm34,1.57a3.57,3.57,0,1,1-3.57,3.56,3.56,3.56,0,0,1,3.57-3.56Zm-19.62-18.73a4.68,4.68,0,1,1-4.68,4.68,4.67,4.67,0,0,1,4.68-4.68Zm40.36-38.8a3.35,3.35,0,1,1-3.35,3.34,3.35,3.35,0,0,1,3.35-3.34Zm-7.14,24.53a7.36,7.36,0,1,1-7.35,7.36,7.35,7.35,0,0,1,7.35-7.36Zm-11.93-22.08a4.35,4.35,0,1,1-4.34,4.35,4.35,4.35,0,0,1,4.34-4.35ZM352,373.49a3.23,3.23,0,1,1-3.23,3.23,3.23,3.23,0,0,1,3.23-3.23Zm-12.37-13.16a3.79,3.79,0,1,1-3.79,3.79,3.79,3.79,0,0,1,3.79-3.79Zm-11.26,23.86a4.57,4.57,0,1,1-4.57,4.57,4.58,4.58,0,0,1,4.57-4.57ZM315.08,366.8a5.13,5.13,0,1,1-5.13,5.13,5.13,5.13,0,0,1,5.13-5.13Zm-64.32,12.71a4.35,4.35,0,1,1-4.35,4.35A4.34,4.34,0,0,1,250.76,379.51Z"/><path id="korvonal" class="cls-13" d="M417.65,214.93h-7.78v-15.8a2,2,0,0,0-2-2H386.66a83,83,0,0,0-21.77-26.85,2,2,0,0,0-1.27-.45H262.56a2,2,0,0,0-1.27.45,83.28,83.28,0,0,0-21.77,26.85H218.35a2,2,0,0,0-2,2v15.8h-7.77a2,2,0,0,0-2,2V234.8a2,2,0,0,0,2,2h5l29.14,281.79a2,2,0,0,0,2,1.82H381.46a2,2,0,0,0,2-1.82l29.14-281.79h5a2,2,0,0,0,2-2V217A2,2,0,0,0,417.65,214.93ZM263.29,173.86h99.6a79.13,79.13,0,0,1,19.2,23.23h-138A79.2,79.2,0,0,1,263.29,173.86Zm-42.91,27.3H405.8v13.77H220.38ZM379.63,516.38H246.55L217.64,236.84h190.9Zm36-283.61h-205V219h205Z"/><polygon class="cls-14" points="341.58 171.81 287.58 502.88 275.98 500.8 329.64 171.81 341.58 171.81"/><polygon class="cls-15" points="301.65 416.61 287.58 502.88 275.98 500.8 300.11 352.86 301.65 352.86 301.65 416.61"/><polygon class="cls-16" points="329.64 171.81 341.58 171.81 373.2 81.62 361.6 79.55 329.64 171.81"/><polygon class="cls-17" points="337.12 199.13 333.52 221.2 321.59 221.2 325.19 199.13 337.12 199.13"/><polygon class="cls-18" points="334.22 216.96 331.31 234.8 319.37 234.8 322.28 216.96 334.22 216.96"/><path class="cls-19" d="M315.06,261.25a144.7,144.7,0,0,1,10.16,10.85l-13.17,80.76H300.11Z"/></g></g></svg>