<svg xmlns="http://www.w3.org/2000/svg" viewBox="0 0 335.12 53.76"><defs><style>.cls-1{fill:#fff;}</style></defs><g id="Layer_2" data-name="Layer 2"><g id="Layer_1-2" data-name="Layer 1"><path class="cls-1" d="M32.63,38.6a4,4,0,0,1-4-4V20.31a10.4,10.4,0,0,0-20.79,0V34.65a3.95,3.95,0,1,1-7.89,0V20.31a18.29,18.29,0,0,1,36.57,0V34.65A4,4,0,0,1,32.63,38.6Z"/><path class="cls-1" d="M32.63,52.94A18.3,18.3,0,0,1,14.34,34.65V20.31a3.95,3.95,0,0,1,7.89,0V34.65a10.4,10.4,0,1,0,20.79,0V20.31a3.95,3.95,0,0,1,7.89,0V34.65A18.3,18.3,0,0,1,32.63,52.94Z"/><path class="cls-1" d="M72.75,11.05a4.06,4.06,0,0,1-2.9-1.12,4,4,0,0,1-1.19-3,4,4,0,0,1,1.19-3,4.31,4.31,0,0,1,5.8,0,4,4,0,0,1,1.19,3,4,4,0,0,1-1.19,3A4.09,4.09,0,0,1,72.75,11.05ZM76,52.94H69.61V17.46H76Z"/><path class="cls-1" d="M86.87,18.49c1.45-.37,3.39-.75,5.8-1.16a50,50,0,0,1,8.32-.62,17.93,17.93,0,0,1,7,1.2,11,11,0,0,1,4.47,3.34,13,13,0,0,1,2.35,5.15,30.2,30.2,0,0,1,.68,6.62V52.94h-6.34V34.38a29.86,29.86,0,0,0-.45-5.59A9.34,9.34,0,0,0,107.27,25,5.74,5.74,0,0,0,104.54,23a11.83,11.83,0,0,0-4.23-.65c-.68,0-1.39,0-2.12.07s-1.42.1-2.08.17-1.25.14-1.77.24l-1.13.2v30H86.87Z"/><path class="cls-1" d="M132,17.46H145.4v5.33H132V39.16a19.87,19.87,0,0,0,.41,4.4,6.65,6.65,0,0,0,1.23,2.73,4.49,4.49,0,0,0,2.05,1.4,9.13,9.13,0,0,0,2.86.41,13.56,13.56,0,0,0,4.61-.65c1.16-.43,2-.74,2.42-.92l1.23,5.25A22.49,22.49,0,0,1,143.42,53a18.89,18.89,0,0,1-5.45.72,16.6,16.6,0,0,1-6-.92A8.83,8.83,0,0,1,128.21,50a11,11,0,0,1-2-4.54,29.71,29.71,0,0,1-.58-6.24V7.57L132,6.48Z"/><path class="cls-1" d="M181.69,51.92q-2.17.54-5.76,1.16a50.61,50.61,0,0,1-8.29.61,17.69,17.69,0,0,1-6.89-1.19,11.26,11.26,0,0,1-4.5-3.38A13.69,13.69,0,0,1,153.79,44a26.88,26.88,0,0,1-.75-6.59V17.46h6.35V36q0,6.48,2,9.28c1.37,1.86,3.66,2.8,6.89,2.8.69,0,1.39,0,2.12-.07s1.41-.11,2.05-.17l1.74-.21a5.28,5.28,0,0,0,1.12-.24V17.46h6.34Z"/><path class="cls-1" d="M195.75,11.05a4.06,4.06,0,0,1-2.9-1.12,4,4,0,0,1-1.2-3,4,4,0,0,1,1.2-3,4.31,4.31,0,0,1,5.8,0,4,4,0,0,1,1.19,3,4,4,0,0,1-1.19,3A4.09,4.09,0,0,1,195.75,11.05ZM199,52.94h-6.34V17.46H199Z"/><path class="cls-1" d="M215.8,17.46h13.44v5.33H215.8V39.16a19.87,19.87,0,0,0,.41,4.4,6.79,6.79,0,0,0,1.23,2.73,4.49,4.49,0,0,0,2.05,1.4,9.13,9.13,0,0,0,2.86.41,13.56,13.56,0,0,0,4.61-.65c1.16-.43,2-.74,2.42-.92l1.23,5.25A22.7,22.7,0,0,1,227.27,53a19,19,0,0,1-5.46.72,16.64,16.64,0,0,1-6-.92A8.83,8.83,0,0,1,212.05,50a11.18,11.18,0,0,1-2-4.54,29.71,29.71,0,0,1-.58-6.24V7.57l6.34-1.09Z"/><path class="cls-1" d="M234.63,35.27A22.61,22.61,0,0,1,236,27.05a17.13,17.13,0,0,1,3.61-5.83,14.57,14.57,0,0,1,5.19-3.48,16,16,0,0,1,6-1.16q7.17,0,11,4.47t3.83,13.61v1.05a10.93,10.93,0,0,1-.07,1.2H241.25q.41,5.52,3.21,8.39t8.73,2.86a23.14,23.14,0,0,0,5.63-.58,20.05,20.05,0,0,0,3.44-1.12l.89,5.32a19.08,19.08,0,0,1-4.06,1.3,29.12,29.12,0,0,1-6.58.68,20.92,20.92,0,0,1-8-1.4,15,15,0,0,1-5.56-3.86,15.81,15.81,0,0,1-3.24-5.83A24.51,24.51,0,0,1,234.63,35.27ZM259,31.79a10.67,10.67,0,0,0-2.15-7.06A7.4,7.4,0,0,0,250.73,22a8.33,8.33,0,0,0-3.85.85A9,9,0,0,0,244.05,25a10,10,0,0,0-1.81,3.13,15.36,15.36,0,0,0-.85,3.62Z"/><path class="cls-1" d="M290.16,53.76a19.27,19.27,0,0,1-7.53-1.37,15.08,15.08,0,0,1-5.46-3.82,15.81,15.81,0,0,1-3.31-5.83,24.11,24.11,0,0,1-1.09-7.47,22.69,22.69,0,0,1,1.19-7.5,17.8,17.8,0,0,1,3.38-5.91A15.18,15.18,0,0,1,282.69,18a17.21,17.21,0,0,1,7.06-1.4,27.47,27.47,0,0,1,4.78.41,21.79,21.79,0,0,1,4.57,1.29l-1.43,5.39a15.48,15.48,0,0,0-3.31-1.09,18.86,18.86,0,0,0-4-.41c-3.55,0-6.27,1.12-8.15,3.34s-2.83,5.49-2.83,9.76a20.09,20.09,0,0,0,.64,5.25,10.84,10.84,0,0,0,2.05,4.1,9.16,9.16,0,0,0,3.58,2.62,13.59,13.59,0,0,0,5.32.92,20.64,20.64,0,0,0,4.57-.47,16.2,16.2,0,0,0,3.21-1l.89,5.32a6.51,6.51,0,0,1-1.57.65,21,21,0,0,1-2.32.55c-.87.16-1.79.29-2.76.41A25.56,25.56,0,0,1,290.16,53.76Z"/><path class="cls-1" d="M306.47,52.94V1.09L312.81,0V18.15a21.32,21.32,0,0,1,3.79-1.06,21.73,21.73,0,0,1,4-.38,17.93,17.93,0,0,1,7,1.2,11,11,0,0,1,4.47,3.34,13,13,0,0,1,2.35,5.15,30.2,30.2,0,0,1,.68,6.62V52.94h-6.34V34.38a29.86,29.86,0,0,0-.45-5.59A9.34,9.34,0,0,0,326.87,25,5.83,5.83,0,0,0,324.14,23a11.83,11.83,0,0,0-4.23-.65,17.34,17.34,0,0,0-2.12.13c-.72.1-1.42.2-2.08.31s-1.25.24-1.77.38a9.92,9.92,0,0,0-1.13.34V52.94Z"/></g></g></svg>