<?xml version="1.0" encoding="utf-8"?>
<!-- Generator: Adobe Illustrator 27.9.0, SVG Export Plug-In . SVG Version: 6.00 Build 0)  -->
<svg version="1.1" id="Layer_1" xmlns="http://www.w3.org/2000/svg" xmlns:xlink="http://www.w3.org/1999/xlink" x="0px" y="0px"
	 viewBox="0 0 55.1 79.7" style="enable-background:new 0 0 55.1 79.7;" xml:space="preserve">
<style type="text/css">
	.st4{fill:white;}
</style>
<g>
	<g>
		<path class="st4" d="M34.7,50.9c-2.2,0-3.9-1.8-3.9-3.9V32.7c0-5.7-4.7-10.4-10.4-10.4S10,26.9,10,32.7V47c0,2.2-1.8,3.9-3.9,3.9
			S2.1,49.2,2.1,47V32.7c0-10.1,8.2-18.3,18.3-18.3s18.3,8.2,18.3,18.3V47C38.7,49.2,36.9,50.9,34.7,50.9z">
			<animateTransform
			attributeName="transform"
			type="translate"
			values="0 0; 0 -5; 0 0"
			dur="1s"
			repeatCount="indefinite"
			/>
		</path>	
	</g>
	<g>
		<path class="st4" d="M34.7,65.3c-10.1,0-18.3-8.2-18.3-18.3V32.7c0-2.2,1.8-3.9,3.9-3.9s3.9,1.8,3.9,3.9V47
			c0,5.7,4.7,10.4,10.4,10.4S45.1,52.7,45.1,47V32.7c0-2.2,1.8-3.9,3.9-3.9s3.9,1.8,3.9,3.9V47C53,57.1,44.8,65.3,34.7,65.3z">
			<animateTransform
			attributeName="transform"
			type="translate"
			values="0 0; 0 5; 0 0"
			dur="1s"
			repeatCount="indefinite"
			/>
		</path>	
	</g>
</g>
</svg>
