<?xml version="1.0" encoding="UTF-8"?>
<svg id="Layer_2" data-name="Layer 2" xmlns="http://www.w3.org/2000/svg" viewBox="0 0 40 44.34">
  <defs>
    <style>
      .cls-1 {
        fill: #fff;
        stroke-width: 0px;
      }
    </style>
  </defs>
  <g id="Layer_1-2" data-name="Layer 1">
    <g>
      <path class="cls-1" d="m25.99,40.86H8.44c-2.74,0-4.96-2.23-4.96-4.96V8.44c0-2.74,2.23-4.96,4.96-4.96h17.55c.96,0,1.74-.78,1.74-1.74s-.78-1.74-1.74-1.74H8.44C3.79,0,0,3.79,0,8.44v27.45c0,4.66,3.79,8.44,8.44,8.44h17.55c.96,0,1.74-.78,1.74-1.74s-.78-1.74-1.74-1.74Z"/>
      <path class="cls-1" d="m39.92,22.67s.01-.04.02-.06c0-.02.01-.04.01-.06,0-.02,0-.04.01-.06,0-.02,0-.04.01-.07,0-.02,0-.04,0-.06,0-.02,0-.04,0-.07,0-.02,0-.04,0-.06,0-.02,0-.04,0-.06s0-.04,0-.06c0-.02,0-.04,0-.06,0-.02,0-.04,0-.07,0-.02,0-.04,0-.06,0-.02,0-.04-.01-.07,0-.02,0-.04-.01-.06,0-.02,0-.04-.01-.06,0-.02-.01-.04-.02-.06,0-.02-.01-.04-.02-.06,0-.02-.02-.04-.02-.07,0-.01,0-.02-.01-.04,0,0,0-.01,0-.02,0-.02-.02-.04-.03-.07,0-.02-.02-.03-.02-.05-.01-.02-.02-.04-.03-.06,0-.02-.02-.03-.03-.05-.01-.02-.02-.04-.04-.05-.01-.02-.02-.04-.04-.05-.01-.02-.02-.03-.04-.05-.01-.02-.03-.04-.04-.05-.01-.01-.03-.03-.04-.04-.02-.02-.03-.04-.05-.05,0,0,0,0-.01-.01l-6.21-6.21c-.68-.68-1.78-.68-2.46,0-.68.68-.68,1.78,0,2.46l3.23,3.23H13.87c-.96,0-1.74.78-1.74,1.74s.78,1.74,1.74,1.74h20.19l-3.23,3.23c-.68.68-.68,1.78,0,2.46.34.34.79.51,1.23.51s.89-.17,1.23-.51l6.21-6.21s0,0,.01-.01c.02-.02.03-.04.05-.05.01-.01.03-.03.04-.04.01-.02.03-.04.04-.05.01-.02.02-.03.04-.05.01-.02.02-.04.04-.05.01-.02.02-.04.04-.05.01-.02.02-.03.03-.05.01-.02.02-.04.03-.06,0-.02.02-.03.02-.05.01-.02.02-.04.03-.07,0,0,0-.01,0-.02,0-.01,0-.02.01-.04,0-.02.02-.04.02-.07,0-.02.01-.04.02-.06Z"/>
    </g>
  </g>
</svg>