<svg xmlns="http://www.w3.org/2000/svg" viewBox="0 0 626.18 600"><defs><style>.cls-1{fill:none;}.cls-2{fill:#ffda88;}.cls-10,.cls-11,.cls-13,.cls-14,.cls-15,.cls-16,.cls-17,.cls-18,.cls-2,.cls-3,.cls-5,.cls-6,.cls-7,.cls-8{fill-rule:evenodd;}.cls-3{fill:#ffe4ac;}.cls-4{fill:#fdcd5f;}.cls-5{fill:#ffefcf;}.cls-12,.cls-6{fill:#f18d00;}.cls-7{fill:#f49b00;}.cls-8{fill:#f9b54b;}.cls-9{fill:#faba1c;}.cls-10{fill:#de7e0b;}.cls-11{fill:#c56d16;}.cls-13{fill:#9f682a;}.cls-14{fill:#b77b3b;}.cls-15{fill:#6a4117;}.cls-16{fill:#8d571f;}.cls-17{fill:#744514;}.cls-18{fill:#d2a643;}</style></defs><g id="Layer_2" data-name="Layer 2"><g id="Layer_1-2" data-name="Layer 1"><rect class="cls-1" width="626.18" height="600"/></g><g id="vegleges"><path class="cls-2" d="M363.41,172.35a80.16,80.16,0,1,1-100.63,0Z"/><path class="cls-2" d="M393.25,234.74a80.16,80.16,0,1,1-152.2-35.19H385.13A79.79,79.79,0,0,1,393.25,234.74Z"/><path class="cls-3" d="M304.08,313.75c-25.07-6.46-44.16-39.37-44.16-79,0-25.21,7.73-47.7,19.8-62.39H299c-3,16.17-4.91,37.63-4.91,61.17C294.12,268.19,298.15,298.34,304.08,313.75Z"/><rect class="cls-4" x="218.74" y="199.55" width="188.7" height="21.98"/><polygon class="cls-2" points="215.79 230.46 410.39 230.46 381.18 517.51 245 517.51 215.79 230.46"/><path class="cls-3" d="M215.79,230.46h51.1C348.3,263.16,384.8,355.35,349.7,464a330.52,330.52,0,0,1-22.81,53.54H245Z"/><polygon class="cls-5" points="245.72 230.46 266 517.51 301.7 517.51 301.7 230.46 245.72 230.46"/><polygon class="cls-6" points="397.96 352.64 381.18 517.51 245 517.51 228.23 352.64 397.96 352.64"/><path class="cls-7" d="M326.89,517.51H245L228.23,352.64H360.65c5.2,33.43,2,71.26-10.95,111.33A330.52,330.52,0,0,1,326.89,517.51Z"/><polygon class="cls-8" points="301.7 517.51 266 517.51 254.35 352.64 301.7 352.64 301.7 517.51"/><path class="cls-3" d="M301.7,250V230.46H266.89A152,152,0,0,1,301.7,250Z"/><rect class="cls-9" x="208.97" y="217.31" width="208.24" height="17.76"/><path class="cls-10" d="M265.07,504.24l-.25-3.51a5,5,0,0,1,.45,2.09,5.13,5.13,0,0,1-.2,1.42Zm-4.56-64.53-1-14.13h0a7.1,7.1,0,0,1,1,14.13Zm41.19-11.92v9.36a5.11,5.11,0,0,1,0-9.36ZM275,446.9a3.89,3.89,0,1,1-3.88,3.89A3.89,3.89,0,0,1,275,446.9Zm5.22,42.41a6.66,6.66,0,1,1-6.66,6.66,6.66,6.66,0,0,1,6.66-6.66Zm12.66-28.2a2.67,2.67,0,1,1-2.67,2.66,2.66,2.66,0,0,1,2.67-2.66ZM269.22,407.6a3.44,3.44,0,1,1-3.44,3.44,3.44,3.44,0,0,1,3.44-3.44Zm8.66,25.09a4.78,4.78,0,1,1-4.77,4.77,4.77,4.77,0,0,1,4.77-4.77ZM277,465.77a3.89,3.89,0,1,1-3.88,3.89,3.89,3.89,0,0,1,3.88-3.89ZM266.78,386.5a4.33,4.33,0,1,1-4.33,4.33,4.33,4.33,0,0,1,4.33-4.33Zm22.65,19.1a6.11,6.11,0,1,1-6.11,6.11,6.1,6.1,0,0,1,6.11-6.11Zm2.22-41.52a3.89,3.89,0,1,1-3.89,3.88,3.88,3.88,0,0,1,3.89-3.88Zm-6,17.76a4.56,4.56,0,1,1-4.55,4.55,4.56,4.56,0,0,1,4.55-4.55Zm-18.09-14.65a4.89,4.89,0,1,1-4.89,4.88A4.88,4.88,0,0,1,267.56,367.19Z"/><path class="cls-11" d="M244.13,359.41a5.44,5.44,0,1,1-5.44,5.45,5.44,5.44,0,0,1,5.44-5.45ZM347.27,464.22a7.33,7.33,0,1,1-7.33,7.33,7.33,7.33,0,0,1,7.33-7.33ZM364,464a4.55,4.55,0,1,1-4.55,4.55A4.55,4.55,0,0,1,364,464Zm1.56,29.53a3.67,3.67,0,1,1-3.67,3.66,3.66,3.66,0,0,1,3.67-3.66Zm-26.43-2.89a7.22,7.22,0,1,1-7.21,7.22,7.22,7.22,0,0,1,7.21-7.22Zm-14.43-13.77a3.45,3.45,0,1,1-3.44,3.45,3.45,3.45,0,0,1,3.44-3.45Zm-8.21,23.76a4.78,4.78,0,1,1-4.78,4.78,4.78,4.78,0,0,1,4.78-4.78Zm-9.27-24.2A5.55,5.55,0,1,1,301.7,482a5.55,5.55,0,0,1,5.55-5.55Zm4.71-26.2a4.67,4.67,0,1,1-4.66,4.66,4.67,4.67,0,0,1,4.66-4.66Zm-51.77,47.52a5.08,5.08,0,0,1,4.63,3l.25,3.51a5.08,5.08,0,1,1-4.88-6.49Zm-2.51-17.32a3.44,3.44,0,1,1-3.45,3.44,3.44,3.44,0,0,1,3.45-3.44ZM257,453.12a4.55,4.55,0,1,1-4.55,4.55,4.55,4.55,0,0,1,4.55-4.55Zm3.5-13.41a7.61,7.61,0,0,1-1,.06,7.1,7.1,0,0,1,0-14.19l1,14.13Zm-10.27-40.77a7.77,7.77,0,1,1-7.77,7.77,7.77,7.77,0,0,1,7.77-7.77ZM375.69,430a3.11,3.11,0,1,1-3.11,3.11,3.11,3.11,0,0,1,3.11-3.11Zm7-23.09a4.11,4.11,0,1,1-4.1,4.11,4.11,4.11,0,0,1,4.1-4.11Zm-8.88,39.53a5.44,5.44,0,1,1-5.44,5.43,5.43,5.43,0,0,1,5.44-5.43ZM350,434.69a5.39,5.39,0,1,1-5.38,5.38,5.39,5.39,0,0,1,5.38-5.38Zm-20.48,8.88a5.55,5.55,0,1,1-5.55,5.55,5.55,5.55,0,0,1,5.55-5.55Zm-25.76-16.21a5.11,5.11,0,1,1,0,10.21,5.18,5.18,0,0,1-2.05-.42v-9.36a5,5,0,0,1,2.05-.43Zm5.55-40.86a4.67,4.67,0,1,1-4.66,4.67,4.66,4.66,0,0,1,4.66-4.67Zm8.33,18.21a4.55,4.55,0,1,1-4.56,4.55,4.55,4.55,0,0,1,4.56-4.55Zm14.43,12.43a5,5,0,1,1-5,5,5,5,0,0,1,5-5Zm33.86,1.56a3.56,3.56,0,1,1-3.55,3.55,3.55,3.55,0,0,1,3.55-3.55Zm-19.54-18.65a4.66,4.66,0,1,1-4.66,4.66,4.66,4.66,0,0,1,4.66-4.66Zm40.19-38.64a3.33,3.33,0,1,1-3.33,3.33,3.33,3.33,0,0,1,3.33-3.33Zm-7.1,24.43a7.33,7.33,0,1,1-7.33,7.33,7.33,7.33,0,0,1,7.33-7.33Zm-11.88-22a4.33,4.33,0,1,1-4.33,4.33,4.33,4.33,0,0,1,4.33-4.33Zm-15.77,9.32a3.22,3.22,0,1,1-3.22,3.22,3.22,3.22,0,0,1,3.22-3.22Zm-12.32-13.1a3.78,3.78,0,1,1-3.78,3.78,3.77,3.77,0,0,1,3.78-3.78Zm-11.21,23.76a4.55,4.55,0,1,1-4.56,4.55,4.55,4.55,0,0,1,4.56-4.55Zm-13.22-17.32a5.11,5.11,0,1,1-5.1,5.11,5.11,5.11,0,0,1,5.1-5.11ZM251,379.18a4.33,4.33,0,1,1-4.32,4.33A4.33,4.33,0,0,1,251,379.18Z"/><path id="korvonal" class="cls-12" d="M417.21,215.28h-7.74V199.55a2,2,0,0,0-2-2H386.35a82.86,82.86,0,0,0-21.67-26.74,2,2,0,0,0-1.27-.45H262.78a2,2,0,0,0-1.28.45,82.91,82.91,0,0,0-21.67,26.74H218.74a2,2,0,0,0-2,2v15.73H209a2,2,0,0,0-2,2v17.76a2,2,0,0,0,2,2h5l29,280.62a2,2,0,0,0,2,1.82H381.18a2,2,0,0,0,2-1.82l29-280.62h5a2,2,0,0,0,2-2V217.31A2,2,0,0,0,417.21,215.28ZM263.5,174.38h99.19a78.88,78.88,0,0,1,19.11,23.14H244.38A78.86,78.86,0,0,1,263.5,174.38Zm-42.73,27.19H405.42v13.71H220.77ZM379.35,515.48H246.83L218,237.1h190.1Zm35.83-282.43H211V219.34H415.18Z"/><polygon class="cls-13" points="341.46 172.35 287.69 502.03 276.14 499.96 329.57 172.35 341.46 172.35"/><polygon class="cls-14" points="301.7 416.12 287.69 502.03 276.14 499.96 300.17 352.64 301.7 352.64 301.7 416.12"/><polygon class="cls-15" points="329.57 172.35 341.46 172.35 372.95 82.53 361.4 80.46 329.57 172.35"/><polygon class="cls-16" points="337.02 199.55 333.44 221.53 321.55 221.53 325.14 199.55 337.02 199.55"/><polygon class="cls-17" points="334.13 217.31 331.23 235.07 319.34 235.07 322.24 217.31 334.13 217.31"/><path class="cls-18" d="M315.05,261.41a147.55,147.55,0,0,1,10.12,10.8l-13.12,80.43H300.17Z"/></g></g></svg>