<svg xmlns="http://www.w3.org/2000/svg" xmlns:xlink="http://www.w3.org/1999/xlink" viewBox="0 0 117.74 200.82"><defs><style>.cls-1{fill:url(#linear-gradient);}.cls-2{fill:url(#linear-gradient-2);}.cls-3{fill:#4e947d;}</style><linearGradient id="linear-gradient" x1="3.61" y1="-25.55" x2="132.29" y2="155.21" gradientUnits="userSpaceOnUse"><stop offset="0" stop-color="#88d2b9"/><stop offset="1" stop-color="#4e947d"/></linearGradient><linearGradient id="linear-gradient-2" x1="-9" y1="-16.58" x2="119.69" y2="164.19" xlink:href="#linear-gradient"/></defs><g id="Layer_2" data-name="Layer 2"><g id="Layer_1-2" data-name="Layer 1"><path class="cls-1" d="M58.87,104.15a33.44,33.44,0,0,0,33.41-33.4V33.41a33.41,33.41,0,1,0-66.81,0V70.75A33.43,33.43,0,0,0,58.87,104.15ZM38.65,33.41a20.22,20.22,0,0,1,40.44,0V70.75A20.24,20.24,0,0,1,58.87,91h0A20.24,20.24,0,0,1,38.65,70.75Z"/><path class="cls-2" d="M100.5,111.66A58.49,58.49,0,0,0,117.74,70a6.59,6.59,0,1,0-13.18,0,45.69,45.69,0,0,1-91.37,0A6.6,6.6,0,0,0,0,70a58.86,58.86,0,0,0,52.28,58.5v13.25H49.93a6.59,6.59,0,1,0,0,13.18H67.81a6.59,6.59,0,0,0,0-13.18H65.47V128.53A58.38,58.38,0,0,0,100.5,111.66Z"/><path class="cls-3" d="M9.79,175.11q5.4,0,8.26,2a6.85,6.85,0,0,1,2.86,6c0,3.38-1.67,5.68-5,6.88.45.55,1,1.22,1.54,2s1.17,1.65,1.77,2.58,1.17,1.87,1.73,2.84,1,1.93,1.47,2.86H17.35c-.46-.86-1-1.73-1.48-2.61s-1.06-1.73-1.6-2.55-1.08-1.61-1.6-2.34-1-1.39-1.48-2c-.34,0-.62,0-.86,0H7.45v9.43H2.91V175.72a23.68,23.68,0,0,1,3.53-.48C7.69,175.15,8.8,175.11,9.79,175.11Zm.32,3.93c-1,0-1.85,0-2.66.1v8.07h2a20.8,20.8,0,0,0,2.91-.18,6.24,6.24,0,0,0,2.11-.65,3.17,3.17,0,0,0,1.28-1.26,4.29,4.29,0,0,0,.43-2,4.12,4.12,0,0,0-.43-1.94,3.22,3.22,0,0,0-1.25-1.26,6.12,6.12,0,0,0-1.92-.67A14.34,14.34,0,0,0,10.11,179Z"/><path class="cls-3" d="M24.69,191a11.89,11.89,0,0,1,.74-4.36,9,9,0,0,1,2-3.11,8.1,8.1,0,0,1,2.81-1.87,8.65,8.65,0,0,1,3.24-.63,7.73,7.73,0,0,1,6.06,2.41c1.46,1.61,2.18,4,2.18,7.2,0,.24,0,.51,0,.81s0,.57,0,.81H29.19a5,5,0,0,0,1.6,3.51A6.07,6.07,0,0,0,34.91,197a13.63,13.63,0,0,0,2.9-.29,11.25,11.25,0,0,0,2.07-.61l.58,3.56a6.71,6.71,0,0,1-1,.38q-.63.19-1.44.36c-.54.11-1.12.2-1.75.27a17,17,0,0,1-1.91.11,11.63,11.63,0,0,1-4.32-.74,8,8,0,0,1-3-2,8.41,8.41,0,0,1-1.76-3.1A12.42,12.42,0,0,1,24.69,191Zm12.64-2a5.66,5.66,0,0,0-.26-1.71,4.06,4.06,0,0,0-.73-1.4,3.52,3.52,0,0,0-1.19-.94,4.29,4.29,0,0,0-3.44,0,4,4,0,0,0-1.28,1,4.54,4.54,0,0,0-.81,1.4,7.65,7.65,0,0,0-.39,1.62Z"/><path class="cls-3" d="M45.25,190.92a11.58,11.58,0,0,1,.64-3.91,9.36,9.36,0,0,1,1.86-3.15,8.52,8.52,0,0,1,2.93-2.09,9.67,9.67,0,0,1,3.89-.75,13.11,13.11,0,0,1,5,1l-.94,3.56A10.78,10.78,0,0,0,57,185a9.37,9.37,0,0,0-2-.21A4.77,4.77,0,0,0,51,186.4a6.86,6.86,0,0,0-1.33,4.52A7.1,7.1,0,0,0,51,195.36c.84,1.09,2.26,1.64,4.25,1.64a10.71,10.71,0,0,0,2.19-.22,9.64,9.64,0,0,0,1.88-.54l.61,3.6a9,9,0,0,1-2.18.65,15.6,15.6,0,0,1-3,.29,11,11,0,0,1-4.19-.74,7.86,7.86,0,0,1-3-2,8.64,8.64,0,0,1-1.75-3.13A13.12,13.12,0,0,1,45.25,190.92Z"/><path class="cls-3" d="M79.91,190.88a12.24,12.24,0,0,1-.64,4.07,9,9,0,0,1-1.84,3.13,8.35,8.35,0,0,1-2.86,2,9.27,9.27,0,0,1-3.69.72,9.07,9.07,0,0,1-3.67-.72,8.31,8.31,0,0,1-2.85-2A9.18,9.18,0,0,1,62.51,195a11.74,11.74,0,0,1-.67-4.07,11.55,11.55,0,0,1,.67-4,9.07,9.07,0,0,1,1.87-3.11,8.22,8.22,0,0,1,2.86-2,9.84,9.84,0,0,1,7.29,0,8,8,0,0,1,2.86,2,9.2,9.2,0,0,1,1.86,3.11A11.78,11.78,0,0,1,79.91,190.88Zm-4.46,0a7.34,7.34,0,0,0-1.21-4.45,4.29,4.29,0,0,0-6.73,0,7.41,7.41,0,0,0-1.2,4.45,7.51,7.51,0,0,0,1.2,4.5,4.24,4.24,0,0,0,6.73,0A7.44,7.44,0,0,0,75.45,190.88Z"/><path class="cls-3" d="M95.14,185.41a13.6,13.6,0,0,0-1.49-.38,11.22,11.22,0,0,0-2.22-.2,8.42,8.42,0,0,0-1.53.15,8.63,8.63,0,0,0-1.13.25v15.08H84.41V182.38a25,25,0,0,1,3.15-.88,20.07,20.07,0,0,1,4.2-.41c.29,0,.62,0,1,0l1.15.15c.38.06.76.13,1.11.21s.65.16.87.24Z"/><path class="cls-3" d="M114.83,199.74a27.3,27.3,0,0,1-3.25.72,26.1,26.1,0,0,1-4.13.32,11.09,11.09,0,0,1-4-.68,8.29,8.29,0,0,1-3-2A8.67,8.67,0,0,1,98.54,195a11.94,11.94,0,0,1-.66-4.09,13.49,13.49,0,0,1,.56-4,8.78,8.78,0,0,1,1.63-3.11,7.29,7.29,0,0,1,2.63-2,8.52,8.52,0,0,1,3.57-.7,8.37,8.37,0,0,1,2.41.32,12,12,0,0,1,1.8.72v-9l4.35-.72Zm-12.49-8.9a6.85,6.85,0,0,0,1.37,4.52,4.66,4.66,0,0,0,3.78,1.64,14.91,14.91,0,0,0,1.78-.09c.49-.06.9-.13,1.21-.2v-10.8a7.29,7.29,0,0,0-1.53-.74,6.24,6.24,0,0,0-2-.34,3.89,3.89,0,0,0-3.47,1.62A7.75,7.75,0,0,0,102.34,190.84Z"/></g></g></svg>