<?xml version="1.0" encoding="UTF-8"?>
<svg id="Layer_2" data-name="Layer 2" xmlns="http://www.w3.org/2000/svg" xmlns:xlink="http://www.w3.org/1999/xlink" viewBox="0 0 117.74 207.69">
  <defs>
    <style>
      .cls-1 {
        fill: url(#linear-gradient);
      }

      .cls-1, .cls-2 {
        stroke-width: 0px;
      }

      .cls-2 {
        fill: url(#linear-gradient-2);
      }

      .cls-3 {
        fill: #4e947d;
        font-family: Ubuntu-Medium, Ubuntu;
        font-size: 36px;
        font-weight: 500;
      }

      .cls-4 {
        letter-spacing: -.01em;
      }
    </style>
    <linearGradient id="linear-gradient" x1="3.61" y1="-25.55" x2="132.29" y2="155.21" gradientUnits="userSpaceOnUse">
      <stop offset="0" stop-color="#88d2b9"/>
      <stop offset="1" stop-color="#4e947d"/>
    </linearGradient>
    <linearGradient id="linear-gradient-2" x1="-9" y1="-16.58" x2="119.69" y2="164.19" xlink:href="#linear-gradient"/>
  </defs>
  <g id="Layer_1-2" data-name="Layer 1">
    <g>
      <path class="cls-1" d="m58.87,104.15c18.42,0,33.41-14.99,33.41-33.41v-37.34C92.28,14.99,77.29,0,58.87,0S25.47,14.99,25.47,33.41v37.34c0,18.42,14.99,33.41,33.41,33.41Zm-20.22-70.75c0-11.15,9.07-20.22,20.22-20.22s20.22,9.07,20.22,20.22v37.34c0,11.15-9.07,20.22-20.22,20.22h0c-11.15,0-20.22-9.07-20.22-20.22v-37.34Z"/>
      <path class="cls-2" d="m100.5,111.66c11.12-11.12,17.24-25.9,17.24-41.63,0-3.64-2.95-6.59-6.59-6.59s-6.59,2.95-6.59,6.59c0,25.19-20.49,45.69-45.69,45.69S13.19,95.22,13.19,70.03c0-3.64-2.95-6.59-6.59-6.59s-6.59,2.95-6.59,6.59c0,15.73,6.12,30.51,17.24,41.63,9.55,9.55,21.8,15.41,35.04,16.88v13.24h-2.34c-3.64,0-6.59,2.95-6.59,6.59s2.95,6.59,6.59,6.59h17.88c3.64,0,6.59-2.95,6.59-6.59s-2.95-6.59-6.59-6.59h-2.34v-13.24c13.23-1.47,25.49-7.33,35.04-16.88Z"/>
    </g>
    <text class="cls-3" transform="translate(.03 200.31)"><tspan x="0" y="0">Re</tspan><tspan class="cls-4" x="43.6" y="0">c</tspan><tspan x="60.19" y="0">ord</tspan></text>
  </g>
</svg>