<?xml version="1.0" encoding="utf-8"?>
<!-- Generator: Adobe Illustrator 27.9.0, SVG Export Plug-In . SVG Version: 6.00 Build 0)  -->
<svg version="1.1" id="Layer_1" xmlns="http://www.w3.org/2000/svg" xmlns:xlink="http://www.w3.org/1999/xlink" x="0px" y="0px"
	 viewBox="0 0 2500 1421.5" style="enable-background:new 0 0 2500 1421.5;" xml:space="preserve">
<style type="text/css">
	.st0{fill-rule:evenodd;clip-rule:evenodd;fill:#757FB5;}
</style>
<path class="st0" d="M1717.5,1238.7l0.9-1.1c42.8-48.4,78.4-104,106.9-161c47,31.3,104,51.3,163.8,51.3
	c132.5,0,250.8-66.9,270.7-203.7h-232.2V734.6h427.4v569.9h-176.7V1202c-76.9,72.7-171,116.8-289.2,116.8
	c-99.8,0-192.4-28.5-270.7-81.2c-4.3-1.4-8.5-4.3-12.8-7.1c-131.1-95.5-218-255-218-436c0-52.7,5.7-101.2,15.7-148.2l-210.9,664
	h-205.2L843.6,546.5c1.5,15.7,4.3,31.3,4.3,47H645.5c-1.5-7.1-2.8-15.7-5.7-24.2c-10-35.6-34.2-64.1-51.3-75.5
	c-5.7-4.3-15.7-10-28.5-15.7c-15.7-7.1-37.1-14.3-61.3-19.9c-28.5,65.6-49.9,136.8-58.4,210.9c7.1,1.4,14.3,2.8,22.8,2.8
	c25.7,4.3,59.8,7.1,96.9,11.4c27,2.8,54.1,7.1,79.8,12.8c55.6,11.4,109.7,28.5,146.8,57c72.7,59.8,108.3,142.5,96.9,267.8
	c-8.6,89.8-65.6,175.3-124,220.9c-21.4,14.3-59.9,29.9-98.3,42.8c22.8,32.8,104,86.9,156.7,115.4h702.5
	c62.7-34.2,142.5-98.4,185.2-148.2v1.4c4.3-4.3,8.6-8.6,12.8-14.3C1718.1,1238.9,1717.8,1238.8,1717.5,1238.7L1717.5,1238.7z
	 M531.5,1123.6c35.6,59.8,78.4,114,128.2,161c-62.7,21.4-136.8,38.5-219.4,38.5c-128.2,0-232.2-44.2-289.2-89.8
	C91.3,1184.9,28.6,1083.7,28.6,964h212.2c0,118.2,122.6,168.1,220.8,168.1C484.5,1132.2,508.7,1127.9,531.5,1123.6L531.5,1123.6z
	 M443.2,872.8c-7.2-39.9-8.6-78.4-8.6-118.2c0-28.5,1.4-57,4.3-84.1c-95.5-11.4-179.6-42.7-179.6-102.6c0-74.1,85.5-114,156.7-116.8
	c25.7-1.4,54.1,2.8,81.2,8.5c27.2-62.7,63.2-121.2,106.9-173.8c-47-12.8-102.6-18.5-158.1-18.5c-121.1,0-233.7,44.2-307.8,108.3
	C69.9,435.4,47.1,510.9,47.1,605c0,55.6,22.8,96.9,81.2,156.7C178.2,814.4,343.4,855.7,443.2,872.8L443.2,872.8z M1167,21.5
	c210.2-0.7,403.9,91.2,538.6,237.2c17.3,18.8,33.4,36.2,48.7,55.5c64.9-30.4,142.2-47,229.1-48.4c252.2,1.4,431.7,112.6,470.2,349.1
	h-215.1c-37.1-95.5-105.5-165.3-255.1-165.3c-49.9,0-96.9,15.7-136.8,39.9c-24-62-56.3-121.3-94.3-172.3
	c-16,8.2-31.6,17.2-46.8,26.9c-79.8,51.3-138.2,125.4-172.4,213.7l89.7-292.1h-208l-225.1,725.2l-25.7-76.9L963.3,265.9h-208
	l55.6,172.4c-18.5-35.6-44.2-65.5-74.1-89.7c-28.5-22.8-61.3-39.9-96.9-52.7c-10-2.9-21.4-7.2-32.7-10c10-12.8,21.4-25.7,32.7-38.5
	C772.3,109.1,956.8,22.2,1167,21.5L1167,21.5z M560,894.2c-24.3-7.1-49-12.4-74.1-15.7c-10-2.9-25.6-4.3-41.3-7.1
	c14.3,89.8,45.6,175.3,88.3,252.2c10-1.4,18.5-2.8,27.1-4.3c17.1-2.8,29.9-5.7,38.5-8.5c15.6-4.3,29.9-14.2,41.3-29.9
	c24.2-27.1,37.1-65.6,31.4-94.1c-5.7-18.5-15.7-34.2-31.4-48.4C619.9,918.5,591.4,904.2,560,894.2L560,894.2z M1705.6,677.6
	c-11.4,37-17.1,77-17.1,116.8c0,41.3,5.7,79.8,17.1,115.4c22.8,68.4,65.6,126.8,122.6,165.3c47.9-100.1,72.7-209.6,72.7-320.6
	c0-92.6-17.1-182.4-51.3-266.5C1782.5,529.4,1732.6,597.9,1705.6,677.6L1705.6,677.6z"/>
</svg>
