<svg xmlns="http://www.w3.org/2000/svg" viewBox="0 0 626.18 600"><defs><style>.cls-1{isolation:isolate;}.cls-2{fill:none;}.cls-3,.cls-6,.cls-7,.cls-8,.cls-9{fill:#f6ba9e;}.cls-4{fill:#f2a686;}.cls-5{fill:#ed8f6c;}.cls-6,.cls-9{mix-blend-mode:screen;}.cls-7{opacity:0.5;}.cls-7,.cls-8{mix-blend-mode:multiply;}.cls-9{opacity:0.7;}</style></defs><g class="cls-1"><g id="Layer_2" data-name="Layer 2"><g id="Layer_1-2" data-name="Layer 1"><rect class="cls-2" width="626.18" height="600"/><path class="cls-3" d="M214.83,337.56H112.33c-.06.57-.14,1.1-.18,1.67-1.45,16.86-6.86,83.33-16.5,166.46,22.5,12.1,49.95,15.23,72.34,14.71,16.82-.39,36.53-2.7,54.66-9.33-3.32-57.52-6-114.6-7.4-167.1C215.25,344,215.15,341.56,214.83,337.56Z"/><path class="cls-4" d="M110.12,438.67c15.61-37.52,41.06-32.57,50.7-30.65s15.73,6.25,20.61,17.27c4.46,10,6,19.42,6.88,30,1.23,14.65,2.26,29.31,3.63,43.94.59,6.25,1.6,12.68,1.81,19a150,150,0,0,0,28.9-7.15c-3.32-57.52-6-114.6-7.4-167.1,0,0-.1-2.41-.42-6.41H112.33c-.06.57-.14,1.1-.18,1.67-1.45,16.86-6.86,83.33-16.5,166.46h0C99.89,482.25,100.91,460.85,110.12,438.67Z"/><path class="cls-3" d="M58.05,200.8c5.36,16.33,13.68,51.14,17.27,71.59,3,16.87,4.55,70.07,12,85.5,30.92,64.34,112,53.63,149.57,3.06,41.78-56.26,83-58.49,101.39-70.74,24.87-16.58-5.67-30.89-20.62-29.52-21.53,1.95-39.05,27.4-62.17,15.39-5.38-2.79-11.68-11.43-12.73-17.4-1.41-8,2.36-42.63,3.16-51.68,2.3-26.06,7.15-51.92,7.18-78.16,0-7.71.69-18.47-4.51-25-12.05-15.05-31.75-3.34-33.43,12.54-3.28,31.22-11.74,94.91-19.23,124.66-.3-12.18-3.13-81.53-3.74-93.53-.6-12.4-.76-60.4-22.15-58.71-13.85,1.1-21,14.21-18,63.5,1.9,30.5,2.09,65.6,2.17,85.37-7.61-34.4-12.58-62.09-15.26-79.51C125.17,68.78,91.25,110,95.5,134.38c7.53,43,13.93,72.83,19,112.38-15-37.19-25.21-92.48-40.25-101.94C62.18,137.25,36.87,136.46,58.05,200.8Z"/><path class="cls-4" d="M340,266.6c2.41,4.7,2.3,10.22-1.76,15.48-9.41,12.14-29.24,16.32-43,21.41a119.29,119.29,0,0,0-49.16,33.39c-4.84,5.36-9.59,10.77-14.52,16-2.84,3.62-5.69,7.23-8.79,10.63C213.28,373.89,202,383.1,188.63,388c-25.67,9.37-58.39,5.66-79.62-12.4a70.39,70.39,0,0,1-22.48-35.06c-4.19-15.42-7.06-34.19-4.72-50.11,3.36-22.91,22.92-34,43.72-37.58,3-.94,6-1.76,9-2.43,19.31-4.36,42.71-6.93,61.87-.4,5.92,2,16.95,5.79,18.21,13.17,1.84,10.72-10.52,13.37-17.4,17.89-26.17,17.25-54.94,39.54-61,71.64,18.81-35.79,51.12-61.07,92.95-62.79,14.05-.58,27.53-.61,40.74-6.11,12.49-5.19,23.28-13,35.37-18.76a81.18,81.18,0,0,1,10.47-4.12c-20.65,3.23-37.8,26.8-60.22,15.16-5.38-2.79-11.68-11.43-12.73-17.4-1.41-8,2.36-42.63,3.16-51.68.2-2.3.45-4.6.69-6.91-.77,2.55-1.59,5.1-2.44,7.62-4.13,12.2-11.63,32.93-27.49,32.42-11.23-.34-14.6-14.39-15.55-23.92-1.73,9.52-3.48,18.08-5.2,24.86-.1-4.13-.5-14.84-1-27.65-1.72,5.82-4.33,11.25-8.54,14.84-9,7.63-21.81,2.57-26.79-7.37a82,82,0,0,1-5.65-15.18c.19,12.41.25,23.59.29,32-2.18-9.86-4.14-19.15-5.89-27.81-2,17.23-8.24,30.89-24.34,25.71-5.92-1.91-10-7.44-13-13.3,1.2,7.86,2.36,15.92,3.44,24.46-2.75-6.79-5.33-14.18-7.81-21.79-.32,8.69-2.8,16.43-10.16,19.46-13.71,5.66-23.94-4.66-31-17.1,3.88,15.48,7.72,32.83,9.87,45.06,3,16.87,4.55,70.07,12,85.5,30.92,64.34,112,53.63,149.57,3.06,41.78-56.26,83-58.49,101.39-70.74C352.38,280.78,348.61,272.09,340,266.6Z"/><path class="cls-5" d="M135.34,356s23.26-73.66,94.6-73.87C229.94,282.08,163.33,293,135.34,356Z"/><path class="cls-5" d="M95.65,254.28s61.41-27.16,122.41-7.11C218.06,247.17,162.91,237.57,95.65,254.28Z"/><path class="cls-6" d="M83.67,300.8s-3.9,70.74,50.14,85.23C133.81,386,90.91,369.31,83.67,300.8Z"/><path class="cls-6" d="M64.94,213.71c-6-22.61-13.66-61,1.51-68.86,0,0-17.19-.9-12.9,24.64C56,184,60.92,201.64,64.74,214.23,64.81,214.06,64.87,213.89,64.94,213.71Z"/><path class="cls-6" d="M106.23,177.29c-3.87-23.08-7.81-62,8-68.4,0,0-17-2.53-15.19,23.3,1,14.65,4.29,32.71,6.89,45.6Z"/><path class="cls-6" d="M155.66,159.6c-.31-23.41,1.71-62.46,18.36-66.38,0,0-16.44-5.09-18.56,20.72-1.2,14.64-.74,33-.13,46.12Z"/><path class="cls-6" d="M215.09,167c1.8-23.33,7.33-62,24.27-64.45,0,0-15.93-6.55-20.36,19-2.51,14.48-3.71,32.78-4.28,45.92C214.85,167.29,215,167.15,215.09,167Z"/><path class="cls-6" d="M271.29,286.78c21-10.41,57-25.5,67.78-12.18,0,0-2.53-17-26.71-7.77-13.72,5.26-30.06,13.61-41.63,19.85Z"/><path class="cls-3" d="M425.92,337.56h102.5c.06.57.13,1.1.18,1.67,1.46,16.86,6.85,83.33,16.5,166.46-22.5,12.1-50,15.23-72.34,14.71-16.82-.39-36.53-2.7-54.66-9.33,3.32-57.52,6-114.6,7.4-167.1C425.5,344,425.59,341.56,425.92,337.56Z"/><path class="cls-4" d="M530.62,438.67C515,401.15,489.57,406.1,479.93,408s-15.74,6.25-20.61,17.27c-4.45,10-6,19.42-6.88,30-1.23,14.65-2.26,29.31-3.63,43.94-.59,6.25-1.6,12.68-1.8,19a149.88,149.88,0,0,1-28.91-7.15c3.32-57.52,6-114.6,7.4-167.1,0,0,.09-2.41.42-6.41h102.5c.06.57.13,1.1.18,1.67,1.46,16.86,6.85,83.33,16.5,166.46h0C540.86,482.25,539.84,460.85,530.62,438.67Z"/><path class="cls-3" d="M489.68,226.15c-2.27,13.16-2.91,23.51-11.83,31.63-12.33,11.23-35.61,11-37.34-7,6.24-52.72,17.86-117.15,26.32-149.43,8.92-34,49.58-20.61,40.54,19.66C500.4,152,489.28,227.52,489.68,226.15Z"/><path class="cls-4" d="M450.15,184.07c.59,8.55,3,16.6,9.43,21.12,13.06,9.16,26.52.84,32.79-11.69a73.75,73.75,0,0,0,3.47-8.31c-3.63,22.82-6.36,41.65-6.16,41-2.27,13.16-2.91,23.51-11.83,31.63-12.33,11.23-35.61,11-37.34-7C443,229.5,446.44,206.3,450.15,184.07Z"/><path class="cls-3" d="M395.41,199.61c.85,12.24,2,24.49,2.23,36.77.28,12.89-1.68,25.77-2,38.65-.45,16.08-.67,32.25.89,48.28,2.36,24.57,12.9,47.17,32.53,62.7,18.66,14.78,45.9,18.35,68.93,15.14,14.83-2.08,28-9.79,38.53-20.14,11.42-11.22,16.06-23.94,20.1-39.08,8.14-30.4,2.7-66.71-18.18-91-8-9.27-18.29-14.88-29.06-20.13-5.39-2.63-40.7-6.89-60.9.91-7.84,3-9.58-94.16-11.13-118.66C435.09,78,405.23,71.58,396.09,88.55,388.29,103,393.57,173.37,395.41,199.61Z"/><path class="cls-7" d="M397.64,236.38c-.26-12.28-1.38-24.53-2.23-36.77-.21-2.93-.46-6.44-.72-10.33,2.28,9.67,4.3,24.14,10.73,31,7.75,8.29,22.25,3.15,29-4.6,5.53-6.3,4.87-16.15,6.67-23.7,1.59,22.86,3.86,41.06,7.32,39.72,20.2-7.8,55.51-3.54,60.9-.91,10.77,5.25,21.08,10.86,29.06,20.13,20.88,24.28,26.32,60.59,18.18,91-4,15.14-8.68,27.86-20.1,39.08-10.55,10.35-23.7,18.06-38.53,20.14-23,3.21-50.27-.36-68.93-15.14-19.63-15.53-30.17-38.13-32.53-62.7-1.56-16-1.34-32.2-.89-48.28C396,262.15,397.92,249.27,397.64,236.38Z"/><path class="cls-4" d="M465,228c18.9-2.14,40.3.79,44.4,2.79,10.77,5.25,21.08,10.86,29.06,20.13,20.88,24.28,26.32,60.59,18.18,91-4,15.14-8.68,27.86-20.1,39.08-10.55,10.35-23.7,18.06-38.53,20.14-23,3.21-50.27-.36-68.93-15.14-19.63-15.53-30.17-38.13-32.53-62.7-.61-6.24-.89-12.51-1-18.77C408.76,270.85,432.57,241.44,465,228Z"/><path class="cls-3" d="M567.37,227.7s19.43,12.06,1,52.42-30.94,42.24-42.22,36.62c0,0-15.53-3.94-11.17-18.42s16.68-63.36,23.39-70.66C551.4,213.46,567.37,227.7,567.37,227.7Z"/><path class="cls-8" d="M515,298.32c4.36-14.45,16.68-63.36,23.39-70.66a19.42,19.42,0,0,1,6.71-4.87c-4.68,7.41-2.89,20.23-5,27.7a212.7,212.7,0,0,1-12.38,32.2c-2.71,5.81-6.38,12.34-6.3,19,.17,12.18,10.46,16.81,21,15.32-5.94,3.24-11.22,2.24-16.25-.27C526.13,316.74,510.6,312.8,515,298.32Z"/><path class="cls-6" d="M565.25,227s15.12,9.18,7.38,36.46S553,304.75,553,304.75,587.84,249.69,565.25,227Z"/><path class="cls-3" d="M523.89,197.09s24.51,11.9,10.61,53.4c-15.39,45.95-25.55,56.86-38.68,52.8,0,0-17.62-3.26-16-20.87,1.54-16.42,8.28-69.79,14.22-78.84C505.64,186,523.89,197.09,523.89,197.09Z"/><path class="cls-8" d="M494.08,203.58a26.48,26.48,0,0,1,3.11-3.84c-2,8.07-1,17.87-.91,25.13C496.5,245,483,263.2,485.1,283.36c1.13,10.95,8,20.85,20.28,17.08a35,35,0,0,0,8-3.62c-5.76,6.95-11.32,8.39-17.54,6.47,0,0-17.62-3.26-16-20.87C481.4,266,488.14,212.63,494.08,203.58Z"/><path class="cls-6" d="M519.89,196.38s24,10.9,15.09,47.21c-8.8,35.84-20,48-20,48S555.3,219.39,519.89,196.38Z"/><path class="cls-3" d="M381.36,331.83a84,84,0,0,1-3-23.48c.53-34.29,18.72-70.15,51-84.67,16.7-7.5,40.07-15.12,58.6-12.58,17.29,2.37,27.47,12.93,25.35,25.63-3.9,23.4-52.08,21.17-62.11,44.56,0,0,54.88,25.35,46.51,86.63,0,0-2.78,33.42-34.53,31.75C424.48,397.63,391.27,368.19,381.36,331.83Z"/><path class="cls-8" d="M456.53,215.85c-12.32,3.58-26.52,8.24-37.43,15.27a106.23,106.23,0,0,0-21,18.16,80.16,80.16,0,0,1,31.3-25.6c16.7-7.5,40.07-15.12,58.6-12.58,1.1.16,2.14.34,3.17.55C486.27,212.15,469.91,211.94,456.53,215.85Z"/><path class="cls-8" d="M498.59,354.9a100.09,100.09,0,0,0-10.41-31.54c-9.8-18.54-25.5-31.77-43.95-40.85,6.55-10.21,18.34-16.8,29.29-22.52,10.23-5.35,23-9.23,32.17-16.3,6.11-4.69,4.68-14.83,3.12-22.67a18.6,18.6,0,0,1,4.54,15.71c-3.9,23.4-52.08,21.17-62.11,44.56C451.24,281.29,498.24,303,498.59,354.9Z"/><path class="cls-6" d="M497.65,217.53a34.49,34.49,0,0,1,4.13,1.52c2.16,1.66,4.9,4,6.22,6.42-11.25-9.41-27-7.51-27-7.51-39.69-2-79.31,33.67-79.31,33.67C432.43,214.42,481.8,212.79,497.65,217.53Z"/><path class="cls-6" d="M395.86,155.89c-.85-7.9-1.32-17.24-1.72-26-1.67-37.18,5.53-48.23,20.16-46.43S434,105.54,434,105.54s-13.75-29.87-30-15c-8.64,7.88-9.15,36.74-7.78,61.84C396,153.54,396,154.72,395.86,155.89Z"/><path class="cls-6" d="M469.81,97.51c6.24-12.55,13.55-15.2,22.56-11.57,13.68,5.51,13.27,26.44,13.27,26.44S500.06,80,480.48,90.14c-5.78,3-10.8,12.93-15,25.39Q467.38,106.44,469.81,97.51Z"/><path class="cls-9" d="M557.35,307.69s-6.62,73.19-37.44,82.07C519.91,389.76,540.46,374.6,557.35,307.69Z"/></g></g></g></svg>