<svg xmlns="http://www.w3.org/2000/svg" xmlns:xlink="http://www.w3.org/1999/xlink" viewBox="0 0 626.18 600"><defs><style>.cls-1{fill:#fff;}.cls-2,.cls-31{fill:none;}.cls-3{fill:#ffa6b3;}.cls-4{fill:#ffe6ed;}.cls-5{fill:#ffc0cc;}.cls-6{mask:url(#mask);}.cls-7{fill:#72c992;}.cls-8{fill:#5dc181;}.cls-9{fill:#4bba74;}.cls-10{fill:#3eb569;}.cls-11{fill:#74ca93;}.cls-12{fill:#a2dcb7;}.cls-13{fill:#ed4662;}.cls-14{fill:#ec3553;}.cls-15{fill:#eb2a4a;}.cls-16{fill:#ef5b74;}.cls-17{fill:#f2798d;}.cls-18{fill:#b32e42;}.cls-19{fill:#a6172a;}.cls-20{fill:#ed2d53;}.cls-21{fill:#f15977;}.cls-22{fill:#f58ea2;}.cls-23{fill:#ce7a86;}.cls-24{fill:#6f4221;}.cls-25,.cls-26{fill:#fffeff;}.cls-26{font-size:85.59px;font-family:BubbleShineRegular, Bubble Shine;}.cls-27{fill:#8c1722;}.cls-28{fill:#ff5777;}.cls-29{fill:#ff7193;}.cls-30{fill:#e5aec8;}.cls-31{stroke:#ffe6ed;stroke-miterlimit:10;}</style><mask id="mask" x="164.87" y="210.34" width="183.71" height="296.46" maskUnits="userSpaceOnUse"><path class="cls-1" d="M348.58,210.34V506.8h-170a13.71,13.71,0,0,1-13.69-13.69V210.34Z"/></mask></defs><g id="Layer_2" data-name="Layer 2"><g id="Layer_1-2" data-name="Layer 1"><rect class="cls-2" width="626.18" height="600"/><path class="cls-3" d="M161.44,206.91H352a0,0,0,0,1,0,0V510.22a0,0,0,0,1,0,0H176.44a15,15,0,0,1-15-15V206.91A0,0,0,0,1,161.44,206.91Z"/><path class="cls-4" d="M464.75,383.64V510.22H352V396.66a19.37,19.37,0,0,0,8,1.61c20.81,0,20.81-27.39,41.63-27.39s20.81,27.39,41.63,27.39C454.11,398.27,459.29,390.78,464.75,383.64Z"/><path class="cls-5" d="M464.75,206.91V383.64c-5.46,7.14-10.64,14.63-21.53,14.63-20.82,0-20.82-27.39-41.63-27.39S380.77,398.27,360,398.27a19.37,19.37,0,0,1-8-1.61V206.91Z"/><rect class="cls-3" x="351.99" y="206.91" width="99.94" height="303.31"/><polygon class="cls-5" points="405.38 120.37 351.99 206.91 464.75 206.91 405.38 120.37"/><polygon class="cls-3" points="399.31 130.21 351.99 206.91 451.93 206.91 399.31 130.21"/><polygon class="cls-3" points="405.38 120.37 214.76 120.37 214.78 120.39 161.41 206.91 352.03 206.91 352 206.89 405.38 120.37"/><path class="cls-5" d="M227.21,90.63H391a11,11,0,0,1,11,11v17.88a0,0,0,0,1,0,0H218.21a0,0,0,0,1,0,0V99.63A9,9,0,0,1,227.21,90.63Z"/><path class="cls-3" d="M219.85,100h169a10.36,10.36,0,0,1,10.36,10.36v10a0,0,0,0,1,0,0H211.38a0,0,0,0,1,0,0V108.45A8.48,8.48,0,0,1,219.85,100Z"/><g class="cls-6"><path class="cls-7" d="M207.47,242.14s-2.62-22.48-17.39-28.65c0,0-3.47,1.26-2.18,3.89s13.9,9.62,16.16,26.78Z"/><path class="cls-8" d="M204.85,243.7c1.15-2.32-.42-6.23-1.2-8.27a53.91,53.91,0,0,0-3.45-7.58c-2.65-4.69-7-10.64-12.58-11.68a2.39,2.39,0,0,0,.28,1.21c1.28,2.64,13.9,9.62,16.16,26.78Z"/><path class="cls-8" d="M204,244.14s.17-13.71-16.15-16.53c0,0-.31,11.32,6.87,15.73C194.74,243.34,201.18,245.82,204,244.14Z"/><path class="cls-8" d="M195,243.2c-3.47-9.12-12.5-9.84-15.81-9.8,0,0,1.4,6.76,7.07,8.62Z"/><path class="cls-8" d="M207.47,242.14s-6.64-11.4,3.57-20.68c0,0,5.53,8.95,3.1,16.13A36.49,36.49,0,0,0,207.47,242.14Z"/><path class="cls-8" d="M213.18,238.21s-1-13.69,6.43-18.53c0,0,5.16,9,2.84,13.66C222.45,233.34,216.41,237.66,213.18,238.21Z"/><path class="cls-9" d="M197.7,234.56a10.64,10.64,0,0,0-2.28-1.6c-.74-.45-1.33-1.06-2-1.54a13,13,0,0,0-4.34-1.7c0,1.25,1,2.6,1.46,3.7.63,1.49,1.27,3,1.95,4.45a16.54,16.54,0,0,0,2.85,4.74c.34.35.8.91,1.31,1.41a15.77,15.77,0,0,0,5.86.63A17.85,17.85,0,0,0,197.7,234.56Z"/><path class="cls-10" d="M200.15,240.63a12.81,12.81,0,0,0-2.24-4.26,14,14,0,0,0-3.38-2.7c-.24-.16-3.18-2.21-3.18-1.7a9.22,9.22,0,0,0,1.59,4.52c.74,1.25,1.33,2.57,2,3.83a13.79,13.79,0,0,0,3.56,4.16,14.7,14.7,0,0,0,3.08.24A37.63,37.63,0,0,0,200.15,240.63Z"/><path class="cls-11" d="M200.52,244.75s-3.76-9.68-11.48-15c0,0,7.93,7.73,10.33,14.77Z"/><path class="cls-9" d="M188.5,238.36a32,32,0,0,0-6.19-3.82c-.06,0-2.42-1-1.9.09a9.27,9.27,0,0,0,.93,1.54c.67.91,1.31,1.87,2,2.72a9.78,9.78,0,0,0,3.36,2.63c.57.27,1.11.59,1.69.8l4.09.55C191.9,241,190,239.48,188.5,238.36Z"/><path class="cls-10" d="M183,237.14c1.69,2.67,4.81,4.21,7.74,5.32a23.38,23.38,0,0,0-4-4.24,17.2,17.2,0,0,0-1.84-1.33,4.9,4.9,0,0,0-1.38-.67C182.46,236,182.83,236.83,183,237.14Z"/><path class="cls-11" d="M191.74,242.77s-6.19-6.41-10.15-8c0,0,7.16,5.68,8.66,7.79Z"/><path class="cls-9" d="M210,224.78a12.14,12.14,0,0,0-3.26,7.71,12.69,12.69,0,0,0,2.56,8.17,45.71,45.71,0,0,1,4.33-2.76,32.54,32.54,0,0,0-.77-6.13A16.29,16.29,0,0,0,210,224.78Z"/><path class="cls-10" d="M212,234.82a13,13,0,0,0-.61-4.47,18.55,18.55,0,0,0-1-2.29c-.08-.18-.64-.93-.55-1.08a9.4,9.4,0,0,0-.51,1,19.64,19.64,0,0,0-1.19,2.9,10.37,10.37,0,0,0,.13,4.89,9.51,9.51,0,0,0,1.25,3.3c.14.23.35.59.59,1,.8-.55,1.61-1.05,2.28-1.46A24.86,24.86,0,0,1,212,234.82Z"/><path class="cls-11" d="M210.61,240.05c-1.69-7.08,0-16.91,0-16.91-2.47,6.82-1.45,14.4-.87,17.45C210.06,240.42,210.33,240.24,210.61,240.05Z"/><path class="cls-9" d="M221,234.29a10.55,10.55,0,0,0-.23-7.83c-.41-1-1-1.84-1.46-2.77-.16-.33-.43-1.4-.79-.53-.15.38-.27.78-.43,1.16-.9,2.11-2.32,4.12-2.64,6.45a11.32,11.32,0,0,0,1,6.22,45.29,45.29,0,0,0,4.48-2.62Z"/><path class="cls-10" d="M219.52,227.26c-.08-.31-.15-.62-.24-.92l-1.23-.25c-.1.38-.17.76-.24,1.15-.34,1.76-.89,3.19-.63,5a15.54,15.54,0,0,0,1,3.78c.69-.39,1.34-.79,1.92-1.16a11.5,11.5,0,0,0-.07-4.78C219.9,229.16,219.74,228.2,219.52,227.26Z"/><path class="cls-11" d="M218.58,235.94s-.8-8.3.57-12.33c0,0-.33,9.14.29,11.64Z"/><path class="cls-12" d="M191,214.69s7.86,5,11.65,13.33c1.62,3.54-1.34.69-2.67-1.79C196.37,219.43,189.33,216.09,191,214.69Z"/><path class="cls-13" d="M244.52,243.66c4.58,8.15,1.77,22-5,34.86-8.53,16.34-7.11,31.52-21.78,34.57s-19.85-13.36-34.87-24.41c-12.14-8.94-18.64-19.43-17-28.69,5.24-29.36,31.18-15.25,37.31-16.53C208.85,242.3,229.84,217.56,244.52,243.66Z"/><path class="cls-14" d="M244.52,243.66c-6.44-11.44-14.09-13.11-21.12-11.28a29.23,29.23,0,0,1,6.21,8.15,37.36,37.36,0,0,1,4.21,13.78c.25,2.75.28,5.55.26,8.31a39.65,39.65,0,0,1-1.05,9.83c-1.77,6.73-6.56,12.44-11,17.65-3.46,4.1-8.61,7.73-14.31,6.66-3.14-.59-5.26-2.24-7.44-4.5-2.73-2.84-5.39-5.76-8.15-8.57-2.53-2.57-5.21-4.95-7.82-7.43a30.62,30.62,0,0,1-6.38-7.83,17.78,17.78,0,0,1-2-8.59c0-2.8.54-5.94,2.2-8.29a32.4,32.4,0,0,1,5.18-5.09c1.63-1.47,3.1-3,3.19-5.26-8.64-.34-17.74,2.68-20.62,18.79-1.66,9.26,4.84,19.75,17,28.69,15,11.05,20.12,27.47,34.87,24.41s13.25-18.23,21.78-34.57C246.29,265.63,249.1,251.81,244.52,243.66Z"/><path class="cls-15" d="M244.52,243.66c-6.77-12-14.88-13.26-22.2-11l.58.24c4,1.81,7.53,5.43,10,9a31.38,31.38,0,0,1,5.46,18.43c-.1,6.82-2.35,13.15-4.59,19.5-2.37,6.72-5.15,13.65-9.9,19.08A14.32,14.32,0,0,1,205.71,302c-3.1-1.77-5.41-4.52-7.53-7.33a50.54,50.54,0,0,0-6.89-7.86c-2.7-2.36-5.72-4.32-8.42-6.68a43.37,43.37,0,0,1-6.9-7.43,20.58,20.58,0,0,1-3.78-9.44,24.91,24.91,0,0,1,.07-9.23,19.9,19.9,0,0,1,7.8-11.4,2.73,2.73,0,0,1,.18-1c-6.4,1.43-12.13,6.13-14.3,18.3-1.66,9.26,4.84,19.75,17,28.69,15,11.05,20.12,27.47,34.87,24.41s13.25-18.23,21.78-34.57C246.29,265.63,249.1,251.81,244.52,243.66Z"/><path class="cls-16" d="M189.75,250.68c-5.48,1.63-10.81,13.14,2,22.76,10.19,7.67,12.92,13.09,14.84,15.08,5.32,5.52,19-3.92,16.77-16.08s4.31-29.77-6.62-24.46C200.77,255.75,199.89,247.67,189.75,250.68Z"/><path class="cls-17" d="M194.64,254.46c-1.95.64-5.8,1.72-6,6-.15,3.1,1.59,4.48,5.64,8.58,8,8.16,9.63,14.68,15.23,15.82s15.62-5.64,7.37-10.77-14.1-8.29-12.19-12.4S201.82,252.12,194.64,254.46Z"/><path class="cls-18" d="M190.5,260.08c-2.37,3.58-.26,8.85,8.29,15,9.45,6.85,6.57-.72,2.78-4.35s.68-8.37-2.38-11.1C195.92,256.74,192.23,257.47,190.5,260.08Z"/><path class="cls-15" d="M179.51,254.87a2.77,2.77,0,0,1-5.42-1.14c.43-2,3.3-4.62,3.79-4.52S179.94,252.87,179.51,254.87Z"/><path class="cls-19" d="M178.81,254.69a2,2,0,0,1-4-.84c.31-1.48,2.43-3.41,2.78-3.33A6.45,6.45,0,0,1,178.81,254.69Z"/><path class="cls-20" d="M176.49,255.9a1.28,1.28,0,0,0,1.42-1.44,10.93,10.93,0,0,0,.13-2c-.12-.59-.12-1.59-.94-1.29h0a8.86,8.86,0,0,0-.94,1.09,3.79,3.79,0,0,0-.82,2A1.59,1.59,0,0,0,176.49,255.9Z"/><path class="cls-21" d="M177.18,251.5c-.17,0-.94.5-1.3,1.79-.26.93-.52,2.14.75,2.28s.47-1.35.37-1.74S178,251.47,177.18,251.5Z"/><path class="cls-22" d="M176.27,253.07c-.17.4-.6,1.52-.21,1.93.65.67,1.13.46,1,0a3.55,3.55,0,0,1-.25-1.5C176.9,253.25,176.56,252.4,176.27,253.07Z"/><path class="cls-15" d="M192.61,256.48a2.77,2.77,0,0,1-5.52.5c-.19-2,1.79-5.38,2.28-5.43S192.42,254.44,192.61,256.48Z"/><path class="cls-19" d="M191.88,256.51a2,2,0,0,1-4.06.37c-.14-1.5,1.31-4,1.68-4A6.52,6.52,0,0,1,191.88,256.51Z"/><path class="cls-20" d="M190,258.35a1.28,1.28,0,0,0,.93-1.8,11.17,11.17,0,0,0-.45-1.92c-.29-.52-.59-1.48-1.28-.95l0,0a8.09,8.09,0,0,0-.57,1.32,3.7,3.7,0,0,0-.2,2.13A1.57,1.57,0,0,0,190,258.35Z"/><path class="cls-21" d="M189.38,254a2.44,2.44,0,0,0-.71,2.09c0,1,.13,2.19,1.39,1.95s.05-1.42-.17-1.77S190.13,253.68,189.38,254Z"/><path class="cls-22" d="M189,255.71c0,.43-.12,1.63.38,1.91.82.45,1.21.1.94-.28a3.66,3.66,0,0,1-.68-1.36C189.63,255.7,189.05,255,189,255.71Z"/><path class="cls-15" d="M229.25,246.07a2.77,2.77,0,0,0,4.52-3.21c-1.19-1.67-4.87-2.92-5.27-2.64S228.07,244.4,229.25,246.07Z"/><path class="cls-19" d="M229.83,245.62a2,2,0,0,0,3.32-2.37c-.87-1.23-3.58-2.15-3.88-1.94A6.45,6.45,0,0,0,229.83,245.62Z"/><path class="cls-20" d="M232.44,245.8a1.28,1.28,0,0,1-1.88-.75c-.23-.59-.79-1.13-.91-1.75s-.52-1.51.35-1.56h0a8,8,0,0,1,1.29.62,3.69,3.69,0,0,1,1.54,1.49A1.56,1.56,0,0,1,232.44,245.8Z"/><path class="cls-21" d="M230.05,242.05a2.43,2.43,0,0,1,1.91,1.12c.6.74,1.32,1.75.21,2.38s-1-1-1-1.45S229.31,242.33,230.05,242.05Z"/><path class="cls-22" d="M231.51,243.12c.32.29,1.16,1.15,1,1.69-.33.87-.86.87-.9.4a3.42,3.42,0,0,0-.37-1.47C231,243.54,231,242.63,231.51,243.12Z"/><path class="cls-15" d="M216.7,253a2.78,2.78,0,0,0,5.27-1.74c-.65-1.94-3.8-4.22-4.26-4.07S216.06,251,216.7,253Z"/><path class="cls-19" d="M217.39,252.73A1.89,1.89,0,0,0,220,254a1.9,1.9,0,0,0,1.31-2.55c-.47-1.43-2.79-3.11-3.14-3A6.42,6.42,0,0,0,217.39,252.73Z"/><path class="cls-20" d="M219.82,253.67a1.27,1.27,0,0,1-1.57-1.27,12,12,0,0,1-.35-1.94c.06-.6-.05-1.6.8-1.39h0a8.12,8.12,0,0,1,1.05,1,3.7,3.7,0,0,1,1,1.88A1.57,1.57,0,0,1,219.82,253.67Z"/><path class="cls-21" d="M218.65,249.38c.17,0,1,.39,1.49,1.64.36.89.75,2.06-.5,2.34s-.61-1.29-.55-1.69S217.86,249.44,218.65,249.38Z"/><path class="cls-22" d="M219.73,250.84c.22.37.77,1.44.42,1.89-.57.74-1.08.58-1,.12a3.49,3.49,0,0,0,.08-1.51C219.12,251.09,219.37,250.21,219.73,250.84Z"/><path class="cls-15" d="M207.32,254.08a2.58,2.58,0,0,1-2.51,3,2.6,2.6,0,0,1-3-2.48c-.18-2,1.79-5.39,2.29-5.43S207.13,252,207.32,254.08Z"/><path class="cls-19" d="M206.59,254.11a2,2,0,0,1-4.06.37c-.14-1.5,1.32-4,1.68-4A6.48,6.48,0,0,1,206.59,254.11Z"/><path class="cls-20" d="M204.73,256a1.29,1.29,0,0,0,.94-1.8,12,12,0,0,0-.46-1.92c-.29-.52-.58-1.48-1.28-.95l0,0a9.44,9.44,0,0,0-.57,1.31,3.74,3.74,0,0,0-.2,2.14A1.57,1.57,0,0,0,204.73,256Z"/><path class="cls-21" d="M204.09,251.55a2.44,2.44,0,0,0-.71,2.09c0,1,.13,2.19,1.39,2s0-1.42-.16-1.77S204.85,251.28,204.09,251.55Z"/><path class="cls-22" d="M203.69,253.31c-.05.43-.13,1.63.37,1.9.82.45,1.22.11.94-.27a3.5,3.5,0,0,1-.67-1.37C204.35,253.3,203.77,252.59,203.69,253.31Z"/><path class="cls-15" d="M175,269.29a2.77,2.77,0,0,1-5.42-1.15c.42-2,3.3-4.62,3.78-4.52S175.45,267.28,175,269.29Z"/><path class="cls-19" d="M174.32,269.1a2,2,0,0,1-4-.84c.31-1.48,2.43-3.41,2.79-3.33A6.45,6.45,0,0,1,174.32,269.1Z"/><path class="cls-20" d="M172,270.31a1.28,1.28,0,0,0,1.43-1.44,11.93,11.93,0,0,0,.13-2c-.13-.59-.12-1.59-.94-1.29h0a8.78,8.78,0,0,0-.93,1.09,3.63,3.63,0,0,0-.82,2A1.56,1.56,0,0,0,172,270.31Z"/><path class="cls-21" d="M172.69,265.91a2.49,2.49,0,0,0-1.3,1.79c-.26.93-.51,2.14.76,2.28s.47-1.35.36-1.74S173.49,265.88,172.69,265.91Z"/><path class="cls-22" d="M171.78,267.48c-.17.4-.6,1.52-.2,1.93.65.67,1.13.46,1,0a3.52,3.52,0,0,1-.24-1.5C172.42,267.66,172.07,266.82,171.78,267.48Z"/><path class="cls-15" d="M187.46,270.15a2.77,2.77,0,0,1-5.52.51c-.19-2,1.79-5.39,2.28-5.44S187.27,268.11,187.46,270.15Z"/><path class="cls-19" d="M186.72,270.18a2,2,0,0,1-4.06.38c-.14-1.51,1.32-4,1.68-4A6.35,6.35,0,0,1,186.72,270.18Z"/><path class="cls-20" d="M184.86,272a1.28,1.28,0,0,0,.94-1.8,11.94,11.94,0,0,0-.45-1.92c-.3-.53-.59-1.49-1.28-1l0,0a9,9,0,0,0-.58,1.31,3.82,3.82,0,0,0-.2,2.14A1.59,1.59,0,0,0,184.86,272Z"/><path class="cls-21" d="M184.23,267.62a2.48,2.48,0,0,0-.72,2.1c0,.95.14,2.19,1.39,1.94s.06-1.42-.16-1.77S185,267.36,184.23,267.62Z"/><path class="cls-22" d="M183.82,269.39c0,.42-.13,1.62.38,1.9.81.45,1.21.1.94-.28a3.45,3.45,0,0,1-.68-1.36C184.48,269.37,183.9,268.67,183.82,269.39Z"/><path class="cls-15" d="M226.88,262.3a2.77,2.77,0,0,0,4.52-3.21c-1.19-1.67-4.87-2.92-5.27-2.64S225.7,260.63,226.88,262.3Z"/><path class="cls-19" d="M227.46,261.85a2,2,0,0,0,3.32-2.37c-.87-1.23-3.58-2.15-3.88-1.94A6.51,6.51,0,0,0,227.46,261.85Z"/><path class="cls-20" d="M230.07,262a1.28,1.28,0,0,1-1.88-.75c-.23-.59-.79-1.13-.91-1.75s-.52-1.51.35-1.56h0a8,8,0,0,1,1.29.62,3.69,3.69,0,0,1,1.54,1.49A1.56,1.56,0,0,1,230.07,262Z"/><path class="cls-21" d="M227.69,258.28a2.43,2.43,0,0,1,1.9,1.12c.61.74,1.33,1.75.21,2.38s-1-1-1-1.45S226.94,258.56,227.69,258.28Z"/><path class="cls-22" d="M229.14,259.35c.32.29,1.16,1.15,1,1.69-.33.87-.86.87-.9.4a3.42,3.42,0,0,0-.37-1.47C228.63,259.77,228.61,258.86,229.14,259.35Z"/><path class="cls-15" d="M238.39,254.74a2.77,2.77,0,0,0,4.51-3.21c-1.18-1.67-4.86-2.93-5.27-2.64S237.2,253.07,238.39,254.74Z"/><path class="cls-19" d="M239,254.28a2,2,0,0,0,3.33-2.36c-.88-1.23-3.59-2.15-3.88-1.94A6.46,6.46,0,0,0,239,254.28Z"/><path class="cls-20" d="M241.57,254.47a1.28,1.28,0,0,1-1.88-.75c-.23-.59-.78-1.14-.9-1.76s-.53-1.51.35-1.55h0a8.45,8.45,0,0,1,1.28.63,3.71,3.71,0,0,1,1.55,1.49A1.58,1.58,0,0,1,241.57,254.47Z"/><path class="cls-21" d="M239.19,250.71a2.44,2.44,0,0,1,1.9,1.13c.61.74,1.33,1.75.22,2.38s-1-1-1-1.45S238.45,251,239.19,250.71Z"/><path class="cls-22" d="M240.65,251.79c.31.29,1.15,1.15.95,1.69-.32.87-.85.87-.89.4a3.56,3.56,0,0,0-.38-1.47C240.14,252.21,240.12,251.29,240.65,251.79Z"/><path class="cls-15" d="M213.05,267.62a2.77,2.77,0,0,0,5.27-1.73c-.64-1.95-3.79-4.23-4.26-4.08S212.41,265.68,213.05,267.62Z"/><path class="cls-19" d="M213.74,267.36a2,2,0,0,0,3.87-1.28c-.47-1.43-2.79-3.11-3.14-3A6.49,6.49,0,0,0,213.74,267.36Z"/><path class="cls-20" d="M216.18,268.31A1.28,1.28,0,0,1,214.6,267a12,12,0,0,1-.35-1.94c.06-.6-.05-1.6.8-1.39h0a8.12,8.12,0,0,1,1,1,3.74,3.74,0,0,1,1,1.88A1.58,1.58,0,0,1,216.18,268.31Z"/><path class="cls-21" d="M215,264c.16,0,1,.39,1.49,1.64.35.89.74,2.06-.5,2.34s-.62-1.28-.56-1.69S214.21,264.07,215,264Z"/><path class="cls-22" d="M216.08,265.47c.22.37.77,1.44.42,1.89-.57.74-1.08.58-1,.12a3.49,3.49,0,0,0,.08-1.51C215.47,265.72,215.72,264.84,216.08,265.47Z"/><path class="cls-15" d="M202.41,268.11a2.77,2.77,0,0,1-5.42,1.15c-.43-2,1.15-5.56,1.63-5.67S202,266.11,202.41,268.11Z"/><path class="cls-19" d="M201.68,268.23a1.89,1.89,0,0,1-1.57,2.39,1.91,1.91,0,0,1-2.42-1.55c-.31-1.47.85-4.09,1.21-4.17A6.47,6.47,0,0,1,201.68,268.23Z"/><path class="cls-20" d="M200.05,270.27a1.27,1.27,0,0,0,.72-1.89,11.3,11.3,0,0,0-.67-1.85c-.35-.49-.76-1.41-1.39-.8l0,0a9.81,9.81,0,0,0-.42,1.37,3.83,3.83,0,0,0,0,2.15A1.58,1.58,0,0,0,200.05,270.27Z"/><path class="cls-21" d="M198.91,266a2.47,2.47,0,0,0-.47,2.17c.14.95.39,2.16,1.61,1.77s-.11-1.42-.37-1.74S199.62,265.62,198.91,266Z"/><path class="cls-22" d="M198.71,267.78c0,.43.06,1.63.59,1.84.87.35,1.22,0,.91-.38a3.68,3.68,0,0,1-.84-1.28C199.36,267.69,198.7,267.05,198.71,267.78Z"/><path class="cls-15" d="M199.23,281.14a2.77,2.77,0,0,1-5.51.5c-.19-2,1.79-5.38,2.28-5.43S199.05,279.1,199.23,281.14Z"/><path class="cls-19" d="M198.5,281.17a1.89,1.89,0,0,1-1.84,2.19,1.91,1.91,0,0,1-2.22-1.82c-.14-1.5,1.32-4,1.68-4A6.52,6.52,0,0,1,198.5,281.17Z"/><path class="cls-20" d="M196.64,283a1.28,1.28,0,0,0,.94-1.8,12.19,12.19,0,0,0-.45-1.92c-.3-.52-.59-1.48-1.29-1l0,0a10.81,10.81,0,0,0-.57,1.31,3.74,3.74,0,0,0-.2,2.14S195.4,283.14,196.64,283Z"/><path class="cls-21" d="M196,278.61a2.4,2.4,0,0,0-.72,2.09c0,1,.14,2.19,1.39,1.95s.06-1.42-.16-1.77S196.76,278.34,196,278.61Z"/><path class="cls-22" d="M195.6,280.37c0,.43-.13,1.63.37,1.91.82.45,1.22.1.95-.28a3.58,3.58,0,0,1-.68-1.36C196.26,280.36,195.68,279.65,195.6,280.37Z"/><path class="cls-15" d="M213.44,280.55a2.77,2.77,0,0,1-5.42,1.14c-.42-2,1.15-5.56,1.63-5.66S213,278.54,213.44,280.55Z"/><path class="cls-19" d="M212.72,280.66a2,2,0,0,1-4,.85c-.32-1.48.84-4.1,1.2-4.17A6.44,6.44,0,0,1,212.72,280.66Z"/><path class="cls-20" d="M211.09,282.71a1.28,1.28,0,0,0,.72-1.89,12.45,12.45,0,0,0-.68-1.86c-.35-.48-.76-1.41-1.38-.8l0,0a8.29,8.29,0,0,0-.41,1.37,3.66,3.66,0,0,0,.05,2.15A1.57,1.57,0,0,0,211.09,282.71Z"/><path class="cls-21" d="M209.94,278.41a2.45,2.45,0,0,0-.47,2.16c.14.95.39,2.17,1.61,1.78s-.11-1.42-.37-1.74S210.65,278.06,209.94,278.41Z"/><path class="cls-22" d="M209.74,280.21c0,.43.06,1.63.59,1.85.87.35,1.22,0,.91-.39a3.47,3.47,0,0,1-.83-1.27C210.39,280.12,209.74,279.48,209.74,280.21Z"/><path class="cls-15" d="M209.27,292.57a2.77,2.77,0,0,1-5.48.78c-.29-2,1.52-5.47,2-5.54S209,290.54,209.27,292.57Z"/><path class="cls-19" d="M208.54,292.64a2,2,0,0,1-4,.57c-.22-1.49,1.12-4,1.48-4.08A6.48,6.48,0,0,1,208.54,292.64Z"/><path class="cls-20" d="M206.78,294.57a1.28,1.28,0,0,0,.84-1.84,11.86,11.86,0,0,0-.54-1.9c-.32-.51-.66-1.45-1.33-.89l0,0a9,9,0,0,0-.51,1.34,3.81,3.81,0,0,0-.09,2.14A1.57,1.57,0,0,0,206.78,294.57Z"/><path class="cls-21" d="M205.92,290.2a2.48,2.48,0,0,0-.61,2.13c.08.95.25,2.18,1.49,1.88s0-1.43-.25-1.76S206.66,289.9,205.92,290.2Z"/><path class="cls-22" d="M205.61,292c0,.43-.05,1.63.46,1.88.84.41,1.22,0,.93-.33a3.43,3.43,0,0,1-.74-1.32C206.26,291.94,205.65,291.26,205.61,292Z"/><path class="cls-15" d="M221.87,290a2.77,2.77,0,0,1-5.13,2.08c-.77-1.89.15-5.67.6-5.86S221.1,288.06,221.87,290Z"/><path class="cls-19" d="M221.18,290.2a2,2,0,0,1-3.78,1.54c-.56-1.4.11-4.18.45-4.32A6.44,6.44,0,0,1,221.18,290.2Z"/><path class="cls-20" d="M219.94,292.5a1.28,1.28,0,0,0,.37-2c-.37-.51-.53-1.27-1-1.71s-1-1.25-1.51-.54l0,0a9.93,9.93,0,0,0-.16,1.43,3.73,3.73,0,0,0,.43,2.1A1.58,1.58,0,0,0,219.94,292.5Z"/><path class="cls-21" d="M218.05,288.47a2.45,2.45,0,0,0-.08,2.21c.31.91.77,2.06,1.9,1.46s-.36-1.37-.67-1.64S218.69,288,218.05,288.47Z"/><path class="cls-22" d="M218.17,290.28c.08.42.35,1.59.91,1.71.92.19,1.2-.25.82-.54s-1-.83-1-1.1S218,289.57,218.17,290.28Z"/><path class="cls-15" d="M232.75,284.64a2.77,2.77,0,0,1-5.13,2.09c-.77-1.89.15-5.67.6-5.86S232,282.75,232.75,284.64Z"/><path class="cls-19" d="M232.06,284.89a2,2,0,0,1-3.78,1.54c-.56-1.4.11-4.18.45-4.32A6.44,6.44,0,0,1,232.06,284.89Z"/><path class="cls-20" d="M230.82,287.19a1.28,1.28,0,0,0,.37-2c-.37-.51-.53-1.27-1-1.71s-1-1.25-1.51-.54l0,0a9.93,9.93,0,0,0-.16,1.43,3.73,3.73,0,0,0,.43,2.1A1.58,1.58,0,0,0,230.82,287.19Z"/><path class="cls-21" d="M228.93,283.16a2.45,2.45,0,0,0-.08,2.21c.31.91.77,2.06,1.9,1.46s-.36-1.37-.67-1.64S229.57,282.69,228.93,283.16Z"/><path class="cls-22" d="M229.05,285c.08.42.35,1.59.91,1.71.92.19,1.2-.25.82-.54s-1-.83-1-1.1S228.92,284.26,229.05,285Z"/><path class="cls-15" d="M198.11,293.28a2.77,2.77,0,0,1-5.5.7c-.26-2,1.6-5.45,2.09-5.52S197.85,291.24,198.11,293.28Z"/><path class="cls-19" d="M197.38,293.33a2,2,0,0,1-4,.52c-.19-1.5,1.18-4,1.54-4.06A6.47,6.47,0,0,1,197.38,293.33Z"/><path class="cls-20" d="M195.58,295.24a1.28,1.28,0,0,0,.87-1.83,10.86,10.86,0,0,0-.52-1.9c-.31-.52-.64-1.47-1.31-.91l0,0a8.71,8.71,0,0,0-.52,1.33,3.76,3.76,0,0,0-.13,2.15A1.57,1.57,0,0,0,195.58,295.24Z"/><path class="cls-21" d="M194.79,290.86a2.48,2.48,0,0,0-.64,2.12c.06.95.21,2.18,1.46,1.9s0-1.43-.23-1.77S195.53,290.57,194.79,290.86Z"/><path class="cls-22" d="M194.45,292.64c0,.43-.07,1.63.44,1.89.83.42,1.22.06.93-.31a3.59,3.59,0,0,1-.73-1.34C195.11,292.6,194.5,291.91,194.45,292.64Z"/><path class="cls-15" d="M213.47,305a2.77,2.77,0,0,1-5.53.22c-.09-2.05,2.06-5.29,2.56-5.31S213.39,303,213.47,305Z"/><path class="cls-19" d="M212.74,305a2,2,0,0,1-4.07.16c-.06-1.51,1.52-3.89,1.88-3.91A6.48,6.48,0,0,1,212.74,305Z"/><path class="cls-20" d="M210.79,306.75a1.28,1.28,0,0,0,1-1.74,12.43,12.43,0,0,0-.36-1.95c-.26-.53-.51-1.51-1.23-1l0,0a8.5,8.5,0,0,0-.64,1.28,3.78,3.78,0,0,0-.31,2.12A1.58,1.58,0,0,0,210.79,306.75Z"/><path class="cls-21" d="M210.38,302.32a2.46,2.46,0,0,0-.82,2.06c0,.95,0,2.19,1.29,2s.12-1.42-.07-1.77S211.14,302.1,210.38,302.32Z"/><path class="cls-22" d="M209.88,304.06c-.07.43-.21,1.62.28,1.92.79.5,1.21.17,1-.23a3.43,3.43,0,0,1-.6-1.39C210.54,304.08,210,303.35,209.88,304.06Z"/><path class="cls-15" d="M223.93,302.78a2.77,2.77,0,0,1-5.53.36c-.13-2.05,1.93-5.34,2.42-5.38S223.79,300.73,223.93,302.78Z"/><path class="cls-19" d="M223.2,302.79a2,2,0,0,1-4.07.26c-.1-1.5,1.42-3.93,1.78-3.95A6.46,6.46,0,0,1,223.2,302.79Z"/><path class="cls-20" d="M221.29,304.58a1.28,1.28,0,0,0,1-1.77,11.2,11.2,0,0,0-.4-1.93c-.28-.53-.55-1.5-1.26-1l0,0a9,9,0,0,0-.6,1.3,3.72,3.72,0,0,0-.26,2.13A1.58,1.58,0,0,0,221.29,304.58Z"/><path class="cls-21" d="M220.77,300.16a2.46,2.46,0,0,0-.77,2.08c0,.95.08,2.19,1.34,2s.09-1.42-.12-1.78S221.53,299.92,220.77,300.16Z"/><path class="cls-22" d="M220.32,301.92c-.06.42-.17,1.62.32,1.91.81.47,1.21.13,1-.26a3.59,3.59,0,0,1-.64-1.37C221,301.92,220.41,301.2,220.32,301.92Z"/><path class="cls-15" d="M227.71,275.72a2.77,2.77,0,0,1-5.24,1.8c-.67-1.94.46-5.66.93-5.82S227,273.78,227.71,275.72Z"/><path class="cls-19" d="M227,275.92a2,2,0,0,1-3.86,1.32c-.49-1.42.34-4.16.68-4.28A6.45,6.45,0,0,1,227,275.92Z"/><path class="cls-20" d="M225.63,278.15a1.28,1.28,0,0,0,.49-2,11.22,11.22,0,0,0-.9-1.76c-.41-.43-.92-1.3-1.47-.62l0,0a9.69,9.69,0,0,0-.25,1.41,3.81,3.81,0,0,0,.32,2.13A1.55,1.55,0,0,0,225.63,278.15Z"/><path class="cls-21" d="M224,274a2.51,2.51,0,0,0-.2,2.21c.26.92.66,2.09,1.82,1.56s-.29-1.4-.58-1.68S224.64,273.59,224,274Z"/><path class="cls-22" d="M224,275.83c.05.43.26,1.61.81,1.76.9.25,1.21-.18.85-.49a3.64,3.64,0,0,1-1-1.16C224.63,275.66,223.9,275.11,224,275.83Z"/><path class="cls-15" d="M240.54,268.37a2.77,2.77,0,0,1-5.13,2.1c-.78-1.89.13-5.67.58-5.86S239.76,266.47,240.54,268.37Z"/><path class="cls-19" d="M239.85,268.61a2,2,0,0,1-3.78,1.55c-.57-1.39.1-4.18.43-4.32A6.54,6.54,0,0,1,239.85,268.61Z"/><path class="cls-20" d="M238.61,270.92a1.28,1.28,0,0,0,.37-2c-.38-.51-.54-1.27-1-1.71s-1-1.24-1.51-.53l0,0a9.64,9.64,0,0,0-.16,1.42,3.75,3.75,0,0,0,.44,2.11A1.57,1.57,0,0,0,238.61,270.92Z"/><path class="cls-21" d="M236.71,266.9a2.42,2.42,0,0,0-.07,2.21c.31.91.77,2.06,1.9,1.45s-.37-1.37-.67-1.64S237.35,266.42,236.71,266.9Z"/><path class="cls-22" d="M236.84,268.71c.08.42.35,1.59.91,1.7.92.19,1.2-.26.82-.54s-1-.83-1-1.1S236.7,268,236.84,268.71Z"/><path class="cls-15" d="M187.52,282.15a2.77,2.77,0,0,1-5.49.72c-.27-2,1.57-5.45,2.06-5.52S187.25,280.12,187.52,282.15Z"/><path class="cls-19" d="M186.79,282.21a2,2,0,0,1-4,.53c-.2-1.49,1.16-4,1.52-4.06A6.44,6.44,0,0,1,186.79,282.21Z"/><path class="cls-20" d="M185,284.12a1.28,1.28,0,0,0,.86-1.83,11.84,11.84,0,0,0-.53-1.9c-.31-.51-.65-1.46-1.32-.9l0,0a9.51,9.51,0,0,0-.52,1.34,3.72,3.72,0,0,0-.11,2.14A1.56,1.56,0,0,0,185,284.12Z"/><path class="cls-21" d="M184.19,279.75a2.45,2.45,0,0,0-.63,2.12c.07.95.23,2.19,1.47,1.89s0-1.42-.23-1.76S184.93,279.45,184.19,279.75Z"/><path class="cls-22" d="M183.86,281.53c0,.43-.07,1.63.45,1.88.83.42,1.22.06.93-.31a3.57,3.57,0,0,1-.73-1.33C184.52,281.49,183.91,280.8,183.86,281.53Z"/><path class="cls-14" d="M190.91,243.94c3.88.53,9.55,3.15,15.64-.08s14.64-4.73,11.95-1.28-11.56,9.56-28.4,5.33C184.91,246.6,188.81,243.65,190.91,243.94Z"/><path class="cls-7" d="M266.83,262.74s14.2-15.27,9.71-29.32c0,0-3-1.67-4,.8s1.56,15.5-9.13,27.34Z"/><path class="cls-8" d="M264.17,261.83c2.32-.57,4.12-4,5.09-5.78a51.06,51.06,0,0,0,3.25-7c1.72-4.66,3.31-11.24.68-15.8a2.24,2.24,0,0,0-.68.92c-1.08,2.47,1.56,15.5-9.13,27.34Z"/><path class="cls-8" d="M263.37,261.52s9.72-8.08,1.95-21.22c0,0-8.13,6.55-6.94,14.23C258.38,254.53,260.49,260.53,263.37,261.52Z"/><path class="cls-8" d="M258.61,254.59c4.32-7.88-.57-14.65-2.57-17,0,0-3.9,5-1.83,10.12Z"/><path class="cls-8" d="M266.83,262.74s4-11.47,16.64-9.85c0,0-3,9.22-9.46,11.81A34,34,0,0,0,266.83,262.74Z"/><path class="cls-8" d="M273,264.4s9-8.85,16.85-6.56c0,0-3.23,9-7.89,10.16C282,268,275.31,266.34,273,264.4Z"/><path class="cls-9" d="M266.31,251.36a9.48,9.48,0,0,0-.24-2.55c-.13-.79-.05-1.57-.14-2.36a11.93,11.93,0,0,0-1.4-4.07c-.86.77-1.23,2.26-1.73,3.24-.66,1.33-1.34,2.67-1.95,4a15,15,0,0,0-1.62,4.84c0,.44-.16,1.1-.21,1.76a14.74,14.74,0,0,0,3.06,4.49A16.54,16.54,0,0,0,266.31,251.36Z"/><path class="cls-10" d="M263.52,256.71a12,12,0,0,0,1.64-4.12,12.72,12.72,0,0,0-.12-4c0-.27-.35-3.55-.71-3.24a8.52,8.52,0,0,0-2.22,3.82c-.43,1.26-1,2.46-1.46,3.71a12.58,12.58,0,0,0-.8,5,13.45,13.45,0,0,0,1.68,2.3A37.09,37.09,0,0,0,263.52,256.71Z"/><path class="cls-11" d="M260.85,259.42s4.55-8.42,3.64-17c0,0-.69,10.19-4.2,16.07Z"/><path class="cls-9" d="M258.15,247.18a29.72,29.72,0,0,0-1-6.63c0-.06-.74-2.29-1.2-1.28a8.79,8.79,0,0,0-.53,1.57c-.23,1-.52,2-.68,3.07a9,9,0,0,0,.17,3.93c.15.55.24,1.13.44,1.66l2.06,3.2C258.34,251.13,258.27,248.91,258.15,247.18Z"/><path class="cls-10" d="M255.74,242.61c-.87,2.78-.08,5.89.89,8.61a21.86,21.86,0,0,0,.58-5.36,18.22,18.22,0,0,0-.17-2.08,4.54,4.54,0,0,0-.36-1.37C256.21,241.52,255.84,242.28,255.74,242.61Z"/><path class="cls-11" d="M257,252.08s.8-8.18-.45-11.89c0,0,.28,8.42-.29,10.73Z"/><path class="cls-9" d="M280.5,254.11a11.19,11.19,0,0,0-7.36,2.32,11.77,11.77,0,0,0-4.21,6.67,40.61,40.61,0,0,1,4.52,1.4,29.27,29.27,0,0,0,3.85-4.21A15,15,0,0,0,280.5,254.11Z"/><path class="cls-10" d="M274.68,261.56a12.13,12.13,0,0,0,2.78-3.11,21.73,21.73,0,0,0,1-2.05c.07-.17.26-1,.42-1-.34.06-.68.14-1,.23a17.6,17.6,0,0,0-2.74.91,9.58,9.58,0,0,0-3.35,3,8.75,8.75,0,0,0-1.57,2.85c-.07.23-.21.59-.32,1,.86.24,1.7.5,2.38.74A22,22,0,0,1,274.68,261.56Z"/><path class="cls-11" d="M270.17,263.7c4-5.42,11.89-10.08,11.89-10.08-6.26,2.34-11,7.59-12.76,9.81C269.58,263.53,269.88,263.61,270.17,263.7Z"/><path class="cls-9" d="M280.39,267.51a9.78,9.78,0,0,0,5.36-4.84c.44-.87.7-1.79,1.08-2.68.13-.31.72-1.14-.1-.87-.37.12-.72.28-1.09.39-2,.63-4.26.83-6.09,2a10.26,10.26,0,0,0-3.74,4.45,42.54,42.54,0,0,0,4.51,1.57Z"/><path class="cls-10" d="M284.47,262.3l.51-.71-.57-1c-.32.16-.63.34-1,.52-1.43.82-2.77,1.29-3.9,2.57a14,14,0,0,0-2,3c.68.24,1.35.46,2,.65a10.38,10.38,0,0,0,3.31-2.91C283.37,263.71,283.94,263,284.47,262.3Z"/><path class="cls-11" d="M277.82,266.84s5.34-5.53,9-7c0,0-6.6,5.23-8,7.17Z"/><path class="cls-12" d="M276.27,234.81s1.17,8.52-2.39,16.14c-1.52,3.24-1.29-.53-.34-2.95C276.13,241.39,274.27,234.45,276.27,234.81Z"/><path class="cls-13" d="M287.9,289.64c-3,8.09-14.35,14.38-27.41,17.36-16.56,3.78-26.36,13.84-37.27,5.37s-2.49-21.91-3.71-39.05c-1-13.85,2.5-24.68,10-29,23.73-13.86,29.33,12.76,33.88,16.3C267.54,263.8,297.44,263.75,287.9,289.64Z"/><path class="cls-16" d="M256.34,293.5c6.83-2.95,25.75-18.39,21.84-28.12-6.22-2.61-13-3.39-14.8-4.81s-4.05-7.16-7.67-12.11c-.2.08-.41.16-.61.26,0,0-15.23-2.29-23.17,20s-9.78,34.26-2.79,39.74S249.5,296.46,256.34,293.5Z"/><path class="cls-14" d="M287.9,289.64c4.41-12,.4-18.38-5.6-22.15a29.38,29.38,0,0,1,2.75,7.52c.8,3.38,1.74,7.67.13,11a23.71,23.71,0,0,1-7.82,8.71c-3.67,2.59-7.79,4.34-11.78,6.36-4.49,2.27-9,4.61-13.58,6.61-6.22,2.68-14.4,6.33-21.26,4a13.08,13.08,0,0,1-7.71-6.55c-1.3-2.9-1.05-6-1-9.14.11-4.86-.06-9.81-.27-14.67-.19-4.4-.78-8.71-.26-13.11,1-7.95,4.14-16.33,10.67-21.37,2.73-2.11,6.39-4,10-3.3,2.25.44,4.34,1.43,6.64,1.71a24.18,24.18,0,0,1,5.08.92c-4.94-5.52-12.32-8.93-24.37-1.89-7.49,4.37-11,15.2-10,29,1.22,17.14-7.25,30.53,3.71,39.05s20.71-1.59,37.27-5.37C273.55,304,284.92,297.73,287.9,289.64Z"/><path class="cls-17" d="M254,291c5.56-2.57,24.39-17.95,18.22-23.43-2.29-2-10.38-2.49-11.81-3.61s-1.82-6.32-6.39-9.48c-3.77-2.6-12.21-1.52-19.09,16.81s-8.65,28.17-3.15,32.48S248.46,293.53,254,291Z"/><path class="cls-16" d="M233.59,298.91c7.46-14,22.11-35.55,19.66-38.59-4-4.94-10.35-1.07-14.47,8.54C230.51,288.14,229.67,306.29,233.59,298.91Z"/><path class="cls-16" d="M235.37,300.57c12.92-16.81,24-34.28,27.79-33.22,6.12,1.74,4.91,9-3,15.88S232.37,304.47,235.37,300.57Z"/><path class="cls-16" d="M277.17,272.21A15.88,15.88,0,0,1,281.23,283c0,.55-1-1.47-1.47-2.79-1-2.79-1-3.55-3.43-6.39Z"/><path class="cls-16" d="M272,277.47a22.64,22.64,0,0,1,2.87,10.8c0,.49-.91-1.33-1.33-2.52-.88-2.53-.87-3.21-3.1-5.77Z"/><path class="cls-16" d="M265.61,285.31a12.74,12.74,0,0,1,1.6,9.15c-.08.44-.58-1.31-.75-2.42-.36-2.35-1.52-2.19-3-4.8Z"/><path class="cls-16" d="M257.59,289.61a12.5,12.5,0,0,1,1.58,9c-.07.43-.57-1.29-.73-2.38-.36-2.32-1.5-2.11-3-4.68Z"/><path class="cls-16" d="M250.23,296a10.82,10.82,0,0,1,1.36,7.76c-.06.37-.49-1.11-.63-2.06a9.5,9.5,0,0,0-1.5-4.71Z"/><path class="cls-16" d="M243.2,299.74a11.53,11.53,0,0,1,1.45,8.29c-.07.39-.52-1.19-.68-2.2-.33-2.13-1.32-1.89-2.7-4.25Z"/><path class="cls-16" d="M247.26,249.89a15.78,15.78,0,0,0-11.48-1.25c-.53.12,1.67.61,3.07.73,2.94.26,3.67.06,7,1.74Z"/><path class="cls-16" d="M241.35,256.55a20,20,0,0,0-10.88-.31c-.48.12,1.51.55,2.77.66,2.66.24,3.32.06,6.36,1.58Z"/><path class="cls-16" d="M235.62,264.48a12.71,12.71,0,0,0-9.26.71c-.41.18,1.41.23,2.53.12,2.37-.23,2.39.18,5.3,1Z"/><path class="cls-16" d="M233.44,273.3a12.55,12.55,0,0,0-9.12.7c-.4.18,1.39.23,2.49.12,2.33-.22,2.2.37,5.07,1.19Z"/><path class="cls-16" d="M230.71,282.36a10.84,10.84,0,0,0-7.86.6c-.34.15,1.2.2,2.15.11,2-.2,1.89.64,4.36,1.35Z"/><path class="cls-16" d="M228.42,290.72a11.52,11.52,0,0,0-8.39.64c-.36.16,1.28.21,2.3.12,2.14-.21,1.94.45,4.57,1.2Z"/><path class="cls-18" d="M258.89,255.84c-.66-2.57-5.53,1.43-7.66,7.36s-8.43,19.28-5.41,19.56,9.86-8.24,13-10.4,11.81-8.6,7.7-9.21S260.22,261,258.89,255.84Z"/><path class="cls-23" d="M257.91,259s1.51,4.77,3.51,5.41-12.3,15.7-12.11,12.3S256.14,256.3,257.91,259Z"/></g><path class="cls-24" d="M468.12,206.39s0,0,0-.07a3.74,3.74,0,0,0-.16-.62,5.38,5.38,0,0,0-.37-.73L408.8,119.31v-10.7a22.28,22.28,0,0,0-22.25-22.26H230.2a18.86,18.86,0,0,0-18.83,18.83V119.4l-52.88,85.71a3.34,3.34,0,0,0-.47,2v286a20.57,20.57,0,0,0,20.54,20.55H464.75a3.44,3.44,0,0,0,3.43-3.43V206.91A2.31,2.31,0,0,0,468.12,206.39ZM355.42,506.8V210.33H461.33V506.8ZM164.86,210.33H348.57V506.8h-170a13.72,13.72,0,0,1-13.7-13.7Zm2.68-6.85L216.7,123.8H399.24l-49.16,79.68ZM230.2,93.2H386.55A15.42,15.42,0,0,1,402,108.61V117H218.22V105.18A12,12,0,0,1,230.2,93.2Zm153.36,69.06,22-35.61,48.87,71.22Zm-25.43,41.22L380,168.11l70.37,35.37Z"/><path class="cls-25" d="M451.93,396.53V506.8H355.42V398a19.74,19.74,0,0,0,4.54.5c20.81,0,20.81-27.39,41.63-27.39s20.81,27.39,41.63,27.39A19.33,19.33,0,0,0,451.93,396.53Z"/><path class="cls-25" d="M348.58,394.94V506.8h-170a13.71,13.71,0,0,1-13.69-13.69V376c9.26,7.84,13.35,22.51,28.58,22.51,20.8,0,20.8-27.39,41.62-27.39s20.81,27.39,41.63,27.39,20.81-27.39,41.63-27.39C334.45,371.09,338.08,387.52,348.58,394.94Z"/><text class="cls-26" transform="translate(190.87 353.47)">MILK</text><path class="cls-25" d="M192.48,364.17h0a.39.39,0,0,1-.45-.2L190.55,361a1.33,1.33,0,0,0-1.23-.73l-3.67.12a.38.38,0,0,1-.37-.27.36.36,0,0,1,.19-.42l3.51-1.84a.67.67,0,0,0,.36-.62l-.17-4a.36.36,0,0,1,.27-.37h0a.38.38,0,0,1,.42.18l1.91,3.31a1,1,0,0,0,.89.49l3.43-.08a.45.45,0,0,1,.43.32.42.42,0,0,1-.21.48l-3.18,1.74a1,1,0,0,0-.53.94l.16,3.5A.39.39,0,0,1,192.48,364.17Zm-6.54-4.2,3.36-.11a1.77,1.77,0,0,1,1.64,1l1.38,2.74-.15-3.29a1.5,1.5,0,0,1,.76-1.35l3.18-1.73-3.43.1a1.41,1.41,0,0,1-1.27-.71l-1.79-3.09.16,3.74a1.11,1.11,0,0,1-.6,1Z"/><path class="cls-25" d="M285.89,290.05h0a.68.68,0,0,1-.55-.67l-.1-5.78a2.34,2.34,0,0,0-1.4-2.11l-5.9-2.62a.63.63,0,0,1-.37-.71.64.64,0,0,1,.61-.52l7-.22a1.21,1.21,0,0,0,1.05-.72l2.78-6.46a.67.67,0,0,1,.72-.39h0a.66.66,0,0,1,.53.6l.5,6.72a1.74,1.74,0,0,0,1,1.46l5.5,2.51a.74.74,0,0,1,.43.82.76.76,0,0,1-.7.61l-6.36.32a1.8,1.8,0,0,0-1.57,1.09l-2.43,5.66A.69.69,0,0,1,285.89,290.05Zm-7.15-11.66,5.41,2.4a3.12,3.12,0,0,1,1.85,2.8l.09,5.4,2.28-5.32a2.58,2.58,0,0,1,2.24-1.56l6.36-.32-5.51-2.46a2.52,2.52,0,0,1-1.48-2.1l-.46-6.27L286.91,277a2,2,0,0,1-1.74,1.18Z"/><path class="cls-25" d="M333.35,359.93h0a.8.8,0,0,1-1-.19L328,354.61a2.75,2.75,0,0,0-2.81-.87l-7.25,2a.75.75,0,0,1-.86-.37.78.78,0,0,1,.17-.93l6.12-5.32a1.38,1.38,0,0,0,.42-1.42l-2.25-7.87a.77.77,0,0,1,.36-.88h0a.76.76,0,0,1,.93.14l5.39,5.68a2,2,0,0,0,2,.56l6.8-1.8a.86.86,0,0,1,1,.43.84.84,0,0,1-.18,1.06l-5.49,5a2.11,2.11,0,0,0-.61,2.14l2,6.88A.81.81,0,0,1,333.35,359.93Zm-15-5.23,6.63-1.82A3.63,3.63,0,0,1,328.7,354l4.05,4.8-1.86-6.46a3,3,0,0,1,.87-3.05l5.49-5-6.77,1.84a2.94,2.94,0,0,1-2.88-.82l-5-5.29,2.1,7.36a2.28,2.28,0,0,1-.69,2.34Z"/><path class="cls-5" d="M225.52,386.82a.88.88,0,0,1-.89.62l-7.4-.5a2.1,2.1,0,0,0-1.95,1.05l-3.56,6.21a.81.81,0,0,1-1.51-.48l.45-4.38c.36-.41.7-.82,1-1.25l-.53,5.29,3.36-5.84a3,3,0,0,1,2.79-1.49l7.39.48-6-3.58a3,3,0,0,1-1.39-2c.3-.36.59-.72.89-1.07v.5a2,2,0,0,0,1,1.83l6,3.63A.88.88,0,0,1,225.52,386.82Z"/><path class="cls-25" d="M218.46,372.53l-.31,7.32c-.3.35-.59.71-.89,1.07a4.09,4.09,0,0,1,0-.6l.31-7.31-3.82,6.64a2.27,2.27,0,0,1-2.17,1.13l-7.45-.63,5.92,3.49a3.7,3.7,0,0,1,1.77,3.49l-.11,1c-.32.43-.66.84-1,1.25l.24-2.3a2.73,2.73,0,0,0-1.34-2.61l-6.47-3.84a.71.71,0,0,1-.32-.87.74.74,0,0,1,.77-.52l8.08.69a1.35,1.35,0,0,0,1.31-.69l4.09-7.08a.77.77,0,0,1,.88-.36h0A.76.76,0,0,1,218.46,372.53Z"/><path class="cls-5" d="M219.15,400.19h0a.31.31,0,0,1-.37-.13l-1.38-2.19a1.06,1.06,0,0,0-1-.49l-2.88.37a.29.29,0,0,1-.31-.19.3.3,0,0,1,.12-.34l2.63-1.71a.56.56,0,0,0,.24-.52l-.44-3.13a.3.3,0,0,1,.19-.32h0a.29.29,0,0,1,.35.11l1.75,2.46a.79.79,0,0,0,.74.32l2.7-.32a.34.34,0,0,1,.35.22.33.33,0,0,1-.13.4l-2.37,1.6a.8.8,0,0,0-.34.78l.38,2.75A.3.3,0,0,1,219.15,400.19Zm-5.46-2.81,2.64-.34a1.39,1.39,0,0,1,1.36.64l1.3,2.06-.37-2.58a1.18,1.18,0,0,1,.5-1.12l2.37-1.6-2.69.34a1.13,1.13,0,0,1-1.06-.47L216.1,392l.41,2.93a.88.88,0,0,1-.39.86Z"/><path class="cls-25" d="M174.31,309h0a.78.78,0,0,1,0-1l4.24-5.07a2.68,2.68,0,0,0,.37-2.87l-3.15-6.7a.74.74,0,0,1,1.14-.89l6.2,5a1.37,1.37,0,0,0,1.45.17l7.25-3.51a.74.74,0,0,1,.92.2h0a.74.74,0,0,1,0,.92l-4.59,6.19a2,2,0,0,0-.22,2l2.9,6.29a.84.84,0,0,1-.25,1,.86.86,0,0,1-1.06,0l-5.75-4.5a2.07,2.07,0,0,0-2.18-.22l-6.34,3.08A.77.77,0,0,1,174.31,309Zm2.55-15.45,2.88,6.13a3.6,3.6,0,0,1-.49,3.82l-4,4.74,6-2.9a3,3,0,0,1,3.1.33l5.75,4.49-2.93-6.26a2.89,2.89,0,0,1,.31-2.93l4.29-5.78L185,298.43a2.25,2.25,0,0,1-2.39-.27Z"/><path class="cls-25" d="M293.37,273.15h0a.31.31,0,0,1-.11-.37l1-2.35a1.05,1.05,0,0,0-.2-1.1l-1.94-2.09a.29.29,0,0,1,0-.35.28.28,0,0,1,.34-.11l2.87,1.12a.53.53,0,0,0,.55-.1l2.25-2.14a.29.29,0,0,1,.36,0h0a.29.29,0,0,1,.11.34l-1,2.81a.76.76,0,0,0,.16.77l1.79,2a.31.31,0,0,1,0,.4.33.33,0,0,1-.39.13l-2.63-1a.84.84,0,0,0-.83.17l-2,1.88A.3.3,0,0,1,293.37,273.15Zm-.88-6,1.78,1.92a1.36,1.36,0,0,1,.26,1.45l-.9,2.21,1.85-1.76a1.14,1.14,0,0,1,1.18-.24l2.63,1-1.81-2a1.13,1.13,0,0,1-.23-1.11l.9-2.63L296,268a.87.87,0,0,1-.91.18Z"/><path class="cls-25" d="M337.28,234.9h0a.3.3,0,0,1,0-.38l1.29-2.2a1.06,1.06,0,0,0,0-1.11l-1.63-2.35a.29.29,0,0,1,.38-.41l2.68,1.52a.54.54,0,0,0,.56,0l2.53-1.8a.29.29,0,0,1,.36,0h0a.29.29,0,0,1,.07.35l-1.36,2.65a.78.78,0,0,0,.05.78l1.5,2.21a.32.32,0,0,1,0,.41.33.33,0,0,1-.4.07l-2.47-1.35a.8.8,0,0,0-.84.06l-2.21,1.57A.3.3,0,0,1,337.28,234.9Zm0-6,1.49,2.14a1.39,1.39,0,0,1,.05,1.48l-1.21,2.06,2.08-1.48a1.13,1.13,0,0,1,1.2-.07l2.47,1.34-1.51-2.2a1.12,1.12,0,0,1-.07-1.13l1.27-2.47-2.38,1.68a.85.85,0,0,1-.92.05Z"/><path class="cls-25" d="M360,327.21h0a.29.29,0,0,1-.06-.37l1.3-2.2a1.05,1.05,0,0,0-.05-1.12l-1.62-2.34a.3.3,0,0,1,0-.36.29.29,0,0,1,.35-.05l2.67,1.52a.53.53,0,0,0,.57,0l2.53-1.79a.29.29,0,0,1,.36,0h0a.29.29,0,0,1,.07.35l-1.36,2.64a.77.77,0,0,0,.05.79l1.5,2.21a.31.31,0,0,1,0,.4.31.31,0,0,1-.4.07l-2.47-1.34a.82.82,0,0,0-.84,0l-2.22,1.58A.32.32,0,0,1,360,327.21Zm0-6,1.48,2.15a1.37,1.37,0,0,1,.06,1.48l-1.21,2.05,2.08-1.48a1.15,1.15,0,0,1,1.2-.07l2.47,1.34-1.51-2.19a1.1,1.1,0,0,1-.07-1.13l1.26-2.47-2.37,1.68a.87.87,0,0,1-.92.05Z"/><path class="cls-25" d="M320.83,336.31h0a.23.23,0,0,1,.06-.3l1.53-1.3a.8.8,0,0,0,.25-.84l-.6-2.16a.23.23,0,0,1,.39-.21l1.6,1.82a.42.42,0,0,0,.42.13l2.35-.68a.23.23,0,0,1,.27.11h0a.23.23,0,0,1-.05.28l-1.69,1.61a.61.61,0,0,0-.16.6l.54,2a.26.26,0,0,1-.13.3.25.25,0,0,1-.31-.05L323.8,336a.61.61,0,0,0-.63-.18l-2.06.6A.24.24,0,0,1,320.83,336.31Zm1.55-4.49.55,2a1.1,1.1,0,0,1-.34,1.12l-1.43,1.21,1.93-.56a.91.91,0,0,1,.91.26l1.49,1.64-.55-2a.86.86,0,0,1,.24-.86l1.58-1.51-2.2.64a.68.68,0,0,1-.7-.21Z"/><path class="cls-27" d="M468.13,206.38s0,0,0-.07-.1-.46-.15-.61a2.71,2.71,0,0,0-.18-.34,1.37,1.37,0,0,0-.2-.38L408.8,119.3V108.61a22.28,22.28,0,0,0-22.26-22.26H230.21a18.86,18.86,0,0,0-18.83,18.83v14.23L158.5,205.12a3.24,3.24,0,0,0-.48,2v286a20.56,20.56,0,0,0,20.54,20.54H464.75a3.44,3.44,0,0,0,3.43-3.43V206.91A3.17,3.17,0,0,0,468.13,206.38Zm-62.6-79.73,48.87,71.23-70.84-35.63Zm44.79,76.84H358.13L380,168.11Zm-232.1-98.31a12,12,0,0,1,12-12H386.54A15.42,15.42,0,0,1,402,108.61v8.33H218.22Zm-1.52,18.61H399.24l-49.16,79.7H167.54Zm-37.88,383c-.24,0-.48,0-.72,0a13.69,13.69,0,0,1-12.39-9,13.46,13.46,0,0,1-.69-2.62,14.35,14.35,0,0,1-.15-2.08V210.34H348.58V506.8Zm282.51,0H355.42V210.34H461.33Z"/><path class="cls-28" d="M348.58,490.56V506.8H178.82c-.24,0-.48,0-.72,0a14,14,0,0,1-12.39-9,15.05,15.05,0,0,1-.69-2.62,14.35,14.35,0,0,1-.15-2.08V435.37c13.5-1.35,24.17-22.14,38.7-16.47,16.78,6.52,5.22,35.18,22,41.7s28.34-22.1,45.12-15.56,5.19,35.18,22,41.7,28.37-22.1,45.16-15.56C345.72,474.26,347.31,482.27,348.58,490.56Z"/><circle class="cls-25" cx="188.8" cy="387.23" r="3.69"/><circle class="cls-25" cx="299.5" cy="370.88" r="3.69"/><circle class="cls-29" cx="291.83" cy="454.09" r="3.69"/><circle class="cls-29" cx="360.56" cy="480.95" r="3.69"/><circle class="cls-25" cx="227.5" cy="351.28" r="2.46"/><circle class="cls-25" cx="289.73" cy="337.47" r="2.1"/><circle class="cls-29" cx="285.67" cy="431.03" r="2.1"/><circle class="cls-29" cx="271.31" cy="405.79" r="2.1"/><circle class="cls-29" cx="338.14" cy="440.55" r="2.1"/><circle class="cls-29" cx="367.44" cy="467.01" r="2.1"/><circle class="cls-29" cx="223.31" cy="431.03" r="2.1"/><circle class="cls-29" cx="196.54" cy="407.89" r="2.1"/><circle class="cls-25" cx="182.51" cy="365.24" r="2.1"/><circle class="cls-25" cx="228.42" cy="290.28" r="2.1"/><circle class="cls-25" cx="276.78" cy="264.46" r="2.1"/><circle class="cls-25" cx="335.61" cy="367.4" r="2.16"/><circle class="cls-25" cx="394.48" cy="362.13" r="3.05"/><circle class="cls-25" cx="442.16" cy="315.51" r="3.05"/><circle class="cls-25" cx="367.44" cy="331.42" r="2.1"/><circle class="cls-25" cx="437.01" cy="290.28" r="2.1"/><circle class="cls-25" cx="403.68" cy="349.43" r="1.84"/><circle class="cls-25" cx="416.63" cy="264.46" r="1.33"/><circle class="cls-29" cx="303.18" cy="404.46" r="1.33"/><circle class="cls-29" cx="321.16" cy="377.83" r="1.33"/><circle class="cls-29" cx="230.52" cy="340.08" r="1.33"/><circle class="cls-29" cx="278.11" cy="353.51" r="1.33"/><circle class="cls-29" cx="259.75" cy="340.08" r="1.33"/><circle class="cls-29" cx="276.78" cy="396.52" r="1.33"/><circle class="cls-29" cx="273.41" cy="389.34" r="1.33"/><circle class="cls-29" cx="200.33" cy="396.52" r="1.33"/><circle class="cls-29" cx="323.96" cy="457.78" r="1.33"/><circle class="cls-29" cx="373.82" cy="442.65" r="1.33"/><circle class="cls-29" cx="364.25" cy="460.44" r="1.33"/><circle class="cls-29" cx="228.42" cy="415.82" r="1.33"/><circle class="cls-29" cx="232.85" cy="421.94" r="1.33"/><path class="cls-5" d="M276.69,132.11,262.59,120h0c7.14,6.16,4.36,21.09-6.21,33.36s-24.93,17.22-32.07,11.06h0l14.1,12.15c7.14,6.16,21.5,1.2,32.07-11.06S283.83,138.27,276.69,132.11Z"/><path class="cls-5" d="M262.59,120h0c-7.14-6.16-21.5-1.2-32.07,11.06s-13.36,27.21-6.21,33.36,21.5,1.2,32.07-11.06S269.73,126.12,262.59,120Z"/><path class="cls-5" d="M276.69,132.11,262.59,120h0c7.14,6.16,4.36,21.09-6.21,33.36s-24.93,17.22-32.07,11.06h0l14.1,12.15c7.14,6.16,21.5,1.2,32.07-11.06S283.83,138.27,276.69,132.11Z"/><path class="cls-24" d="M292.91,131.05c-4.5-3.87-10.73-4.9-17.53-3.46L264.27,118a14.27,14.27,0,0,0-9.52-3.29c-8.15,0-18.11,5.28-26.19,14.62-11.65,13.54-14.27,29.79-5.94,37h0l11.09,9.57c-.41,6.95,1.53,12.95,6,16.82a17.73,17.73,0,0,0,11.91,4.11c10.34,0,23.09-6.78,33.43-18.76C300,160.78,303.44,140.12,292.91,131.05Zm-24.39,4.46a29.39,29.39,0,0,0,.49-3.13c0-.31,0-.6.07-.9s0-.64,0-1,0-.55,0-.83v-.23c0-.16,0-.33,0-.48l.45.37,4.57,3.94.89.77c2,1.75,3.06,4.54,3.06,8.05v.25l-9.75-6.06c.07-.25.13-.53.2-.79Zm-1.19,4.22,10.34,6.42a33.27,33.27,0,0,1-3.4,9.32l-10.51-8A43.36,43.36,0,0,0,267.33,139.73Zm-11.57,18c.88-.87,1.73-1.8,2.57-2.75a53.64,53.64,0,0,0,3.58-4.66l10.59,8.11a46.39,46.39,0,0,1-4,5.34,44.74,44.74,0,0,1-4,4.11Zm6.13,12.34a37.12,37.12,0,0,1-7.89,4.73l-7.86-9.54a43.86,43.86,0,0,0,7.12-5.18Zm-29.72-5.65-.24,0c-.32,0-.65,0-1-.07a3.66,3.66,0,0,1-.59-.07c-.25,0-.51-.08-.77-.13a6.75,6.75,0,0,1-.68-.19,3,3,0,0,1-.62-.21,5.51,5.51,0,0,1-.78-.36,4.68,4.68,0,0,1-.45-.2,10.65,10.65,0,0,1-1.11-.79c-2.09-1.8-3.08-4.64-3.08-8,0-6.3,3.42-14.55,9.57-21.69,6.91-8,15.73-12.84,22.3-12.84a9.15,9.15,0,0,1,6.15,2,8.62,8.62,0,0,1,.94,1c.1.14.18.28.29.41s.32.47.46.72l.29.57a7,7,0,0,1,.29.68,6.07,6.07,0,0,1,.24.72c.07.19.1.39.16.6s.15.58.2.91c0,.1,0,.22,0,.32a18.31,18.31,0,0,1,0,4.26v0c-.07.55-.15,1.09-.26,1.64a1.25,1.25,0,0,1,0,.19,15.57,15.57,0,0,1-.38,1.64c0,.07,0,.16-.05.23-.15.56-.33,1.13-.51,1.71l-.05.15c-.19.6-.42,1.2-.67,1.82v0c-.41,1-.86,2-1.37,3v0c-.52,1-1.08,2-1.7,3a.67.67,0,0,1-.12.19c-.51.85-1.09,1.69-1.69,2.53-.15.22-.31.45-.46.65-.67.91-1.37,1.82-2.14,2.69s-1.54,1.71-2.33,2.5l-.57.56c-.75.72-1.52,1.42-2.29,2.08l-.14.11a40.56,40.56,0,0,1-5.56,3.94c-.6.34-1.18.65-1.78,1l0,0c-.59.29-1.15.56-1.72.8a.18.18,0,0,1-.1,0c-.56.24-1.11.46-1.66.65l-.08,0c-.55.19-1.12.36-1.66.51A17,17,0,0,1,232.17,164.44Zm2.45,5.45-.43-.38.53-.08A25.74,25.74,0,0,0,240.6,168c.8-.29,1.62-.65,2.46-1l7.48,9.07c-4.21,1.09-8,.73-10.46-1.41l-.85-.75Zm46.6,4.82c-12.6,14.61-30.05,21.08-38.11,14.13A13.05,13.05,0,0,1,239,180a15.05,15.05,0,0,0,7.25,1.73c8.14,0,18.12-5.28,26.19-14.62,5.39-6.28,9.07-13.44,10.32-20.18,1.11-6,.19-11.16-2.55-14.79.3,0,.61,0,.9,0a12.64,12.64,0,0,1,8.44,2.81C297.62,141.9,293.8,160.11,281.22,174.71Z"/><path class="cls-27" d="M292.91,131.05c-4.5-3.87-10.73-4.9-17.53-3.46l-3.82-3.29L264.27,118a14.27,14.27,0,0,0-9.52-3.29c-6.14,0-13.32,3-19.92,8.48a50.25,50.25,0,0,0-6.27,6.14c-11.65,13.54-14.27,29.79-5.94,37h0l11.09,9.57c-.41,6.95,1.53,12.95,6,16.82a17.73,17.73,0,0,0,11.91,4.11c10.34,0,23.09-6.78,33.43-18.76C300,160.78,303.44,140.12,292.91,131.05ZM269,132.38c0-.31,0-.6.07-.9s0-.64,0-1,0-.55,0-.83v-.23c0-.16,0-.33,0-.48l.45.37.62.53,3.95,3.41.89.77c2,1.75,3.06,4.54,3.06,8.05v.25l-9.75-6.06c.07-.25.13-.53.2-.79h0c.17-.83.32-1.66.41-2.46C269,132.83,269,132.6,269,132.38Zm-43.25,10.68a44,44,0,0,1,6.71-10.35c6.91-8,15.73-12.84,22.3-12.84a9.15,9.15,0,0,1,6.15,2,8.62,8.62,0,0,1,.94,1c.1.14.18.28.29.41s.32.47.46.72l.29.57a7,7,0,0,1,.29.68,6.07,6.07,0,0,1,.24.72c.07.19.1.39.16.6s.15.58.2.91c0,.1,0,.22,0,.32a18.31,18.31,0,0,1,0,4.26v0c-.07.55-.15,1.09-.26,1.64a1.25,1.25,0,0,1,0,.19,15.57,15.57,0,0,1-.38,1.64c0,.07,0,.16-.05.23-.15.56-.33,1.13-.51,1.71l-.05.15c-.19.6-.42,1.2-.67,1.82v0c-.41,1-.86,2-1.37,3v0c-.52,1-1.08,2-1.7,3a.67.67,0,0,1-.12.19c-.51.85-1.09,1.69-1.69,2.53-.15.22-.31.45-.46.65-.33.45-.67.89-1,1.34h0c-.36.47-.72.91-1.11,1.34-.76.87-1.54,1.71-2.33,2.5l-.57.56c-.75.72-1.52,1.42-2.29,2.08l-.14.11a40.56,40.56,0,0,1-5.56,3.94c-.6.34-1.18.65-1.78,1l0,0c-.59.29-1.15.56-1.72.8a.18.18,0,0,1-.1,0c-.56.24-1.11.46-1.66.65l-.08,0c-.55.19-1.12.36-1.66.51a16.61,16.61,0,0,1-3,.54,11.14,11.14,0,0,1-1.29.06l-.24,0c-.32,0-.65,0-1-.07a3.66,3.66,0,0,1-.59-.07c-.25,0-.51-.08-.77-.13a6.75,6.75,0,0,1-.68-.19,3,3,0,0,1-.62-.21,5.51,5.51,0,0,1-.78-.36,4.68,4.68,0,0,1-.45-.2,10.65,10.65,0,0,1-1.11-.79c-2.09-1.8-3.08-4.64-3.08-8A27.42,27.42,0,0,1,225.76,143.06Zm9,26.37A25.74,25.74,0,0,0,240.6,168c.8-.29,1.62-.65,2.46-1l7.48,9.07c-4.21,1.09-8,.73-10.46-1.41l-.85-.75-4.61-4-.43-.38Zm11.42-4.15a43.86,43.86,0,0,0,7.12-5.18l8.63,10a37.12,37.12,0,0,1-7.89,4.73Zm22.53-1.66a1,1,0,0,1-.14.17,44.74,44.74,0,0,1-4,4.11l-8.75-10.15c.88-.87,1.73-1.8,2.57-2.75.29-.35.58-.67.84-1,1-1.19,1.9-2.41,2.74-3.64l10.59,8.11A45.64,45.64,0,0,1,268.67,163.62Zm-4.91-16.19a43.36,43.36,0,0,0,3.57-7.7l10.34,6.42a33.27,33.27,0,0,1-3.4,9.32Zm17.46,27.28c-12.6,14.61-30.05,21.08-38.11,14.13A13.05,13.05,0,0,1,239,180a15.05,15.05,0,0,0,7.25,1.73c8.14,0,18.12-5.28,26.19-14.62,5.39-6.28,9.07-13.44,10.32-20.18,1.11-6,.19-11.16-2.55-14.79.3,0,.61,0,.9,0a12.64,12.64,0,0,1,8.44,2.81C297.62,141.9,293.8,160.11,281.22,174.71Z"/><path class="cls-5" d="M281.22,174.71c-12.6,14.61-30.05,21.08-38.11,14.13A13.05,13.05,0,0,1,239,180a15.05,15.05,0,0,0,7.25,1.73c8.14,0,18.12-5.28,26.19-14.62,5.39-6.28,9.07-13.44,10.32-20.18,1.11-6,.19-11.16-2.55-14.79.3,0,.61,0,.9,0a12.64,12.64,0,0,1,8.44,2.81C297.62,141.9,293.8,160.11,281.22,174.71Z"/><path class="cls-30" d="M255.54,150.3c-.36.47-.72.91-1.11,1.34-.76.87-1.54,1.71-2.33,2.5l-.57.56c-.75.72-1.52,1.42-2.29,2.08l-.14.11a40.56,40.56,0,0,1-5.56,3.94c-.6.34-1.18.65-1.78,1l0,0c-.59.29-1.15.56-1.72.8a.18.18,0,0,1-.1,0c-.56.24-1.11.46-1.66.65l-.08,0c-.55.19-1.12.36-1.66.51a16.61,16.61,0,0,1-3,.54,11.14,11.14,0,0,1-1.29.06l-.24,0c-.32,0-.65,0-1-.07a3.66,3.66,0,0,1-.59-.07c-.25,0-.51-.08-.77-.13a6.75,6.75,0,0,1-.68-.19,3,3,0,0,1-.62-.21,5.51,5.51,0,0,1-.78-.36,4.68,4.68,0,0,1-.45-.2,10.65,10.65,0,0,1-1.11-.79c-2.09-1.8-3.08-4.64-3.08-8a27.42,27.42,0,0,1,2.86-11.34c-.55,5.17.66,9.61,3.81,12.33,3.61,3.11,9.07,3.39,15,1.32A37.2,37.2,0,0,0,255.54,150.3Z"/><path class="cls-30" d="M280.58,175.42c-12.53,14.1-29.54,20.25-37.47,13.42A13.05,13.05,0,0,1,239,180a15.05,15.05,0,0,0,7.25,1.73c8.13,0,18.07-5.24,26.13-14.55Z"/><path class="cls-30" d="M268.67,163.62a1,1,0,0,1-.14.17,44.74,44.74,0,0,1-4,4.11l-8.75-10.15c.88-.87,1.73-1.8,2.57-2.75.29-.35.58-.67.84-1Z"/><path class="cls-30" d="M261.89,170.09a37.12,37.12,0,0,1-7.89,4.73l-7.86-9.54a43.86,43.86,0,0,0,7.12-5.18Z"/><path class="cls-30" d="M250.54,176c-4.21,1.09-8,.73-10.46-1.41l-.85-.75-4.61-4-.43-.38.53-.08A25.74,25.74,0,0,0,240.6,168c.8-.29,1.62-.65,2.46-1Z"/><path class="cls-31" d="M367,497.49c2.39,0,2.42,1.49,4.81,1.44s2.36-1.57,4.75-1.62,2.43,1.49,4.82,1.45,2.36-1.58,4.76-1.62,2.42,1.48,4.81,1.44,2.36-1.58,4.75-1.62,2.42,1.48,4.81,1.44,2.37-1.58,4.76-1.62,2.42,1.49,4.82,1.44,2.36-1.57,4.75-1.62,2.43,1.49,4.82,1.44,2.36-1.57,4.76-1.62,2.42,1.49,4.81,1.45,2.37-1.58,4.76-1.62,2.43,1.48,4.83,1.44,2.37-1.58,4.76-1.62"/><path class="cls-31" d="M367.07,487.73c2.39-.05,2.42,1.49,4.81,1.44s2.37-1.58,4.76-1.62,2.42,1.49,4.82,1.44,2.36-1.57,4.75-1.62,2.42,1.49,4.81,1.44,2.37-1.57,4.76-1.62,2.42,1.49,4.81,1.45,2.36-1.58,4.76-1.62,2.42,1.48,4.81,1.44,2.37-1.58,4.76-1.62,2.42,1.49,4.82,1.44,2.36-1.58,4.75-1.62,2.42,1.49,4.82,1.44,2.36-1.57,4.76-1.62,2.43,1.49,4.82,1.44,2.37-1.57,4.77-1.62"/><path class="cls-31" d="M367.16,478c2.39,0,2.42,1.49,4.81,1.45s2.36-1.58,4.76-1.62,2.42,1.48,4.81,1.44,2.37-1.58,4.76-1.62,2.42,1.49,4.81,1.44,2.36-1.57,4.75-1.62,2.42,1.49,4.82,1.44,2.36-1.57,4.75-1.62,2.42,1.49,4.82,1.45,2.36-1.58,4.76-1.63,2.42,1.49,4.81,1.45,2.37-1.58,4.76-1.62,2.42,1.48,4.81,1.44,2.37-1.58,4.77-1.62,2.42,1.49,4.82,1.44,2.37-1.58,4.76-1.62"/></g></g></svg>