<svg xmlns="http://www.w3.org/2000/svg" viewBox="0 0 257.96 319.53"><defs><style>.cls-1{fill:#efefef;}.cls-2{fill:#88d2b9;}.cls-3{fill:#fffbab;}</style></defs><g id="Layer_2" data-name="Layer 2"><g id="Layer_1-2" data-name="Layer 1"><ellipse class="cls-1" cx="128.98" cy="296.96" rx="128.98" ry="22.57"/><path class="cls-2" d="M115.21,229.13a8.62,8.62,0,0,1-5.84-2.28L85.1,204.36a8.59,8.59,0,1,1,11.68-12.61l17.94,16.62,46-50.06a8.59,8.59,0,1,1,12.65,11.62l-51.81,56.42a8.55,8.55,0,0,1-6,2.78Z"/><path class="cls-2" d="M129,83.62A104.12,104.12,0,1,0,233.1,187.74,104.12,104.12,0,0,0,129,83.62Zm0,191.12a87,87,0,1,1,87-87A87,87,0,0,1,129,274.74Z"/><path class="cls-3" d="M192.26,20.89c0-.76.55-1,1.12-.47l2.13,1.84a3,3,0,0,0,2.37.55l2.72-.71c.73-.19,1.09.23.8.92l-1.1,2.59a3,3,0,0,0,.21,2.43L202,30.41c.41.64.13,1.11-.63,1l-2.8-.24a3,3,0,0,0-2.24.95l-1.79,2.17c-.48.59-1,.46-1.19-.28l-.63-2.73a3,3,0,0,0-1.6-1.85l-2.61-1c-.71-.28-.76-.83-.11-1.22l2.41-1.45a2.92,2.92,0,0,0,1.26-2.08Z"/><path class="cls-3" d="M26.55,27c.06-.88.65-1.13,1.32-.55l2.5,2.16a3.44,3.44,0,0,0,2.79.65l3.19-.83c.86-.23,1.28.26.94,1.08l-1.29,3a3.47,3.47,0,0,0,.25,2.85L38,38.21c.48.75.15,1.3-.74,1.22L34,39.15a3.48,3.48,0,0,0-2.63,1.11l-2.1,2.55c-.57.69-1.19.54-1.39-.32l-.75-3.22a3.45,3.45,0,0,0-1.88-2.16L22.17,35.9c-.83-.32-.88-1-.12-1.42l2.83-1.71a3.48,3.48,0,0,0,1.48-2.45Z"/><path class="cls-3" d="M103.59,55.41c0-.57.42-.73.85-.36l1.62,1.41a2.3,2.3,0,0,0,1.81.42l2.08-.54c.55-.15.83.17.6.7l-.83,2a2.26,2.26,0,0,0,.16,1.85L111,62.67c.31.49.1.84-.48.8l-2.13-.19a2.27,2.27,0,0,0-1.72.72l-1.36,1.66c-.36.45-.77.35-.9-.21L104,63.36a2.22,2.22,0,0,0-1.21-1.4l-2-.79c-.53-.21-.57-.62-.07-.92l1.83-1.11a2.22,2.22,0,0,0,1-1.59Z"/><path class="cls-3" d="M218.42,77.91c.34-.6.84-.57,1.11.07l1,2.36a2.65,2.65,0,0,0,1.7,1.42l2.51.53c.67.14.79.63.27,1.08L223,85a2.69,2.69,0,0,0-.82,2.06l.27,2.54c.07.69-.35,1-.94.6l-2.18-1.34a2.67,2.67,0,0,0-2.21-.14l-2.34,1c-.63.28-1,0-.86-.71l.6-2.49a2.65,2.65,0,0,0-.55-2.15l-1.71-1.9c-.46-.52-.27-1,.41-1l2.55-.2a2.69,2.69,0,0,0,1.88-1.19Z"/><path class="cls-3" d="M12,62.78c-.9-1.2-.41-2.17,1.09-2.15l5.57.06a5.78,5.78,0,0,0,4.29-2.2l3.21-4.55c.86-1.22,1.93-1.06,2.38.37l1.66,5.31A5.8,5.8,0,0,0,33.59,63l5.32,1.64c1.44.45,1.61,1.52.38,2.39l-4.53,3.22a5.79,5.79,0,0,0-2.19,4.3l.08,5.56c0,1.5-.94,2-2.14,1.1L26,77.92a5.86,5.86,0,0,0-4.77-.75L16,79c-1.42.48-2.19-.28-1.71-1.7L16.08,72a5.83,5.83,0,0,0-.76-4.77Z"/><path class="cls-3" d="M54.94,72.78c.48-.8,1.15-.74,1.49.13l1.25,3.21a3.57,3.57,0,0,0,2.25,2l3.36.8c.9.21,1.05.87.33,1.45L61,82.51a3.59,3.59,0,0,0-1.17,2.75l.28,3.44c.08.92-.5,1.27-1.28.77l-2.9-1.87a3.62,3.62,0,0,0-3-.26l-3.18,1.33c-.85.35-1.36-.09-1.12-1l.88-3.33a3.64,3.64,0,0,0-.67-2.91l-2.25-2.62c-.61-.7-.34-1.32.58-1.37l3.45-.19a3.58,3.58,0,0,0,2.56-1.54Z"/><path class="cls-3" d="M68.48,29c.42-1.83,1.74-2.14,2.93-.7l4.43,5.36A7.28,7.28,0,0,0,81.4,36l6.92-.61c1.86-.17,2.57,1,1.56,2.57l-3.72,5.86a7.27,7.27,0,0,0-.49,6l2.72,6.39c.73,1.73-.15,2.75-2,2.29L79.7,56.79a7.3,7.3,0,0,0-5.87,1.38l-5.24,4.57c-1.41,1.23-2.66.7-2.78-1.16l-.43-6.94a7.29,7.29,0,0,0-3.13-5.15l-6-3.57c-1.61-1-1.49-2.31.25-3L63,40.37a7.3,7.3,0,0,0,3.93-4.57Z"/><path class="cls-3" d="M138.5,1.75c1.51-2.49,3.61-2.3,4.67.42l3.91,10.08a11.32,11.32,0,0,0,7.08,6.16l10.52,2.49c2.84.67,3.31,2.72,1,4.56l-8.38,6.84a11.29,11.29,0,0,0-3.67,8.63l.88,10.78c.24,2.91-1.57,4-4,2.41l-9.09-5.85a11.34,11.34,0,0,0-9.35-.83l-10,4.17c-2.68,1.13-4.28-.26-3.53-3.08l2.76-10.46a11.3,11.3,0,0,0-2.11-9.14l-7-8.2c-1.9-2.21-1.08-4.15,1.83-4.31l10.8-.6a11.29,11.29,0,0,0,8-4.82Z"/><path class="cls-3" d="M176.06,50.43c.13-1.49,1.14-1.87,2.24-.86l4.09,3.76A5.82,5.82,0,0,0,187,54.57l5.41-1.23c1.46-.34,2.14.51,1.51,1.86l-2.31,5a5.76,5.76,0,0,0,.26,4.8l2.84,4.77c.77,1.29.18,2.2-1.31,2l-5.51-.64a5.82,5.82,0,0,0-4.49,1.73l-3.66,4.18c-1,1.13-2,.85-2.32-.62L176.36,71a5.81,5.81,0,0,0-3-3.73l-5.1-2.19c-1.38-.58-1.44-1.67-.13-2.4L172.94,60a5.79,5.79,0,0,0,2.61-4Z"/><path class="cls-3" d="M233.31,31.32c1.41-1.29,2.7-.79,2.87,1.11l.63,7.07a7.42,7.42,0,0,0,3.33,5.17l6.18,3.49c1.67.94,1.59,2.32-.17,3.07L239.63,54a7.42,7.42,0,0,0-3.89,4.76l-1.41,7c-.38,1.88-1.72,2.23-3,.79l-4.67-5.35A7.41,7.41,0,0,0,221,59l-7.05.81c-1.9.21-2.65-.95-1.67-2.59l3.65-6.09a7.44,7.44,0,0,0,.34-6.14l-2.95-6.45c-.79-1.74.08-2.81,1.94-2.38l6.92,1.58a7.4,7.4,0,0,0,5.94-1.57Z"/></g></g></svg>