<svg xmlns="http://www.w3.org/2000/svg" viewBox="0 0 402.98 378.5"><defs><style>.cls-1{fill:#fff;}.cls-2{fill:#efefef;}.cls-3{fill:#88d2b9;}.cls-4{fill:#fffbab;}</style></defs><g id="Layer_2" data-name="Layer 2"><g id="Layer_1-2" data-name="Layer 1"><rect class="cls-1" width="402.98" height="378.5"/><ellipse class="cls-2" cx="204.5" cy="321.6" rx="128.98" ry="22.57"/><path class="cls-3" d="M190.74,253.77a8.55,8.55,0,0,1-5.84-2.29L160.62,229a8.59,8.59,0,0,1,11.68-12.61L190.24,233l46-50.06a8.59,8.59,0,1,1,12.66,11.62L197.06,251a8.62,8.62,0,0,1-6,2.78Z"/><path class="cls-3" d="M204.5,108.26A104.12,104.12,0,1,0,308.62,212.37,104.11,104.11,0,0,0,204.5,108.26Zm0,191.11a87,87,0,1,1,87-87A87,87,0,0,1,204.5,299.37Z"/><path class="cls-4" d="M267.78,45.53c.05-.76.55-1,1.12-.48L271,46.89a2.92,2.92,0,0,0,2.37.56l2.72-.71c.73-.19,1.09.22.8.92l-1.09,2.59a2.91,2.91,0,0,0,.2,2.43l1.52,2.37c.4.64.12,1.1-.63,1l-2.8-.24a2.94,2.94,0,0,0-2.25.95L270.08,59c-.48.58-1,.46-1.18-.28L268.26,56a3,3,0,0,0-1.6-1.84l-2.61-1c-.71-.27-.75-.82-.1-1.21l2.4-1.45a2.92,2.92,0,0,0,1.26-2.09Z"/><path class="cls-4" d="M102.08,51.66c0-.89.64-1.14,1.32-.55l2.49,2.16a3.49,3.49,0,0,0,2.79.65l3.19-.83c.87-.23,1.29.26.94,1.08l-1.28,3a3.43,3.43,0,0,0,.24,2.85l1.78,2.78c.48.75.14,1.31-.74,1.23l-3.29-.28a3.42,3.42,0,0,0-2.64,1.11l-2.1,2.55c-.56.69-1.19.54-1.39-.32l-.75-3.22a3.48,3.48,0,0,0-1.87-2.17l-3.08-1.2c-.82-.33-.88-1-.12-1.43l2.83-1.7A3.45,3.45,0,0,0,101.88,55Z"/><path class="cls-4" d="M179.11,80.05c0-.57.42-.74.86-.36l1.62,1.4a2.25,2.25,0,0,0,1.81.43l2.07-.54c.56-.15.83.17.61.7l-.84,2a2.26,2.26,0,0,0,.16,1.85l1.15,1.81c.32.48.1.84-.48.79l-2.13-.18a2.24,2.24,0,0,0-1.71.72l-1.36,1.66c-.37.44-.78.35-.91-.21L179.48,88a2.25,2.25,0,0,0-1.22-1.41l-2-.78c-.54-.21-.58-.63-.08-.92L178,83.78a2.2,2.2,0,0,0,1-1.59Z"/><path class="cls-4" d="M293.94,102.54c.35-.59.85-.56,1.11.08l1,2.36a2.67,2.67,0,0,0,1.71,1.42l2.5.53c.67.14.8.63.27,1.07l-1.94,1.66a2.64,2.64,0,0,0-.82,2.07l.26,2.54c.07.69-.35,1-.94.59l-2.18-1.33a2.67,2.67,0,0,0-2.21-.15l-2.34,1c-.63.28-1,0-.85-.71l.59-2.49a2.69,2.69,0,0,0-.54-2.15l-1.71-1.9c-.47-.51-.28-1,.41-1l2.55-.2a2.64,2.64,0,0,0,1.87-1.18Z"/><path class="cls-4" d="M87.5,87.42c-.9-1.2-.4-2.17,1.1-2.16l5.56.07a5.89,5.89,0,0,0,4.3-2.2l3.2-4.55c.86-1.23,1.93-1.06,2.38.37l1.66,5.31a5.84,5.84,0,0,0,3.42,3.41l5.32,1.64c1.43.44,1.6,1.51.38,2.38l-4.54,3.22a5.82,5.82,0,0,0-2.18,4.31l.08,5.56c0,1.5-1,2-2.15,1.1l-4.47-3.32a5.82,5.82,0,0,0-4.77-.75l-5.26,1.8c-1.42.48-2.19-.28-1.71-1.7l1.78-5.27a5.83,5.83,0,0,0-.76-4.77Z"/><path class="cls-4" d="M130.46,97.41c.49-.79,1.16-.73,1.49.13l1.25,3.22a3.61,3.61,0,0,0,2.26,2l3.35.79c.9.22,1.05.87.33,1.46l-2.67,2.18a3.61,3.61,0,0,0-1.17,2.75l.28,3.44c.08.92-.5,1.27-1.28.76l-2.9-1.86a3.6,3.6,0,0,0-3-.27l-3.18,1.33c-.86.36-1.37-.08-1.13-1L125,109a3.64,3.64,0,0,0-.67-2.92l-2.25-2.61c-.6-.7-.34-1.32.59-1.37l3.44-.19a3.63,3.63,0,0,0,2.56-1.54Z"/><path class="cls-4" d="M144,53.66c.42-1.82,1.73-2.13,2.93-.69l4.43,5.36a7.24,7.24,0,0,0,5.55,2.32l6.92-.61c1.87-.17,2.57,1,1.57,2.57l-3.73,5.86a7.29,7.29,0,0,0-.49,6l2.72,6.4c.73,1.72-.15,2.75-2,2.29l-6.73-1.74a7.31,7.31,0,0,0-5.87,1.39l-5.24,4.56c-1.41,1.23-2.66.71-2.77-1.16l-.44-6.94a7.29,7.29,0,0,0-3.13-5.14l-6-3.57c-1.6-1-1.49-2.32.25-3L138.52,65a7.25,7.25,0,0,0,3.93-4.56Z"/><path class="cls-4" d="M214,26.39c1.51-2.49,3.61-2.3,4.67.41l3.91,10.09a11.32,11.32,0,0,0,7.08,6.16l10.52,2.48c2.84.67,3.31,2.73,1.05,4.57l-8.37,6.83a11.33,11.33,0,0,0-3.68,8.63l.89,10.79c.23,2.9-1.58,4-4,2.41L217,72.91a11.32,11.32,0,0,0-9.34-.83l-10,4.17c-2.69,1.13-4.28-.26-3.54-3.08l2.76-10.46a11.33,11.33,0,0,0-2.1-9.14l-7.05-8.2c-1.9-2.21-1.08-4.15,1.83-4.31l10.8-.6a11.37,11.37,0,0,0,8.05-4.83Z"/><path class="cls-4" d="M251.58,75.07c.13-1.49,1.14-1.88,2.24-.86L257.91,78a5.82,5.82,0,0,0,4.65,1.24L268,78c1.46-.33,2.14.51,1.52,1.87l-2.32,5a5.82,5.82,0,0,0,.26,4.81l2.84,4.77c.77,1.29.18,2.19-1.3,2l-5.52-.64A5.78,5.78,0,0,0,259,97.57l-3.66,4.18c-1,1.12-2,.84-2.32-.62l-1.09-5.45a5.8,5.8,0,0,0-3-3.73l-5.1-2.19c-1.37-.59-1.43-1.67-.13-2.4l4.84-2.72a5.83,5.83,0,0,0,2.62-4Z"/><path class="cls-4" d="M308.83,56c1.41-1.29,2.7-.79,2.87,1.11l.63,7.07a7.42,7.42,0,0,0,3.34,5.17l6.17,3.49c1.67.93,1.59,2.32-.17,3.06l-6.52,2.78a7.44,7.44,0,0,0-3.89,4.77l-1.41,7c-.38,1.87-1.72,2.23-3,.79l-4.66-5.35a7.47,7.47,0,0,0-5.74-2.23l-7.05.81c-1.9.22-2.65-.94-1.67-2.58l3.65-6.09a7.41,7.41,0,0,0,.34-6.14l-2.95-6.45c-.79-1.74.08-2.82,1.95-2.39l6.91,1.59a7.43,7.43,0,0,0,5.95-1.57Z"/></g></g></svg>