<svg xmlns="http://www.w3.org/2000/svg" viewBox="0 0 402.98 378.5"><defs><style>.cls-1{fill:#fff;}.cls-2{fill:#efefef;}.cls-3{fill:#d18b8b;}.cls-4{fill:#e5e5e5;}</style></defs><g id="Layer_2" data-name="Layer 2"><g id="Layer_1-2" data-name="Layer 1"><rect class="cls-1" width="402.98" height="378.5"/><ellipse class="cls-2" cx="203.89" cy="321.6" rx="128.98" ry="22.57"/><path class="cls-3" d="M315.29,281.74,221.33,119a22.9,22.9,0,0,0-39.68,0l-94,162.74a22.92,22.92,0,0,0,19.84,34.37H295.45a22.92,22.92,0,0,0,19.84-34.37ZM300.5,296.11a5.74,5.74,0,0,1-5.05,2.91H107.53a5.83,5.83,0,0,1-5-8.74l94-162.74a5.83,5.83,0,0,1,10.1,0l94,162.74A5.74,5.74,0,0,1,300.5,296.11Z"/><circle class="cls-3" cx="201.49" cy="274.6" r="9.92" transform="translate(-89.75 98.01) rotate(-22.5)"/><path class="cls-3" d="M209.8,189.05a36.7,36.7,0,0,0-2.94-4.66c-.59-.77-1.19-1.55-1.88-2.33a25.21,25.21,0,0,0-2.31-2.32h-2.35a24,24,0,0,0-2.31,2.32c-.69.78-1.3,1.56-1.89,2.33a35.51,35.51,0,0,0-2.93,4.66,36.55,36.55,0,0,0-3.44,9.3,20.58,20.58,0,0,0-.5,4.66,21.21,21.21,0,0,0,.62,4.65c.36,1.55.82,3.11,1.22,4.66s.76,3.1,1,4.65l.75,4.66.83,4.65.94,4.66,1,4.65,1.06,4.65c.37,1.56.73,3.11,1.12,4.66.77,3.1,1.6,6.2,2.52,9.31h2.35q1.37-4.67,2.51-9.31c.4-1.55.75-3.1,1.12-4.66l1.06-4.65,1-4.65.93-4.66.83-4.65.76-4.66a45.4,45.4,0,0,1,1-4.65c.41-1.55.87-3.11,1.23-4.66a21.81,21.81,0,0,0,.61-4.65,20.57,20.57,0,0,0-.49-4.66A36.93,36.93,0,0,0,209.8,189.05Z"/><path class="cls-4" d="M135.89,144.08c-3.81,7.21-11.66,12.6-21.53,14.78-10.83,2.4-22.28.57-30.86-4.9a46.24,46.24,0,0,1-16,6.51,58.12,58.12,0,0,1-12.53,1.43c-7.73,0-14.09-1.8-17.07-5.11C27,158.9,15.75,154.12,12.49,145.94a12.39,12.39,0,0,1,.42-10.31c1.9-3.87,5.68-7,10.52-8.79A24.46,24.46,0,0,1,19.72,114c0-14.67,13.26-26.61,29.56-26.61a30.82,30.82,0,0,1,24,11.11c2-3.49,6-6.18,10.87-7.27,9-2,18.47,1.94,21.19,8.75a10.38,10.38,0,0,1-1,9.67c14.85-.26,28.17,7,32.51,17.85A19.51,19.51,0,0,1,135.89,144.08Z"/><path class="cls-4" d="M353.3,72.55c0,13.42-11.17,24.35-24.91,24.35a25.4,25.4,0,0,1-5.28-.58,26.19,26.19,0,0,1-37,1.13,15.32,15.32,0,0,1-20.78-1.85,28.42,28.42,0,0,1-3.87.28c-16.74,0-30.37-13.32-30.37-29.69S244.73,36.5,261.47,36.5a30.64,30.64,0,0,1,11.61,2.28,33.07,33.07,0,0,1,28.05-15.39,32.7,32.7,0,0,1,31.31,22.43,12,12,0,0,1,5.61-1.39,11.77,11.77,0,0,1,11.87,11.63,11,11,0,0,1-.53,3.4A23.82,23.82,0,0,1,353.3,72.55Z"/></g></g></svg>