<svg xmlns="http://www.w3.org/2000/svg" viewBox="0 0 341.74 320.78"><defs><style>.cls-1{fill:#efefef;}.cls-2{fill:#d18b8b;}.cls-3{fill:#e5e5e5;}</style></defs><g id="Layer_2" data-name="Layer 2"><g id="Layer_1-2" data-name="Layer 1"><ellipse class="cls-1" cx="192.33" cy="298.21" rx="128.98" ry="22.57"/><path class="cls-2" d="M303.73,258.35l-94-162.74a22.9,22.9,0,0,0-39.68,0l-94,162.74A22.92,22.92,0,0,0,96,292.72H283.89a22.92,22.92,0,0,0,19.84-34.37Zm-14.8,14.37a5.7,5.7,0,0,1-5,2.91H96a5.83,5.83,0,0,1-5-8.74l94-162.74a5.83,5.83,0,0,1,10.1,0l94,162.74A5.72,5.72,0,0,1,288.93,272.72Z"/><circle class="cls-2" cx="189.93" cy="251.21" r="9.92" transform="translate(-81.68 91.8) rotate(-22.5)"/><path class="cls-2" d="M198.23,165.66A35.51,35.51,0,0,0,195.3,161c-.59-.77-1.2-1.55-1.89-2.33a24,24,0,0,0-2.31-2.32h-2.35a25.21,25.21,0,0,0-2.31,2.32c-.69.78-1.3,1.56-1.88,2.33a37,37,0,0,0-6.38,14,19.87,19.87,0,0,0-.49,4.65,21.81,21.81,0,0,0,.61,4.65c.36,1.56.82,3.11,1.23,4.66s.76,3.1,1,4.65l.76,4.66.83,4.65.93,4.66,1,4.65,1.06,4.65c.37,1.56.72,3.11,1.12,4.66.76,3.1,1.6,6.21,2.51,9.31h2.35c.91-3.1,1.75-6.21,2.51-9.31.4-1.55.76-3.1,1.13-4.66l1.06-4.65,1-4.65.94-4.66.82-4.65.76-4.66c.25-1.55.6-3.1,1-4.65s.86-3.1,1.22-4.66a21.83,21.83,0,0,0,.62-4.65,20.44,20.44,0,0,0-.5-4.65A36.47,36.47,0,0,0,198.23,165.66Z"/><path class="cls-3" d="M124.33,120.69c-3.82,7.22-11.66,12.6-21.53,14.78-10.83,2.4-22.29.57-30.87-4.9a46.18,46.18,0,0,1-16,6.51,58.21,58.21,0,0,1-12.54,1.43c-7.72,0-14.08-1.8-17.07-5.1-10.82,2.1-22.11-2.68-25.37-10.86a12.39,12.39,0,0,1,.41-10.31c1.91-3.87,5.69-7,10.52-8.79a24.45,24.45,0,0,1-3.7-12.88C8.16,75.9,21.42,64,37.72,64a30.8,30.8,0,0,1,24,11.11c2-3.49,6-6.18,10.88-7.27,9-2,18.47,1.94,21.18,8.75a10.35,10.35,0,0,1-1,9.67c14.85-.26,28.17,7,32.52,17.86A19.49,19.49,0,0,1,124.33,120.69Z"/><path class="cls-3" d="M341.74,49.16c0,13.42-11.18,24.35-24.91,24.35a25.33,25.33,0,0,1-5.28-.58,26.19,26.19,0,0,1-37,1.13,15.32,15.32,0,0,1-20.78-1.85,28.42,28.42,0,0,1-3.87.28c-16.75,0-30.38-13.32-30.38-29.69s13.63-29.69,30.38-29.69a30.59,30.59,0,0,1,11.6,2.28A33.08,33.08,0,0,1,289.56,0a32.7,32.7,0,0,1,31.31,22.43A12,12,0,0,1,326.48,21a11.77,11.77,0,0,1,11.88,11.63,11.28,11.28,0,0,1-.53,3.4A23.82,23.82,0,0,1,341.74,49.16Z"/></g></g></svg>